<svg width="61" height="61" viewBox="0 0 61 61" fill="none" xmlns="http://www.w3.org/2000/svg">
<g clip-path="url(#clip0_283_57)">
<path d="M0 58.1422C0 41.3055 0 24.4688 0 7.63215C0.0458819 7.52886 0.0917638 7.42556 0.137646 7.31079C0.596465 5.99095 1.49116 5.13017 2.86762 4.84325C3.36085 4.73996 3.88849 4.78587 4.40466 4.77439C5.47142 4.77439 6.5267 4.77439 7.58199 4.77439C7.84581 1.75595 9.14197 0.1377 11.3099 0.0114534C12.3881 -0.0459313 13.3516 0.206562 14.2005 0.883702C15.4393 1.87072 15.8293 3.21352 15.726 4.73996H26.4165C26.3706 3.58079 26.5197 2.50195 27.2539 1.5838C27.988 0.66564 28.9171 0.126223 30.0871 0.0114534C31.085 -0.0918391 32.0141 0.160654 32.84 0.745978C34.1935 1.733 34.6408 3.13318 34.5491 4.76291C38.059 4.76291 41.5002 4.76291 44.9299 4.76291C45.0102 4.76291 45.079 4.73996 45.2281 4.717C45.1707 3.58079 45.3313 2.50195 46.0654 1.5838C46.811 0.654163 47.7631 0.114746 48.956 0.0114534C49.9654 -0.0688852 50.883 0.183608 51.6974 0.791886C53.028 1.7789 53.441 3.17909 53.3721 4.77439C54.6798 4.77439 55.9071 4.83177 57.1344 4.76291C59.3253 4.62519 61.0229 6.4615 61.0115 8.63064C60.9656 21.5537 60.9771 34.4767 61.0115 47.3998C61.0115 48.0999 60.7821 48.5934 60.3003 49.0754C56.5839 52.771 52.8904 56.4781 49.1739 60.1851C48.8872 60.472 48.5545 60.736 48.2448 61.0115H2.85615C1.3994 60.5639 0.447349 59.6113 0 58.1422ZM2.38586 18.1221H3.15438C18.6969 18.1221 34.2279 18.1221 49.7704 18.1221C49.9654 18.1221 50.1719 18.1221 50.3669 18.1221C50.9748 18.168 51.4221 18.65 51.4451 19.2583C51.468 20.0502 50.9519 20.4978 49.9769 20.4978C34.377 20.4978 18.7772 20.4978 3.17732 20.4978H2.42027V52.8399H3.16585C8.10963 52.8399 13.0534 52.8399 17.9857 52.8399C18.2266 52.8399 18.4675 52.8399 18.6969 52.8628C19.3622 52.9317 19.821 53.4137 19.8325 54.022C19.8439 54.6417 19.3507 55.1812 18.6854 55.25C18.4904 55.273 18.2839 55.25 18.0889 55.25C13.0878 55.25 8.08669 55.25 3.08556 55.25C2.85615 55.25 2.62674 55.25 2.36292 55.25C2.36292 55.8698 2.36292 56.3977 2.36292 56.9371C2.36292 58.2226 2.74144 58.6013 4.03761 58.6013C17.9857 58.6013 31.9453 58.6013 45.8934 58.6013C46.1113 58.6013 46.3178 58.6013 46.5931 58.6013C46.5931 58.3258 46.5931 58.1078 46.5931 57.9012C46.5931 55.4566 46.5931 53.012 46.5931 50.5789C46.5931 48.0999 48.0842 46.6194 50.5619 46.6194C53.0051 46.6194 55.4483 46.6194 57.88 46.6194C58.0865 46.6194 58.3044 46.6194 58.5683 46.6194C58.5683 46.3095 58.5683 46.0799 58.5683 45.8504C58.5683 33.5242 58.5683 21.1979 58.5683 8.87166C58.5683 8.73394 58.5683 8.59621 58.5683 8.45849C58.5338 7.6551 58.0636 7.17307 57.2492 7.16159C56.0792 7.15012 54.9092 7.16159 53.7392 7.16159C53.613 7.16159 53.4754 7.19603 53.3263 7.21898C53.3263 8.16009 53.3492 9.07825 53.3263 9.98493C53.246 13.0607 49.931 14.9544 47.2698 13.428C45.8819 12.6361 45.2052 11.3851 45.2052 9.78982C45.2052 8.92904 45.2052 8.0568 45.2052 7.2075H34.5147C34.5147 8.206 34.5376 9.15858 34.5147 10.0997C34.4458 12.5558 32.0141 14.415 29.6282 13.8756C27.6897 13.428 26.4509 11.9131 26.4165 9.91606C26.3936 9.00938 26.4165 8.1027 26.4165 7.19603H15.7146C15.7146 8.11418 15.7146 9.00938 15.7146 9.89311C15.7146 12.1655 13.9366 13.9445 11.6884 13.9445C9.40579 13.9445 7.62787 12.177 7.6164 9.87016C7.6164 8.98643 7.6164 8.09123 7.6164 7.16159C6.19406 7.16159 4.82907 7.12716 3.46408 7.17307C2.82174 7.19603 2.38586 7.71249 2.38586 8.37815C2.37439 11.5917 2.38586 14.8052 2.38586 18.1106V18.1221ZM49.0592 56.6387C51.5827 54.1138 54.1062 51.5889 56.6183 49.0869C54.4848 49.0869 52.2595 49.0754 50.0457 49.0869C49.5181 49.0869 49.0707 49.5575 49.0707 50.1083C49.0478 52.3119 49.0707 54.504 49.0707 56.6273L49.0592 56.6387ZM10.0023 6.92058C10.0023 7.85021 10.0023 8.77985 10.0023 9.70948C10.0137 10.7998 10.7249 11.5687 11.6769 11.5573C12.6175 11.5573 13.3172 10.7998 13.3287 9.74391C13.3402 7.89612 13.3402 6.05981 13.3287 4.21202C13.3287 3.15614 12.6175 2.41014 11.6769 2.39866C10.7249 2.38718 10.0137 3.15614 9.99079 4.24645C9.97932 5.14165 9.99079 6.02538 9.99079 6.92058H10.0023ZM28.8138 6.92058C28.8138 7.87317 28.8138 8.82575 28.8138 9.77834C28.8138 10.7883 29.5021 11.5343 30.4197 11.5687C31.3029 11.6032 32.0944 10.9146 32.1173 9.92754C32.1632 7.96498 32.1632 6.00242 32.1173 4.05134C32.0944 3.0758 31.3144 2.37571 30.4312 2.41014C29.5135 2.44457 28.8368 3.19057 28.8253 4.18906C28.8253 5.09574 28.8253 6.0139 28.8253 6.92058H28.8138ZM47.6254 6.98944C47.6254 7.91907 47.6254 8.84871 47.6254 9.77834C47.6254 10.7768 48.3136 11.5343 49.2313 11.5573C50.0916 11.5802 50.8716 10.926 50.8945 9.96197C50.9404 7.96498 50.9404 5.96799 50.8945 3.95952C50.8716 3.00694 50.0801 2.35275 49.2198 2.38718C48.3137 2.43309 47.6369 3.15614 47.6369 4.1202C47.6369 5.07279 47.6369 6.02538 47.6369 6.96649L47.6254 6.98944Z" fill="#353535"/>
<path d="M28.6073 33.6045V36.4393C28.8138 36.4393 28.9973 36.4623 29.1923 36.4737C30.3394 36.4737 31.4979 36.4737 32.645 36.4737C33.8379 36.4852 34.8473 37.4608 34.8817 38.6544C34.9161 39.7217 34.9046 40.8005 34.8817 41.8679C34.8473 43.0959 33.8379 44.0715 32.6105 44.083C31.2226 44.0944 29.8347 44.0944 28.4468 44.083C27.2194 44.0715 26.21 43.073 26.21 41.8449C26.1985 39.0446 26.1985 36.2442 26.21 33.4553C26.21 32.2617 27.2194 31.2517 28.4009 31.2288C30.1444 31.2058 31.8879 31.2288 33.6429 31.2288C34.3655 31.2288 34.8702 31.7223 34.8932 32.3879C34.9046 33.0766 34.3885 33.593 33.6429 33.6045C32.1976 33.6045 30.7409 33.6045 29.2956 33.6045C29.0776 33.6045 28.8712 33.6045 28.6073 33.6045ZM28.6188 41.6728H32.4614V38.8724H28.6188V41.6728Z" fill="#FFDC22"/>
<path d="M20.9337 41.7072V38.8495C20.5551 38.8495 20.1881 38.8495 19.821 38.8495C18.5363 38.8495 17.2402 38.8495 15.9555 38.8495C15.1984 38.8495 14.6708 38.3445 14.6593 37.6673C14.6593 36.9902 15.1984 36.4737 15.944 36.4737C17.5843 36.4737 19.236 36.4737 20.9222 36.4737V33.616C20.7157 33.616 20.5092 33.616 20.2913 33.616C18.8231 33.616 17.3549 33.616 15.8866 33.616C15.1869 33.616 14.6593 33.088 14.6593 32.4224C14.6593 31.7682 15.1869 31.2402 15.8866 31.2402C17.6531 31.2402 19.4195 31.2173 21.186 31.2402C22.3101 31.2517 23.331 32.2387 23.331 33.375C23.3539 36.2327 23.3539 39.0905 23.331 41.9482C23.331 43.1074 22.2986 44.083 21.1287 44.0944C19.3851 44.1059 17.6416 44.0944 15.8981 44.0944C15.1984 44.0944 14.6708 43.578 14.6593 42.9238C14.6593 42.2466 15.1869 41.7302 15.9325 41.7187C17.5728 41.7187 19.2246 41.7187 20.9337 41.7187V41.7072Z" fill="#FFDC22"/>
<path d="M43.9663 41.7073V38.8495C42.9569 38.8495 41.9475 38.7921 40.9496 38.861C38.6326 39.0331 37.5314 37.9428 37.7264 35.613C37.7837 34.8785 37.7264 34.1439 37.7493 33.4094C37.7952 32.1929 38.7702 31.2403 39.9861 31.2288C41.7181 31.2173 43.4387 31.2288 45.1707 31.2288C45.9048 31.2288 46.4554 31.7797 46.4325 32.4454C46.4095 33.0995 45.8819 33.6045 45.1707 33.6045C43.519 33.6045 41.8787 33.6045 40.1811 33.6045V36.4623H43.1749C45.7672 36.4623 46.4325 37.1279 46.4325 39.7332C46.4325 40.3874 46.4325 41.0416 46.4325 41.6958C46.3981 43.096 45.4116 44.0715 44.0122 44.0715C42.3605 44.0715 40.7202 44.0715 39.0684 44.0715C38.2426 44.0715 37.7493 43.6124 37.7493 42.8779C37.7493 42.1434 38.2426 41.6958 39.0799 41.6958C40.5137 41.6958 41.936 41.6958 43.3699 41.6958C43.5649 41.6958 43.7599 41.6958 43.9893 41.6958L43.9663 41.7073Z" fill="#FFDC22"/>
<path d="M24.6157 54.0679C24.6157 54.6992 24.0307 55.273 23.3884 55.273C22.746 55.273 22.1725 54.6877 22.1725 54.0565C22.1725 53.4023 22.7345 52.8629 23.3998 52.8629C24.0651 52.8629 24.6157 53.4137 24.6157 54.0679Z" fill="#353535"/>
<path d="M54.9895 20.4978C54.3128 20.4978 53.8081 19.9584 53.8195 19.2698C53.831 18.5927 54.3816 18.0992 55.0583 18.1221C55.7122 18.1451 56.1939 18.6615 56.1939 19.3157C56.1939 19.9928 55.6663 20.5093 54.978 20.4978H54.9895Z" fill="#353535"/>
</g>
<defs>
<clipPath id="clip0_283_57">
<rect width="61" height="61" fill="white"/>
</clipPath>
</defs>
</svg>
