<svg width="77" height="71" viewBox="0 0 77 71" fill="none" xmlns="http://www.w3.org/2000/svg">
<g clip-path="url(#clip0_283_24)">
<path d="M1.88814 71C12.636 70.9887 23.395 70.9887 34.1428 70.9887H41.9299C42.0752 70.9887 42.2204 70.9887 42.3545 70.9887C43.2147 70.8984 43.6393 70.4353 43.6505 69.5545C43.6505 67.6121 43.6505 65.6809 43.6505 63.7385C43.6505 62.8125 43.1812 62.3156 42.2428 62.2817C41.9523 62.2817 41.6506 62.2817 41.349 62.2817H40.6228V60.6555C40.6228 56.3867 37.5057 53.1455 33.3831 53.1117C26.0205 53.0552 18.2221 53.0552 10.2227 53.1117C6.65874 53.1342 3.80979 55.5961 3.13944 59.2325C3.02772 59.8311 3.00537 60.4522 2.98303 61.1072C2.98303 61.4121 2.96069 61.717 2.93834 62.0219L2.916 62.2817H2.65903C2.52496 62.2817 2.39089 62.2817 2.25683 62.2817C1.30717 62.2591 0.480418 62.2478 -0.0223389 63.1174V70.153C0.357522 70.7515 0.91614 71 1.86579 71H1.88814ZM9.12784 55.822C9.73114 55.6639 10.3903 55.6639 10.9154 55.6639C13.2281 55.6639 15.552 55.6639 17.8758 55.6639C22.7358 55.6752 27.7634 55.6865 32.7015 55.6187C34.4333 55.5849 35.9639 56.206 36.947 57.3579C37.9637 58.5324 38.3659 60.1812 38.0866 62.0107L38.0531 62.2478H5.64205L5.59736 62.0219C5.03875 59.0631 6.47998 56.5222 9.12784 55.822ZM2.49145 64.9243H41.1367V68.3574H2.49145V64.9243Z" fill="#FFDC22"/>
<path d="M35.0254 37.6627L35.9527 36.7366C36.0421 36.6463 36.1315 36.5785 36.2543 36.4769L36.6677 36.1381L37.0141 36.5785C37.1146 36.714 37.2152 36.8383 37.3269 36.9512C47.9518 47.7136 58.5879 58.4646 69.224 69.227C69.5257 69.5319 69.7938 69.8029 70.0843 70.0401C71.883 71.4856 74.5309 71.2033 76.0057 69.419C77.4916 67.5895 77.2905 65.1502 75.5029 63.332C69.1682 56.9175 62.8446 50.5143 56.4987 44.111C53.3704 40.949 50.2422 37.7982 47.0804 34.6135L42.5444 30.0398L43.8739 28.7072C45.3487 27.2165 46.7899 25.771 48.2423 24.3254C48.4434 24.1335 48.7562 24.1335 49.002 24.1222H49.1026C49.4154 24.1222 49.7282 24.1222 50.0522 24.1448C50.6667 24.1786 51.2588 24.2012 51.7951 24.0544C53.5157 23.5914 54.8228 22.3153 55.3032 20.6213C55.7948 18.8709 55.3256 16.9962 54.0408 15.6184C52.9682 14.4665 51.8398 13.3372 50.7449 12.2418C50.2645 11.7562 49.7729 11.2706 49.2925 10.785L46.0413 7.49866C44.1309 5.56753 42.2092 3.62511 40.2987 1.69398C39.0028 0.383979 37.6062 -0.158092 36.0421 0.0451843C34.5115 0.248461 33.2266 0.982515 32.4222 2.12312C31.6066 3.28632 31.3273 4.78831 31.6513 6.36935C31.6625 6.4371 31.7742 7.01305 31.4949 7.30668C30.0648 8.77479 28.6236 10.2203 27.1265 11.7336L25.73 13.1339L25.5289 12.9081C25.3948 12.75 25.2607 12.5919 25.1267 12.4451C24.8474 12.1176 24.5904 11.8126 24.3111 11.5416C22.5905 9.89281 19.9539 9.91539 18.2892 11.5868C16.658 13.2469 16.6357 15.8895 18.2445 17.606C18.5238 17.8996 18.8478 18.1594 19.183 18.4191C19.3394 18.5434 19.4958 18.6676 19.6522 18.7918L19.8756 18.9838L19.6745 19.1984C19.5405 19.3452 19.4958 19.4129 19.4623 19.4468L19.3952 19.5259L17.9317 21.0166C16.7586 22.2023 15.5966 23.3768 14.4459 24.5739C14.0548 24.9804 13.6526 25.2063 12.9599 25.0482C10.7813 24.5513 8.58037 25.5564 7.49665 27.544C6.39059 29.5655 6.71459 31.9257 8.31224 33.5519C13.027 38.3628 17.7417 43.1285 22.3336 47.7361C23.8977 49.3059 26.3444 49.6334 28.2884 48.5267C30.2436 47.4199 31.2156 45.2065 30.7352 42.8914C30.657 42.5074 30.8134 41.954 31.0927 41.6604C32.3887 40.3052 33.7294 38.9501 35.0366 37.6401L35.0254 37.6627ZM53.8397 45.0258C53.9402 45.1274 54.0855 45.2516 54.2195 45.3872C60.6772 51.9146 67.1348 58.4533 73.5924 64.9808L73.6483 65.0372C73.8382 65.2292 74.0281 65.4212 74.1846 65.6471C74.6761 66.4037 74.5756 67.341 73.9164 67.9509C73.5924 68.2558 73.1567 68.4026 72.721 68.4026C72.3523 68.4026 71.9836 68.2897 71.6708 68.0751C71.5255 67.9735 71.4026 67.8492 71.2797 67.725L51.4376 47.6571C51.3706 47.5893 51.3147 47.5216 51.2477 47.4425L50.9572 47.1263L53.5604 44.7547L53.8285 45.0145L53.8397 45.0258ZM51.5828 42.7559L49.1249 45.2178L46.7005 42.8349L49.2478 40.4295L51.5828 42.7559ZM47.2815 38.4983L44.8459 40.8473L38.433 34.3425L40.7792 31.9257L47.2815 38.4983ZM34.221 4.05425C34.6343 3.13951 35.3717 2.62002 36.5448 2.40545H36.6342L36.7236 2.42804C36.88 2.50709 37.0476 2.58614 37.2152 2.66519C37.6062 2.83459 38.0084 3.01528 38.3212 3.3202C43.3823 8.37953 48.3987 13.4727 52.1973 17.335C52.7113 17.8545 52.9906 18.5321 52.9794 19.2322C52.9794 19.9098 52.6889 20.5535 52.1973 21.0278C51.7169 21.4909 51.1024 21.7167 50.4768 21.7167C49.8064 21.7167 49.1361 21.4457 48.611 20.9262C43.9968 16.2734 39.405 11.6207 34.8019 6.95659C33.964 6.1096 33.7629 5.08193 34.2321 4.04296L34.221 4.05425ZM20.0879 13.3485C20.7583 12.6935 21.7303 12.6596 22.4453 13.2695C22.7805 13.5518 23.1045 13.868 23.4285 14.1729L24.0541 14.7714L21.4956 17.3124L21.3057 17.1204C21.1716 16.9849 21.0376 16.8607 20.9035 16.7252C20.5795 16.4202 20.2443 16.0927 19.9539 15.7314C19.3617 15.0199 19.4287 13.9922 20.0991 13.3372L20.0879 13.3485ZM28.3666 43.8174C28.2661 45.1952 27.7969 45.997 26.8695 46.4148C26.5009 46.5842 26.1322 46.6633 25.7747 46.6633C25.149 46.6633 24.568 46.4148 24.0541 45.9179C23.3167 45.2065 22.6129 44.4837 21.8978 43.761L18.5461 40.3617C15.7977 37.5836 13.0382 34.7942 10.3009 32.0048C9.68644 31.3837 9.35127 30.5706 9.39596 29.78C9.42947 29.0912 9.75347 28.4587 10.3009 28.0183C11.3735 27.16 12.8035 27.2955 13.8761 28.3684C15.7977 30.2995 17.7082 32.2419 19.6187 34.1731L23.1603 37.753C24.5569 39.1646 26.0093 40.6102 27.3947 42.0783C27.7522 42.4622 27.998 42.9478 28.1655 43.2979C28.2326 43.4222 28.2773 43.5351 28.3331 43.6254L28.3778 43.7045V43.7948L28.3666 43.8174ZM29.1264 39.9665L16.01 26.7309L33.2713 9.33944L46.2871 22.4734L37.4498 31.3498L36.4108 30.2882C35.7516 29.6106 35.0589 28.9105 34.3662 28.199C33.897 27.7134 33.4948 27.5666 33.0144 27.6908C32.5675 27.8037 32.2435 28.1199 32.1206 28.5491C31.9977 28.9895 32.1206 29.4751 32.4557 29.8365C33.3048 30.7512 34.2098 31.6434 35.0142 32.4226C35.1259 32.5356 35.2823 32.6146 35.4276 32.705C35.5058 32.7501 35.584 32.7953 35.651 32.8405L35.9415 33.0325L33.2825 35.788L29.0035 31.4514C28.6571 31.1013 28.3108 30.7512 27.9644 30.4012C27.4729 29.9156 26.7467 29.4977 26.0205 30.2092C25.7635 30.4689 25.6182 30.7512 25.6182 31.0449C25.6182 31.4175 25.8193 31.8241 26.2104 32.2194C27.2382 33.2696 28.2773 34.3199 29.3163 35.3701L30.9139 36.9851C30.9922 37.0754 31.0815 37.1545 31.1709 37.2561L31.5061 37.6175L29.1375 39.9665H29.1264Z" fill="#353535"/>
<path d="M22.6017 25.5112C21.9313 25.5112 21.3839 26.042 21.3615 26.7196C21.3504 27.0697 21.4733 27.3859 21.6967 27.6343C21.9202 27.8715 22.233 28.007 22.5793 28.007C22.948 28.0296 23.2608 27.8941 23.4843 27.6682C23.7077 27.4423 23.8306 27.1261 23.8418 26.776C23.8418 26.4147 23.7189 26.0984 23.4955 25.8613C23.272 25.6354 22.9592 25.5112 22.624 25.5112H22.6017Z" fill="#353535"/>
</g>
<defs>
<clipPath id="clip0_283_24">
<rect width="77" height="71" fill="white"/>
</clipPath>
</defs>
</svg>
