<svg width="73" height="73" viewBox="0 0 73 73" fill="none" xmlns="http://www.w3.org/2000/svg">
<g clip-path="url(#clip0_283_51)">
<path d="M1.87246 73C0.450828 72.3874 -0.0230475 71.301 6.8365e-05 69.7638C0.069416 65.1753 0.0231843 60.5983 0.0231843 56.0098C0.0231843 52.057 2.24231 48.971 5.98708 47.7459C7.29313 47.3182 8.58762 46.8559 9.90523 46.4976C11.1882 46.1393 12.2284 45.5037 13.2108 44.5675C13.9967 43.8162 14.147 43.0418 14.043 42.0941C14.0199 41.9207 13.8349 41.7011 13.6616 41.6086C13.1068 41.2966 12.4942 41.077 11.951 40.7533C11.35 40.395 11.1997 39.7593 11.5233 39.2277C11.8354 38.7307 12.448 38.5458 13.0143 38.8809C14.4475 39.7593 16.0078 40.0021 17.6606 39.9327C19.1516 39.8749 20.6657 39.979 22.1335 39.7709C25.2657 39.3433 27.6467 36.5578 27.6929 33.414C27.716 31.5416 27.6929 29.6577 27.6929 27.7853C27.6929 27.2883 25.6356 24.5029 25.1502 24.4104C24.8959 24.3642 24.5838 24.4335 24.3411 24.5491C20.6657 26.3059 16.9787 26.329 13.3148 24.5491C12.7254 24.2601 12.344 24.3873 11.8932 24.8496C10.3213 26.4099 9.57005 28.1783 9.84744 30.4436C10.0555 32.0964 9.76653 33.807 10.2635 35.4598C10.4485 36.0608 10.0902 36.5231 9.48914 36.7196C8.95748 36.893 8.41425 36.5925 8.19465 36.003C8.06752 35.6447 7.91726 35.2749 7.9057 34.905C7.9057 34.2924 7.57052 34.2115 7.08509 34.2462C6.77303 34.2693 6.47252 34.2462 6.16045 34.2346C4.94687 34.1422 3.94133 33.2176 3.88354 32.004C3.81419 30.721 3.77952 29.4265 3.91821 28.1667C3.98756 27.5773 4.40365 26.9416 4.84285 26.5024C5.17803 26.1556 5.31672 25.8898 5.32828 25.4275C5.3514 23.6938 5.25893 21.9486 5.47854 20.238C6.0102 16.1002 9.80121 12.864 13.9621 12.8409C17.0018 12.8409 20.0531 12.9449 23.0813 12.8178C27.5195 12.6328 32.3854 16.0424 32.3392 22.041C32.3392 23.2084 32.3161 24.3757 32.3623 25.5315C32.3739 25.832 32.5588 26.1903 32.7784 26.3868C33.4372 26.9763 33.8186 27.6697 33.8186 28.5597C33.8186 29.5537 33.8186 30.5592 33.8186 31.5532C33.8071 33.1366 32.79 34.1884 31.2181 34.2462C30.7904 34.2578 30.3628 34.2462 29.9005 34.2462C29.7965 34.6623 29.7271 35.0553 29.6115 35.4367C28.7909 38.3493 26.9763 40.3835 24.1562 41.4815C23.6476 41.678 23.5898 41.9438 23.5436 42.4061C23.4511 43.2961 23.7863 43.8855 24.4105 44.5097C25.3235 45.4227 26.2828 46.1047 27.5658 46.4167C28.8718 46.7403 30.1316 47.2258 31.4261 47.6303C32.9171 48.1042 34.2231 48.867 35.4367 50.1268C35.4367 49.3409 35.4367 48.7283 35.4367 48.1273C35.4367 46.4398 35.4367 44.7524 35.4367 43.0649C35.4367 42.7297 35.4714 42.3946 35.5292 42.0709C35.6332 41.4468 36.0955 41.0538 36.6388 41.0885C37.2513 41.1232 37.6674 41.6202 37.6674 42.3137C37.6674 44.0473 37.6559 45.781 37.6443 47.5147C37.6443 47.7459 37.6443 47.9886 37.6443 48.2776H41.8167V47.6188C41.8167 46.1162 41.8167 44.6252 41.8167 43.1227C41.8167 42.3137 42.2444 41.8282 42.9147 41.8398C43.562 41.8513 43.9549 42.3137 43.9549 43.0996C43.9549 46.0931 43.9549 49.0866 43.9549 52.0801C43.9549 52.3344 43.9549 52.6002 43.9549 52.947C45.0414 52.947 46.0816 52.947 47.1218 52.947C47.6419 52.947 48.1736 52.9239 48.6937 52.9701C50.1962 53.0741 50.9591 54.2646 50.4158 55.6746C49.5721 57.8591 48.7053 60.0435 47.85 62.228C47.4339 63.2798 47.0294 64.3315 46.6017 65.4527C46.7982 65.4873 46.9022 65.5105 47.0062 65.5105C48.8555 65.5105 50.7163 65.5105 52.5656 65.522C53.0279 65.522 53.1782 65.3833 53.1782 64.921C53.1666 60.737 53.1782 56.553 53.1551 52.3806C53.1551 52.1032 53.0048 51.7912 52.8314 51.56C51.5254 49.9072 50.2193 48.2429 48.844 46.6363C48.0927 45.7579 47.8962 44.8217 48.1274 43.7353C48.1967 43.4348 48.2314 43.1343 48.2892 42.8569C48.2083 42.7991 48.1736 42.7529 48.1274 42.7529C46.359 42.6835 45.3881 41.7242 44.9143 40.0599C44.5675 38.8578 44.059 37.702 43.6082 36.5C42.1403 36.9045 40.7303 37.3322 39.5976 38.4071C38.985 38.985 38.3609 38.985 37.9101 38.488C37.4709 38.0025 37.5518 37.3784 38.1529 36.8005C39.1468 35.8412 40.3373 35.2286 41.6434 34.8125C42.9263 34.3965 44.1977 33.9457 45.5037 33.599C46.7404 33.2753 47.6882 32.6165 48.6128 31.7497C49.4103 31.01 49.653 30.224 49.5143 29.2416C49.4912 29.0798 49.3525 28.8371 49.2138 28.7793C45.8736 27.4964 43.9087 25.0808 43.2499 21.5787C43.2499 21.5325 43.2037 21.4978 43.1459 21.3938C42.7067 21.3938 42.2328 21.4169 41.7705 21.3938C40.3604 21.336 39.3202 20.2842 39.2855 18.8857C39.2624 17.7877 39.274 16.7012 39.2855 15.6032C39.2855 14.7711 39.6323 14.066 40.3142 13.5922C40.684 13.3379 40.7534 13.0489 40.7649 12.6444C40.7649 11.0725 40.7418 9.50064 40.8459 7.94032C41.1117 3.60609 44.9836 0.0231258 49.3641 9.91253e-06C52.5887 -0.011548 55.825 9.91253e-06 59.0612 9.91253e-06C63.6959 0.0115679 67.6603 3.92971 67.7296 8.55289C67.7528 9.92829 67.7412 11.3037 67.7296 12.6906C67.7296 13.072 67.7759 13.3379 68.1457 13.569C68.8161 14.0082 69.1744 14.6786 69.1859 15.4877C69.2091 16.6319 69.2322 17.7646 69.1859 18.9088C69.1282 20.3998 68.1226 21.3475 66.6201 21.4053C65.3256 21.4516 65.3487 21.4631 64.9789 22.7114C64.1351 25.52 62.3668 27.5195 59.6391 28.6175C59.1536 28.814 58.9803 29.0336 58.9456 29.5652C58.8878 30.4436 59.1999 31.0447 59.8124 31.6803C60.714 32.605 61.6964 33.2638 62.9678 33.5874C64.4125 33.9573 65.8226 34.4427 67.2327 34.9512C70.3071 36.0608 72.2141 38.2221 72.8845 41.4468C72.9076 41.5624 72.977 41.6549 73.0232 41.7589V55.0158C72.977 55.1199 72.9076 55.2123 72.8845 55.3279C72.1679 58.3099 70.3417 60.2169 67.3945 61.0491C67.1749 61.1069 66.9553 61.1762 66.7125 61.234C66.7125 64.0888 66.6779 66.909 66.7241 69.7291C66.7588 71.2779 66.2271 72.3874 64.7477 72.9769H47.6419C47.2027 72.5724 46.856 72.1332 47.1103 71.4975C47.3761 70.8502 47.9424 70.8271 48.5434 70.8387C53.5018 70.8387 58.4717 70.8387 63.4301 70.8387C63.6381 70.8387 63.8808 70.8849 64.0658 70.8156C64.2276 70.7578 64.4587 70.5613 64.4587 70.4226C64.4934 69.5326 64.4819 68.6427 64.4819 67.7758C64.3432 67.7296 64.3085 67.7065 64.2623 67.7065C58.2059 67.7065 52.1495 67.6949 46.0932 67.7065C45.8967 67.7065 45.6077 67.9607 45.5268 68.1572C45.0414 69.2899 44.6369 70.4573 44.163 71.5899C43.9549 72.0754 43.6429 72.5146 43.377 72.9769H1.87246V73ZM16.9325 70.8387C17.1058 70.8502 17.2214 70.8618 17.337 70.8618C25.416 70.8618 33.495 70.8618 41.5624 70.8733C42.0594 70.8733 42.1981 70.6306 42.3484 70.2608C43.77 66.5969 45.2148 62.933 46.6479 59.2807C47.1681 57.94 47.6997 56.5993 48.2545 55.2008C47.954 55.1892 47.746 55.1661 47.5379 55.1661C39.7016 55.1661 31.8653 55.1661 24.0175 55.1661C23.324 55.1661 22.9195 55.4204 22.6768 56.0676C20.8275 60.8179 18.9667 65.5567 17.1058 70.2954C17.0365 70.4688 16.9903 70.6422 16.9325 70.8502V70.8387ZM60.1592 42.7991C60.217 43.0996 60.2401 43.3308 60.3094 43.5504C60.6793 44.8564 60.3094 45.9313 59.4079 46.9484C58.1019 48.4278 56.8998 49.9881 55.6863 51.5369C55.4782 51.8027 55.3395 52.2073 55.3395 52.554C55.3164 56.6455 55.328 60.7255 55.328 64.817C55.328 65.0481 55.3511 65.2677 55.3626 65.4989H64.4819C64.4819 65.1637 64.4819 64.8748 64.4819 64.5974C64.4819 57.5124 64.4819 50.4389 64.4819 43.3539C64.4819 42.4061 64.8633 41.8976 65.5567 41.886C66.2849 41.8629 66.6894 42.3946 66.6894 43.377C66.6894 44.4172 66.6894 45.469 66.6894 46.5092C66.6894 47.1102 66.6894 47.7228 66.6894 48.3122H70.8503C70.8503 46.4052 70.9427 44.5559 70.8272 42.7066C70.6307 39.5629 68.5503 37.1935 64.8402 36.5925C64.32 38.0025 63.7999 39.4357 63.2683 40.8458C62.8869 41.8513 62.1818 42.4986 61.0838 42.6488C60.8064 42.6835 60.529 42.7413 60.1592 42.7991ZM45.3303 17.9148C45.3303 18.7932 45.3188 19.6716 45.3303 20.55C45.3881 23.7169 47.7113 26.5371 50.8319 26.9416C52.6812 27.1843 54.5651 27.1034 56.4375 27.1034C59.4773 27.1034 62.2512 25.023 62.8406 22.041C63.1758 20.342 62.9909 18.5505 63.1527 16.8053C63.3029 15.2334 62.8753 13.9851 61.7773 12.8409C60.5522 11.5695 60.8873 11.2459 58.8878 12.1012C55.5244 13.5344 52.1033 13.3726 48.7631 11.8007C48.4394 11.6504 47.7691 11.5811 47.6188 11.766C46.4977 13.1298 44.868 14.2625 45.2957 16.4239C45.3881 16.8977 45.3072 17.4178 45.3072 17.9148H45.3303ZM34.7201 52.9816C33.888 51.4675 32.7784 50.462 31.299 49.9419C29.5306 49.3178 27.7507 48.763 25.9592 48.2198C25.7627 48.162 25.416 48.2776 25.2657 48.4394C24.5723 49.1906 23.9366 49.9881 23.2547 50.751C22.2491 51.8721 20.8622 51.8605 19.8451 50.751C19.4983 50.3695 19.1631 49.9766 18.8048 49.5605C18.4581 49.965 18.1576 50.3118 17.8687 50.6469C16.7707 51.8952 15.349 51.8952 14.2626 50.6469C13.6269 49.9188 13.0143 49.156 12.3555 48.4394C12.2053 48.2776 11.8585 48.162 11.662 48.2313C9.87056 48.7745 8.07907 49.3178 6.32227 49.9535C4.23028 50.7163 2.86644 52.2188 2.39256 54.3801C2.1614 55.4088 2.21919 56.4953 2.18452 57.5701C2.14985 58.5295 2.18452 59.5003 2.18452 60.4481H6.35694C6.35694 59.928 6.35694 59.4541 6.35694 58.9802C6.35694 57.94 6.33382 56.8882 6.3685 55.848C6.39161 55.1661 6.84237 54.7384 7.43183 54.7269C8.0444 54.7038 8.50672 55.1545 8.56451 55.8596C8.59918 56.2641 8.56451 56.6686 8.56451 57.0732C8.56451 58.2058 8.56451 59.3385 8.56451 60.4481C8.72632 60.4827 8.79567 60.5059 8.86501 60.5059C11.9741 60.5059 15.0832 60.5174 18.2038 60.4943C18.4119 60.4943 18.7355 60.2285 18.828 60.0089C19.4521 58.4948 20.03 56.9691 20.631 55.455C21.336 53.652 22.2607 53.0279 24.2024 53.0163C26.6989 53.0163 29.1954 53.0163 31.6804 53.0163C32.6513 53.0163 33.6221 53.0163 34.7317 53.0163L34.7201 52.9816ZM43.0303 13.0258C43.6776 13.1067 43.6776 13.1067 44.0705 12.6213C44.6484 11.9047 45.2148 11.165 45.8158 10.46C46.8098 9.30416 48.1852 9.03832 49.5374 9.70868C52.6581 11.269 55.7672 11.269 58.8878 9.70868C60.2632 9.02677 61.6964 9.31571 62.6673 10.4946C63.2567 11.2112 63.8462 11.9163 64.401 12.6675C64.7246 13.1067 65.0829 13.1876 65.5567 12.9565C65.5567 11.5117 65.6261 10.0901 65.5452 8.66847C65.3371 4.95837 62.5632 2.21914 58.934 2.16135C55.7787 2.11511 52.6234 2.11511 49.4681 2.16135C46.2665 2.20758 43.562 4.40359 43.0765 7.57047C42.8107 9.32727 43.0303 11.1534 43.0303 13.0143V13.0258ZM7.35092 25.7742C8.03284 26.0054 8.36802 25.8436 8.65697 25.4391C9.16552 24.7456 9.7203 24.0983 10.252 23.4395C11.3269 22.1104 12.7138 21.833 14.2395 22.5842C17.2676 24.0752 20.3074 24.0752 23.3356 22.5842C24.8728 21.833 26.2366 22.0757 27.3346 23.4049C27.8894 24.0868 28.4442 24.7571 28.9758 25.4622C29.2763 25.8667 29.6115 25.9823 30.1085 25.7742C30.1085 24.3757 30.1201 22.9772 30.1085 21.5787C30.0623 17.9148 27.1728 14.9907 23.4974 14.956C20.3652 14.9213 17.233 14.9213 14.1008 14.956C11.0264 14.9907 8.32179 17.0364 7.73234 20.053C7.37404 21.9139 7.4665 23.8556 7.35092 25.7511V25.7742ZM2.21919 62.7134V66.8512C6.76147 66.8512 11.2344 66.8512 15.7189 66.8512C15.8922 66.8512 16.1465 66.724 16.2043 66.5853C16.7244 65.3255 17.2099 64.0542 17.73 62.725H2.21919V62.7134ZM45.6771 35.8528C45.7118 35.9683 45.7464 36.0608 45.7695 36.1533C46.0469 36.9045 46.4283 37.6442 46.5902 38.4186C46.9253 40.0714 47.7922 40.8342 49.5259 40.6724C50.3003 40.6031 50.7163 41.1694 50.6239 41.99C50.543 42.6951 50.4043 43.4001 50.254 44.082C50.15 44.5559 50.1962 44.9373 50.543 45.3187C51.3058 46.1971 52.0224 47.1218 52.7505 48.0117C52.843 48.1273 52.9586 48.2082 53.1435 48.3816C53.1435 46.1162 53.1435 43.9896 53.132 41.8513C53.132 41.6086 52.9586 41.3197 52.7852 41.1232C51.3983 39.5629 49.9882 38.0141 48.6012 36.4538C47.8076 35.5677 46.8329 35.3635 45.6771 35.8412V35.8528ZM55.328 48.2429C55.328 48.2429 55.432 48.2891 55.4782 48.3122C56.137 47.5032 56.7496 46.6594 57.4546 45.9082C58.125 45.1916 58.437 44.4634 58.0903 43.4926C57.9401 43.0765 57.9285 42.6142 57.836 42.1634C57.6627 41.2619 58.0903 40.7071 59.0265 40.6493C59.5466 40.6146 60.0783 40.6031 60.5868 40.4991C60.8295 40.4528 61.1416 40.2563 61.2225 40.0483C61.7773 38.6729 62.2743 37.2744 62.806 35.8412C62.3205 35.6794 61.8929 35.5407 61.4768 35.3789C61.1185 35.2402 60.8989 35.298 60.6215 35.5985C58.9803 37.4478 57.3159 39.2739 55.6747 41.1116C55.5129 41.2966 55.3395 41.5508 55.3395 41.7704C55.3164 43.9318 55.328 46.0815 55.328 48.2429ZM70.9427 50.5429H66.7588V58.9224C68.6312 58.6104 70.4111 56.946 70.7 55.0274C70.9196 53.5711 70.8734 52.0686 70.9427 50.5429ZM2.1614 69.0241C2.1614 69.4517 2.17296 69.7985 2.1614 70.1568C2.13829 70.6769 2.36945 70.8733 2.88956 70.8618C6.61121 70.8618 10.3444 70.8618 14.0661 70.8502C14.251 70.8502 14.54 70.7809 14.5978 70.6537C14.852 70.1452 15.037 69.602 15.2566 69.0241H2.1614ZM54.3571 33.2407C54.8425 32.7668 55.4204 32.0964 56.1023 31.5648C56.9114 30.9175 56.8305 30.1316 56.7149 29.2878H51.6063C51.6641 29.8657 51.537 30.5592 51.8144 30.8944C52.5656 31.7612 53.5018 32.4778 54.3571 33.2407ZM18.8164 46.1047C19.429 45.5383 20.0647 44.868 20.7697 44.2785C21.521 43.6659 21.4401 42.9147 21.3129 42.0709C19.741 42.0709 18.2038 42.0709 16.6551 42.0709C16.5395 42.0709 16.4239 42.0941 16.1812 42.1172C16.2737 42.7182 16.1696 43.4348 16.4701 43.8162C17.1521 44.6715 18.042 45.3765 18.8048 46.0931L18.8164 46.1047ZM37.6674 50.5429V52.9239H41.7589V50.5429H37.6674ZM7.67455 32.004V28.0743C7.31625 28.0743 7.01574 28.0974 6.70368 28.0743C6.19513 28.028 5.96397 28.2245 5.98708 28.7562C6.02176 29.3688 5.98708 29.9813 5.98708 30.5939C5.98708 31.6726 6.51875 32.1619 7.58208 32.0618C7.58208 32.0618 7.61676 32.0386 7.66299 32.004H7.67455ZM65.3256 19.2556C65.6839 19.2556 65.9728 19.2324 66.2502 19.2556C66.8397 19.3133 67.0708 19.0822 67.0362 18.4812C67.0015 17.8917 67.0362 17.2907 67.0362 16.7012C67.0015 15.1872 67.406 15.1872 65.4643 15.2565C65.4296 15.2565 65.3949 15.3027 65.3371 15.349V19.244L65.3256 19.2556ZM29.9352 32.0849C30.2241 32.0849 30.4784 32.0618 30.7327 32.0849C31.4146 32.1773 31.6804 31.8884 31.6457 31.2065C31.6111 30.6401 31.6457 30.0738 31.6457 29.5075C31.6457 27.9356 31.6226 27.9125 30.0507 28.0974C30.0276 28.0974 30.0161 28.1205 29.9583 28.1783V32.0733L29.9352 32.0849ZM43.0881 15.2796C42.8338 15.2681 42.6027 15.2449 42.3715 15.2449C41.4353 15.2449 41.4006 15.2681 41.4006 16.1811C41.4006 16.7244 41.4006 17.2676 41.4006 17.8108C41.4006 19.3827 41.4238 19.3942 42.9956 19.2209C43.0187 19.2209 43.0303 19.1978 43.0881 19.14V15.2681V15.2796ZM23.6245 46.9599C23.1969 46.5207 22.8155 46.1162 22.5843 45.8851C21.833 46.5439 21.0702 47.2027 20.2496 47.9077C20.7119 48.4278 21.1164 48.8901 21.5441 49.3756C22.2953 48.4972 22.9888 47.6881 23.613 46.9484L23.6245 46.9599ZM50.4274 32.9864C50.1731 33.2638 49.7917 33.6799 49.3987 34.1075C50.0807 34.8703 50.7972 35.6563 51.537 36.4884C51.9415 36.003 52.3229 35.5638 52.7621 35.0553C51.953 34.3502 51.1902 33.6683 50.4274 32.9864ZM13.8927 46.879C14.644 47.7575 15.3259 48.5549 16.0541 49.3987C16.4933 48.8786 16.8978 48.4163 17.3023 47.9424C16.5048 47.2142 15.7536 46.5207 14.9676 45.8042C14.6787 46.0931 14.3204 46.4514 13.9043 46.8675L13.8927 46.879ZM56.8883 36.4884C57.6511 35.6447 58.3561 34.8588 59.0149 34.1306C58.622 33.6914 58.2521 33.2985 58.0441 33.0673C57.2813 33.7723 56.53 34.4658 55.7672 35.1708C56.1139 35.5754 56.4606 35.9799 56.8998 36.4884H56.8883ZM53.0048 38.1181C53.4209 38.5804 53.7908 38.9965 54.2068 39.4588C54.6345 38.985 55.0159 38.5689 55.4204 38.1181C54.9928 37.6327 54.6114 37.1935 54.2068 36.7196C53.7792 37.205 53.4209 37.6327 53.0048 38.1066V38.1181Z" fill="#353535"/>
<path d="M33.2521 59.142C34.7778 59.142 36.1185 59.4541 37.2512 60.3787C38.8346 61.6617 38.8462 63.5687 37.309 64.8979C35.3441 66.5969 31.3451 66.62 29.3687 64.921C27.7968 63.5803 27.8083 61.6501 29.4265 60.3556C30.5707 59.4425 31.9114 59.1305 33.2521 59.142ZM33.3215 61.0953C32.4431 61.419 31.5762 61.6501 30.8134 62.0546C30.2008 62.3783 30.2586 62.8521 30.8134 63.2913C31.9923 64.2506 34.616 64.2622 35.8296 63.326C36.4075 62.8753 36.4537 62.3667 35.818 62.0315C35.0667 61.6385 34.223 61.419 33.333 61.0953H33.3215Z" fill="#FFDC22"/>
</g>
<defs>
<clipPath id="clip0_283_51">
<rect width="73" height="73" fill="white"/>
</clipPath>
</defs>
</svg>
