<svg width="58" height="51" viewBox="0 0 58 51" fill="none" xmlns="http://www.w3.org/2000/svg">
<path d="M0 11.1233C0.0726153 10.9772 0.154308 10.8342 0.21482 10.6819C0.704974 9.47165 1.79118 8.70888 3.07405 8.70734C12.5867 8.70426 22.0993 8.70273 31.6119 8.70734C33.3864 8.70734 34.7086 10.0714 34.7404 11.943C34.7646 13.4209 34.7449 14.8988 34.7464 16.3751C34.7464 16.5596 34.7464 16.7457 34.7464 17.0548C34.9961 16.8165 35.1564 16.6704 35.3092 16.515C40.2213 11.5216 45.1304 6.52666 50.0456 1.53631C51.6053 -0.047688 53.6582 -0.43369 55.4781 0.496714C58.2889 1.93307 58.8684 5.65777 56.6127 7.97378C53.398 11.2725 50.159 14.5466 46.9246 17.8268C46.7809 17.9729 46.5903 18.0714 46.4224 18.1929L46.5222 18.3835C47.0381 18.3835 47.554 18.3835 48.0698 18.3835C48.9004 18.3835 49.7309 18.382 50.5615 18.3835C52.5629 18.3897 53.8866 19.7307 53.8897 21.7807C53.8957 26.3281 53.8912 30.8771 53.8912 35.4246C53.8912 37.4391 53.8942 39.4537 53.8912 41.4699C53.8882 43.6244 52.5826 44.9562 50.4752 44.9608C49.5706 44.9623 48.6659 44.9608 47.678 44.9608C47.678 45.193 47.678 45.396 47.678 45.5975C47.678 47.0169 47.6826 48.4379 47.6765 49.8574C47.672 50.8939 46.9821 51.2906 46.0881 50.7678C42.9535 48.9316 39.825 47.0815 36.6828 45.2607C36.3742 45.0823 35.9809 44.9747 35.6254 44.9731C31.2851 44.9531 26.9433 44.9239 22.603 44.9762C20.4911 45.0008 19.0252 43.4214 19.1236 41.4222C19.2128 39.6045 19.1432 37.7775 19.1432 35.9536C19.1432 35.7475 19.1432 35.5414 19.1432 35.3077C18.3384 35.2462 17.6455 35.2569 16.9375 35.686C13.9573 37.4853 10.9422 39.2246 7.93928 40.9855C6.81828 41.6437 6.19651 41.273 6.195 39.9459C6.19348 38.6218 6.195 37.2977 6.195 35.9736C6.195 35.766 6.195 35.5599 6.195 35.2754C5.21923 35.2754 4.30095 35.2754 3.38266 35.2754C2.35546 35.2754 1.42508 34.994 0.767 34.1543C0.444769 33.7452 0.251128 33.2362 0 32.7717C0 25.5561 0 18.3389 0 11.1233ZM32.8569 30.0559C32.6724 30.1128 32.5302 30.1497 32.394 30.2004C30.8207 30.7818 29.2489 31.3631 27.677 31.9475C27.2353 32.112 26.7981 32.2135 26.4169 31.8167C26.0371 31.42 26.143 30.9863 26.3261 30.5388C27.3941 27.9244 28.4486 25.3054 29.5257 22.6957C29.6528 22.3881 29.851 22.0898 30.0794 21.8483C30.9039 20.9779 31.7617 20.1398 32.5877 19.2724C32.7283 19.1233 32.8584 18.8864 32.86 18.6896C32.8766 16.4074 32.8781 14.1237 32.8615 11.8415C32.8569 11.1525 32.4439 10.6973 31.7753 10.5789C31.5725 10.5435 31.3623 10.5512 31.155 10.5512C21.9661 10.5512 12.7758 10.5512 3.5869 10.5512C3.45528 10.5512 3.32215 10.5466 3.19054 10.5528C2.34184 10.5958 1.81387 11.1141 1.81387 11.9799C1.80631 18.6373 1.80631 25.2947 1.81387 31.9505C1.81387 32.8656 2.32369 33.3607 3.22836 33.37C4.34179 33.3807 5.45523 33.3731 6.56866 33.3731C7.78648 33.3731 8.03156 33.6191 8.03156 34.8448C8.03156 36.1212 8.03156 37.3961 8.03156 38.7509C8.27512 38.6156 8.43851 38.528 8.59584 38.4357C11.2554 36.8763 13.9089 35.3031 16.5835 33.7698C16.9875 33.5376 17.4988 33.3915 17.9617 33.3884C22.3398 33.3607 26.7164 33.3715 31.0945 33.3715C31.3214 33.3715 31.5483 33.3777 31.7738 33.3546C32.3441 33.2977 32.8191 32.8548 32.8479 32.2812C32.8842 31.5568 32.8569 30.831 32.8569 30.0574V30.0559ZM40.1517 24.7149C40.5178 24.7149 40.707 24.7149 40.8945 24.7149C42.6116 24.7149 44.3286 24.7149 46.0457 24.7149C46.1592 24.7149 46.2726 24.7149 46.3861 24.7149C47.085 24.7195 47.5222 25.064 47.5388 25.6207C47.5555 26.2005 47.1183 26.565 46.374 26.5665C44.2046 26.5711 42.0307 26.6342 39.8643 26.5403C38.7524 26.4927 37.9355 26.7833 37.2305 27.6599C36.763 28.2412 36.2744 28.8887 35.4771 29.0409C34.8418 29.1624 34.6799 29.5207 34.7359 30.1251C34.7843 30.6387 34.7464 31.1601 34.7449 31.6783C34.7419 33.9774 33.4696 35.2677 31.1943 35.2708C28.0235 35.2738 24.8541 35.2708 21.6832 35.2708C21.4624 35.2708 21.24 35.2708 20.9556 35.2708C20.9556 35.5337 20.9556 35.7398 20.9556 35.9459C20.9556 37.7298 20.9556 39.5137 20.9556 41.2992C20.9556 42.654 21.3474 43.06 22.6651 43.06C27.0432 43.06 31.4213 43.0462 35.7979 43.0785C36.3152 43.0816 36.8856 43.2399 37.3364 43.4968C40.0141 45.0239 42.663 46.6017 45.3226 48.1611C45.4738 48.2503 45.6342 48.3241 45.8475 48.4348C45.8475 46.9908 45.8445 45.6482 45.8475 44.3057C45.8505 43.3691 46.1425 43.0677 47.0653 43.0616C48.2166 43.0539 49.3678 43.0646 50.5191 43.0569C51.5947 43.0493 52.0168 42.6187 52.0183 41.5114C52.0213 34.9494 52.0213 28.3888 52.0183 21.8268C52.0183 20.6796 51.5796 20.2474 50.4238 20.2428C49.1969 20.2367 47.9579 20.3535 46.7476 20.2136C45.1577 20.0306 43.9928 20.5319 42.9868 21.7914C42.1744 22.808 41.1759 23.6676 40.1487 24.7103L40.1517 24.7149ZM32.9855 23.9444C39.0792 17.7499 45.1425 11.5847 51.1575 5.46861C50.8005 5.09184 50.4011 4.67046 50.1046 4.35828C44.0457 10.5205 37.9824 16.6857 31.9114 22.8602C32.2382 23.1909 32.6255 23.583 32.984 23.946L32.9855 23.9444ZM35.5498 26.5111C41.6146 20.3459 47.6886 14.1714 53.693 8.06913C53.3768 7.70004 53.0077 7.26944 52.7036 6.91574C46.616 13.1072 40.5526 19.2709 34.4878 25.4392C34.8402 25.7945 35.2381 26.1974 35.5498 26.5111ZM55.2527 6.72043C56.0515 5.93304 56.3783 4.96419 56.0348 3.83233C55.7141 2.77428 54.9728 2.10993 53.9018 1.93C52.9199 1.76545 52.0501 2.05149 51.4162 2.81888C52.7081 4.13221 53.9698 5.41632 55.2512 6.72043H55.2527ZM30.795 24.4473C30.1051 26.1482 29.4349 27.7999 28.7179 29.5669C30.5196 28.8948 32.2079 28.2658 33.9144 27.6307C32.8479 26.5434 31.8524 25.5269 30.795 24.4489V24.4473Z" fill="#353535"/>
</svg>
