<svg width="87" height="66" viewBox="0 0 87 66" fill="none" xmlns="http://www.w3.org/2000/svg">
<g clip-path="url(#clip0_283_94)">
<path d="M5.53567 66C30.8416 66 56.1584 66 81.4643 66C83.6281 66 84.3969 65.2134 84.3969 63.0086V40.5063L84.5068 40.4841C86.6485 39.9523 86.989 39.5091 86.989 37.3154V36.5731C86.989 36.0191 86.989 35.4652 86.989 34.9112C86.989 33.482 86.2092 32.6288 84.8033 32.507C84.6166 32.4848 84.4299 32.4737 84.2322 32.4626L83.8038 32.4294V30.8007C83.8038 29.715 83.8038 28.6513 83.8038 27.5877C83.7819 25.4494 82.9471 24.3193 80.9262 23.6878C79.8827 23.3554 78.8283 23.0452 77.7849 22.7239L76.3241 22.2807V22.192C76.1923 20.8182 76.2252 20.7074 76.8293 19.7324L76.9941 19.4665C77.4444 18.7242 77.719 17.9375 77.7739 17.2395C77.8947 15.622 77.8508 13.9822 77.7849 12.4422C77.6421 9.09619 74.9951 6.559 71.4804 6.40389C71.3925 6.40389 71.2937 6.40389 71.2058 6.40389C68.0535 6.40389 65.3296 8.7638 64.9452 11.8882C64.8464 12.7192 64.8354 13.5723 64.8354 14.4032C64.8354 14.8907 64.8354 15.4004 64.8024 15.8989C64.7146 17.7049 65.1209 18.9901 66.1204 20.087C66.4499 20.4526 66.5598 20.9511 66.428 21.4608C66.2742 22.0259 65.8568 22.469 65.3296 22.6241C64.7475 22.8014 64.1764 22.9676 63.5942 23.1449C62.9572 23.3332 62.3092 23.5326 61.6721 23.721C60.4859 24.0755 59.783 24.6074 59.4315 25.3829C59.113 26.092 58.9153 26.9119 58.8714 27.7096C58.8055 28.7843 58.8274 29.8922 58.8384 30.9558C58.8384 31.4101 58.8384 31.8644 58.8384 32.3186V32.4516H55.9717V30.8007C55.9717 29.6042 55.9717 28.4408 55.9717 27.2664C55.9717 26.4244 55.6862 25.6488 55.0711 24.8289C54.8514 24.5409 54.6208 24.0755 54.6098 23.6324C54.5878 22.2031 54.5878 20.7517 54.5988 19.3557C54.5988 18.1148 54.5988 16.8739 54.5988 15.6441C54.5988 15.1677 54.5988 14.6913 54.5988 14.2038C54.5988 12.6416 54.5988 11.0351 54.4231 9.47289C54.1045 6.63656 52.49 3.9775 50.0077 2.17156C47.4595 0.321299 44.3402 -0.398863 41.4736 0.221584C35.9708 1.396 32.4122 5.81668 32.4122 11.4893C32.4122 12.9186 32.4122 14.3589 32.4122 15.7881C32.4122 18.3918 32.4122 21.0065 32.4012 23.6102C32.4012 23.9315 32.3133 24.3968 32.0607 24.696C31.3468 25.5269 31.0173 26.4465 31.0393 27.4991C31.0612 28.6181 31.0612 29.7593 31.0503 30.8672C31.0503 31.3436 31.0503 31.8311 31.0503 32.3075V32.4405H28.3154L28.2824 32.3519C28.2824 32.3519 28.2605 32.2854 28.2495 32.2632C28.2275 32.2078 28.2055 32.1524 28.2055 32.097C28.2055 31.4544 28.2055 30.8007 28.2055 30.1581C28.2055 29.3161 28.2055 28.4741 28.1945 27.6209C28.1836 25.5491 27.261 24.2971 25.3059 23.6878C24.7677 23.5216 24.2295 23.3554 23.6803 23.1892C22.9225 22.9565 22.1536 22.7239 21.3958 22.4912C21.1871 22.4247 20.6928 22.2364 20.6928 21.9926C20.6928 21.771 20.6819 21.5384 20.6709 21.3168C20.6269 20.652 20.572 19.9651 21.0773 19.2782C21.4507 18.7685 22.0987 17.7824 22.1536 16.8407C22.2964 14.4365 22.2415 11.9879 22.1976 9.60584V9.46181C22.1427 6.75843 20.4402 4.57579 17.9799 4.02182C16.9804 3.78915 15.8272 3.73375 14.4652 3.83347C11.313 4.07722 9.24808 6.30418 9.19316 9.52828C9.14923 11.866 9.12726 14.37 9.21513 16.8296C9.24808 17.583 9.53365 18.3918 9.94004 18.8461C10.654 19.6549 10.7858 20.508 10.7638 21.5273C10.7638 22.0702 10.5551 22.3361 10.0389 22.4801C8.70989 22.8679 7.16122 23.3221 5.65649 23.8318C4.10782 24.3636 3.28406 25.4605 3.22914 27.1002C3.19619 27.8869 3.20718 28.6846 3.20718 29.4712C3.20718 29.8036 3.20718 30.1249 3.20718 30.4573C3.20718 30.8783 3.20718 31.3104 3.20718 31.7536V32.518L3.05341 32.507C1.59261 32.3519 0.626063 32.8504 0.0219727 34.0581V38.8111C0.560162 39.8526 1.35097 40.3844 2.37243 40.3955H2.4603L2.49325 40.4841C2.50423 40.5285 2.5262 40.5617 2.53719 40.5839C2.55915 40.6392 2.5921 40.6946 2.5921 40.7611C2.5921 42.0242 2.60309 43.2872 2.61407 44.5392C2.61407 44.8827 2.61407 45.215 2.61407 45.5585C2.61407 46.2343 2.61407 46.9434 2.62505 47.6303C2.64702 48.3838 3.10833 48.9377 3.75635 48.9599C3.77832 48.9599 3.7893 48.9599 3.81127 48.9599C4.43732 48.9599 4.93158 48.4059 4.97551 47.6303C4.9865 47.3977 4.9865 47.1429 4.97551 46.9102C4.97551 46.8105 4.97551 46.7108 4.97551 46.611V40.3844H13.4767C27.865 40.3844 42.2534 40.3844 56.6527 40.3844C57.0042 40.3844 57.4215 40.3733 57.795 40.2736C58.476 40.0964 58.5968 39.5424 58.5748 39.1214C58.5528 38.5674 58.2563 38.2018 57.7291 38.091C57.3776 38.0134 56.9932 38.0134 56.6637 38.0134C38.9693 38.0134 21.264 38.0134 3.56963 38.0134H2.36145V34.9555H84.6605V38.0134H64.0885C63.3306 38.0134 62.8034 38.1685 62.5179 38.4677C62.3311 38.656 62.2433 38.9109 62.2433 39.2211C62.2543 40.0188 62.8693 40.4066 64.1215 40.4066H81.9696V63.5625H79.6411V58.9978C79.6411 55.951 79.6411 52.9152 79.6411 49.8684C79.6411 48.3505 79.2786 47.863 77.8837 47.4752C76.8293 47.1872 76.1813 46.5335 75.9067 45.492C75.5333 44.0739 75.028 43.6972 73.5453 43.6972C53.5224 43.6972 33.4886 43.6972 13.4657 43.6972C12.0049 43.6972 11.4997 44.0849 11.1153 45.5142C10.8407 46.5335 10.2146 47.1761 9.20415 47.4642C7.72138 47.8963 7.38089 48.3505 7.38089 49.9016C7.38089 52.8266 7.38089 55.7626 7.38089 58.6876V63.5736H4.97551V60.6376C4.97551 58.5768 4.97551 56.516 4.97551 54.4553C4.97551 54.2004 4.96453 53.8681 4.88765 53.5468C4.75584 52.9817 4.37142 52.6715 3.7893 52.6715C3.21816 52.6715 2.83374 52.9817 2.69095 53.5468C2.61407 53.8459 2.61407 54.1672 2.61407 54.4442C2.61407 57.1143 2.61407 59.7955 2.61407 62.4657V63.0418C2.61407 65.2355 3.38291 66.0222 5.55764 66.0222L5.53567 66ZM12.3125 7.24593C12.8507 6.62548 13.6085 6.24878 14.3774 6.20446C15.1242 6.16014 15.8601 6.17122 16.6839 6.19338C18.3863 6.2377 19.7153 7.54507 19.7922 9.2513C19.8142 9.81635 19.8142 10.3814 19.8032 10.9686C19.8032 11.2345 19.8032 11.5115 19.8032 11.7885V11.8993L19.7043 11.9214C19.4407 11.9879 19.1881 12.0211 18.9575 12.0211C18.1447 12.0211 17.4527 11.6777 16.7168 11.2567C15.5746 10.603 14.4103 10.0269 13.257 9.53936C12.8177 9.36209 12.2466 9.43965 11.7084 9.39533H11.5876V9.26238C11.5436 8.56437 11.8072 7.82205 12.3234 7.24593H12.3125ZM11.4777 12.0101L11.5766 11.9768C12.8287 11.5558 13.7733 12.0544 14.4652 12.5308L14.5641 12.5973C15.7393 13.4061 16.9475 14.2481 18.4412 14.37C18.6829 14.3921 18.9245 14.4032 19.1552 14.4254L19.7043 14.4697L19.7263 14.5805C19.9899 16.0873 19.6055 17.5609 18.6719 18.6134C17.8921 19.4887 16.7827 19.9651 15.6075 19.9651C15.4977 19.9651 15.3769 19.9651 15.267 19.954C13.4328 19.81 11.4887 17.716 11.4887 15.8768V12.0101H11.4777ZM17.6614 24.1199C17.2001 24.5187 16.7937 24.973 16.3544 25.4715C16.1567 25.6931 15.959 25.9147 15.7503 26.1474L15.6514 26.2582L15.5526 26.1474C15.3219 25.8926 15.0803 25.6488 14.8496 25.4051C14.2456 24.7735 13.6854 24.1863 13.1802 23.5216C12.9825 23.2667 12.9825 22.89 12.9934 22.5355C12.9934 22.3804 12.9934 22.2474 12.9825 22.1145L12.9605 21.9372L13.1362 21.9705C13.4108 22.0148 13.6854 22.0702 13.949 22.1145C14.5201 22.2253 15.0583 22.325 15.5965 22.3361C16.1457 22.3361 16.6839 22.2474 17.255 22.1477C17.5186 22.1034 17.7822 22.0591 18.0568 22.0148H18.1667L18.1996 22.1145C18.3753 22.6906 18.4742 23.4329 17.6614 24.1309V24.1199ZM25.7782 32.4405H5.5137V32.3075C5.5137 31.8422 5.5137 31.3879 5.5137 30.9337C5.5137 29.6263 5.49174 28.3854 5.55764 27.1224C5.5796 26.7124 6.06288 26.1806 6.4473 26.0477C7.87515 25.5159 9.33595 25.117 10.4343 24.8289C10.7528 24.7514 11.2141 24.9287 11.4228 25.1502C11.95 25.6821 12.4662 26.236 12.9605 26.7789C13.3229 27.1778 13.6964 27.5766 14.0588 27.9644C14.5641 28.4962 15.1023 28.7621 15.6624 28.7621C16.2226 28.7621 16.7608 28.4851 17.277 27.9533C18.0898 27.1002 18.9575 26.1917 19.7702 25.25C20.1107 24.8622 20.4622 24.6517 21.0883 24.8622C22.1756 25.2389 23.3069 25.5602 24.3943 25.8815L24.7348 25.9812C25.4487 26.1917 25.7892 26.6016 25.7892 27.2553V32.4626L25.7782 32.4405ZM34.8176 10.459C34.9823 6.31526 38.4641 2.71445 42.5829 2.41531C47.1081 2.07184 50.9742 4.81954 51.9737 9.07403C52.1385 9.77203 52.2264 10.3925 52.2264 10.9686C52.2373 14.0154 52.2373 17.0069 52.2373 20.1645V23.3886L51.2708 23.1006C50.469 22.8679 49.7112 22.6463 48.9643 22.4025C48.7995 22.3472 48.47 22.1256 48.481 21.904C48.481 21.7156 48.481 21.5162 48.47 21.3278C48.4261 20.6742 48.3931 19.9983 49.0412 19.4111C49.7331 18.7907 50.0516 17.9375 50.0187 16.8075C49.9857 15.6663 49.9967 14.514 49.9967 13.395C49.9967 12.7302 49.9967 12.0655 49.9967 11.4007C49.9967 10.5254 49.6343 9.81635 49.0302 9.46181C48.4151 9.09619 47.6133 9.12942 46.8445 9.56152C46.6138 9.69447 46.3832 9.82743 46.1415 9.96038L46.0317 10.0269C44.7247 10.7913 43.6153 10.6916 42.5389 9.73879C40.6498 8.05472 38.7497 9.10727 37.4866 10.2928C37.179 10.5808 37.0362 11.1902 37.0143 11.6666C36.9813 12.6527 36.9813 13.6498 36.9923 14.6248C36.9923 15.4336 36.9923 16.2646 36.9923 17.0844C36.9703 18.0262 37.3218 18.8461 38.0797 19.5773C38.6508 20.1313 38.5959 20.7517 38.541 21.35C38.519 21.5827 38.497 21.8043 38.519 22.0148C38.541 22.2474 38.1346 22.4136 38.0577 22.4469C37.3108 22.6795 36.553 22.9011 35.8061 23.1227L34.9933 23.3665L34.9384 23.2889C34.9384 23.2889 34.8945 23.2335 34.8725 23.2113C34.8286 23.156 34.7846 23.1006 34.7846 23.023C34.7846 21.7821 34.7846 20.5412 34.7736 19.3003C34.7517 16.4086 34.7407 13.4172 34.8615 10.4811L34.8176 10.459ZM43.4725 19.9872C42.7257 19.9872 41.9458 19.7435 41.1331 19.1452C41.0122 19.0566 40.8804 18.9569 40.7596 18.8571C40.6168 18.7463 40.4631 18.6245 40.3203 18.5248C39.5405 17.9597 39.211 17.2506 39.2659 16.2867C39.3208 15.4668 39.3098 14.6137 39.2988 13.8049C39.2988 13.3174 39.2878 12.8299 39.2988 12.3535C39.2988 11.9104 39.5734 11.5004 39.9798 11.3231C40.3203 11.168 40.6827 11.2234 40.9354 11.4672C42.8904 13.2399 44.9773 13.3728 47.4925 11.8882L47.7012 11.7663V13.2177C47.7012 14.5694 47.7012 15.8214 47.7012 17.0844C47.7012 17.2617 47.6572 17.4944 47.5145 17.6495C46.504 18.8461 45.0981 20.0094 43.4835 20.0094L43.4725 19.9872ZM45.5924 23.998C45.1201 24.4301 44.6917 24.9065 44.2414 25.4161C44.0327 25.6488 43.813 25.8926 43.5934 26.1474L43.4945 26.2582L43.3957 26.1474C43.165 25.8926 42.9234 25.6488 42.6927 25.394C42.0667 24.7292 41.4736 24.1088 40.9354 23.4108C40.7596 23.1892 40.8036 22.8346 40.8365 22.4579C40.8585 22.2918 40.8695 22.1256 40.8695 21.9594V21.7599L41.0562 21.8375C42.7367 22.4912 44.2524 22.5023 45.801 21.8597L45.9328 21.8043L45.9768 21.9372C46.2074 22.602 46.3173 23.3111 45.5814 23.9869L45.5924 23.998ZM53.6652 30.8118C53.6652 31.2993 53.6652 31.7979 53.6652 32.2965V32.4294H33.3238V32.2965C33.3238 31.8311 33.3238 31.3769 33.3238 30.9115C33.3128 29.6263 33.3019 28.4187 33.3787 27.1889C33.4007 26.7457 33.9499 26.1806 34.3892 26.0144C35.6963 25.5048 37.0582 25.1392 38.2115 24.84C38.53 24.7625 39.0242 24.9065 39.2769 25.1613C39.87 25.7485 40.4411 26.369 40.9903 26.9673C41.2209 27.2221 41.4516 27.4658 41.6822 27.7207C42.3303 28.4076 42.9234 28.751 43.5165 28.751C44.0986 28.751 44.6917 28.4187 45.3178 27.7539L45.823 27.211C46.4271 26.5684 47.0422 25.9147 47.6353 25.2389C48.0307 24.7846 48.4151 24.6738 48.9643 24.8622C50.0297 25.2278 51.128 25.5491 52.1824 25.8482L52.6108 25.9701C53.3027 26.1695 53.6762 26.6127 53.6872 27.2442C53.7091 28.4187 53.6981 29.582 53.6981 30.8118H53.6652ZM67.1639 15.356C67.1639 15.1234 67.1639 14.9018 67.1639 14.6691V14.5362C67.1639 14.37 67.1639 14.1927 67.1639 14.0265C67.1639 13.5612 67.1639 13.0848 67.1639 12.6084C67.2517 10.3703 69.0091 8.75272 71.3376 8.75272H71.3596C73.6112 8.7638 75.4125 10.47 75.4784 12.6305C75.5223 14.3035 75.5223 15.6774 75.4674 16.9293C75.4454 17.4057 75.2257 17.9486 74.9072 18.3143C74.0175 19.3446 72.7105 19.9318 71.3156 19.9318C69.9207 19.9318 68.6027 19.3446 67.7021 18.3032C67.4275 17.9819 67.2298 17.4944 67.1749 17.0069C67.1199 16.464 67.1309 15.8989 67.1419 15.356H67.1639ZM72.6336 24.8622C72.2163 25.25 71.7769 25.6488 71.5243 26.1695L71.4364 26.3468L71.3046 26.2028C71.052 25.9258 70.7994 25.671 70.5578 25.4051C69.9317 24.7514 69.3386 24.1309 68.8224 23.4551C68.6466 23.2335 68.6906 22.879 68.7235 22.5023C68.7455 22.3361 68.7565 22.1588 68.7565 22.0037V21.8043L68.9432 21.8707C70.5797 22.4912 72.1504 22.4801 73.7649 21.8597L73.9187 21.8043L73.9517 21.9705C74.2262 23.4108 73.4244 24.1531 72.6556 24.8733L72.6336 24.8622ZM81.4863 30.9115C81.4863 31.3769 81.4863 31.8422 81.4863 32.3186V32.4516H61.2438V32.3186C61.2438 31.8754 61.2438 31.4212 61.2438 30.978C61.2438 29.6485 61.2438 28.2636 61.2767 26.9119C61.2877 26.5573 61.76 26.1474 62.0785 26.0366C63.3746 25.5823 64.7475 25.1724 66.1534 24.7957C66.4499 24.7181 66.9003 24.9176 67.1309 25.1502C67.735 25.7596 68.3281 26.4022 68.8993 27.0227C69.1299 27.2775 69.3606 27.5212 69.5912 27.7761C70.1953 28.4187 70.7555 28.74 71.3266 28.74C71.8978 28.74 72.4799 28.4297 73.0949 27.7761C73.3915 27.4548 73.688 27.1335 73.9846 26.8122C74.4898 26.2582 75.0171 25.6821 75.5552 25.1502C75.7859 24.9287 76.2692 24.7292 76.6206 24.8179C77.708 25.0948 79.1358 25.4937 80.5307 26.0144C80.9261 26.1585 81.4204 26.7235 81.4424 27.1556C81.5083 28.3854 81.4973 29.6152 81.4863 30.9005V30.9115ZM28.3373 63.5515H22.2745V54.8984H28.3373V63.5515ZM46.5259 63.5071H40.485V54.8763H46.5259V63.5071ZM64.7255 63.5404H58.6407V54.8763H64.7255V63.5404ZM10.4892 49.4252C11.7194 48.9488 12.609 48.0624 13.0484 46.8659C13.312 46.1679 13.7183 46.0238 14.3664 46.0238C22.615 46.0349 30.8525 46.0349 39.1011 46.0349H44.527H49.9638C57.3666 46.0349 65.0221 46.0349 72.5567 46.0238H72.5677C73.2158 46.0238 73.6551 46.1679 73.9407 46.9102C74.38 48.0403 75.2477 48.8934 76.5987 49.5138C76.8513 49.6357 77.2028 49.9681 77.2137 50.2562C77.2357 53.8681 77.2357 57.5464 77.2357 61.114V63.5071H67.0431V60.2276C67.0431 58.4438 67.0431 56.6711 67.0431 54.8874C67.0431 53.3252 66.2413 52.4942 64.7475 52.461C62.8034 52.4166 60.7385 52.4166 58.6187 52.461C57.103 52.4942 56.2573 53.3695 56.2463 54.9428C56.2463 56.6933 56.2463 58.4438 56.2463 60.1944V63.5293H48.9533L48.9313 63.0972C48.9203 62.8756 48.9094 62.6651 48.9094 62.4546C48.9094 61.535 48.9094 60.6043 48.9094 59.6847C48.9094 58.1669 48.9094 56.6601 48.9094 55.1422C48.9094 53.2587 48.0966 52.461 46.2294 52.4499C44.0657 52.4388 42.3083 52.4388 40.6937 52.4499C38.8595 52.461 38.0797 53.2587 38.0687 55.12C38.0687 56.793 38.0687 58.466 38.0687 60.139V63.5182H30.7317V60.2498C30.7317 58.4882 30.7317 56.7265 30.7317 54.9649C30.7317 53.3473 29.886 52.4831 28.3044 52.461C26.3823 52.4277 24.3723 52.4277 22.3404 52.461C20.7258 52.4831 19.935 53.303 19.924 54.9538C19.924 56.7265 19.924 58.4992 19.924 60.2609V63.5293H9.77528L9.75332 63.1415C9.75332 62.9532 9.73135 62.7648 9.73135 62.5765V59.1418C9.73135 56.3055 9.73135 53.4692 9.72037 50.6329C9.72037 50.0457 9.84119 49.68 10.4892 49.4252Z" fill="#353535"/>
</g>
<defs>
<clipPath id="clip0_283_94">
<rect width="87" height="66" fill="white"/>
</clipPath>
</defs>
</svg>
