<svg width="75" height="75" viewBox="0 0 75 75" fill="none" xmlns="http://www.w3.org/2000/svg">
<g clip-path="url(#clip0_283_41)">
<path d="M0 37.4951C0.968563 36.4128 1.90973 35.3031 2.92134 34.2619C3.34986 33.8196 3.91338 33.8998 4.36734 34.3284C4.79781 34.7355 4.82912 35.3736 4.37908 35.8355C3.7001 36.5322 2.96439 37.1741 2.25607 37.8376C4.30081 39.828 6.23206 41.7089 8.06549 43.4957C12.4485 39.1998 16.9704 34.7669 21.4962 30.33C19.5102 28.3885 17.5809 26.4998 15.5224 24.4879C15.3561 24.6954 15.1252 25.0437 14.8356 25.3353C12.5209 27.68 10.1944 30.0129 7.86982 32.3498C7.69763 32.522 7.53522 32.7099 7.33955 32.8528C6.83864 33.2227 6.32403 33.209 5.88769 32.7588C5.45134 32.3106 5.4533 31.8018 5.8329 31.3047C5.9366 31.1696 6.06379 31.0541 6.1851 30.9328C8.79924 28.3004 11.4134 25.6681 14.0314 23.0396C15.1957 21.8692 16.264 21.8751 17.442 23.0572C19.201 24.8186 20.9542 26.5879 22.7094 28.3513C24.0243 29.6743 24.0908 30.4102 22.952 32.0288C23.3668 32.4261 23.7816 32.8645 24.2473 33.2422C24.4019 33.3675 24.7013 33.3988 24.9126 33.3597C29.4815 32.4966 33.569 33.5182 37.1811 36.45C37.273 36.5244 37.3748 36.587 37.4589 36.6438C38.2925 36.0801 39.0673 35.4871 39.9048 35.0037C43.0316 33.1992 46.3853 32.6707 49.923 33.3479C50.3829 33.436 50.7077 33.3557 51.0227 33.0035C51.3299 32.661 51.7056 32.3791 52.0597 32.0621C51.8602 31.7744 51.7115 31.5845 51.5882 31.379C51.054 30.4905 51.1186 29.5432 51.8249 28.8249C53.809 26.8052 55.8029 24.7952 57.8163 22.8028C58.6714 21.9573 59.8259 21.9671 60.7005 22.7852C61.2699 23.3175 61.8158 23.8792 62.3539 24.4448C62.8763 24.9948 62.9037 25.6133 62.4596 26.0712C62.0115 26.5331 61.3247 26.5057 60.7788 25.9597C60.2798 25.4606 59.82 24.9263 59.3778 24.4448C57.3702 26.4274 55.4624 28.3122 53.5312 30.2184C58.0648 34.6592 62.5868 39.0882 67.0695 43.4801C68.7738 41.7969 70.6933 39.9005 72.6676 37.9511C72.5072 37.7828 72.333 37.591 72.1491 37.4071C69.5682 34.8099 66.9874 32.2128 64.4065 29.6156C64.2519 29.4591 64.0856 29.3123 63.9486 29.142C63.5612 28.6605 63.5788 27.9951 64.0112 27.6232C64.4808 27.2201 64.9876 27.2181 65.4768 27.5998C65.649 27.7348 65.7957 27.9012 65.9503 28.0577C68.6701 30.7919 71.3899 33.526 74.1077 36.2621C75.3013 37.4658 75.2955 38.5109 74.0823 39.7361C72.3311 41.5053 70.574 43.2687 68.8188 45.0341C67.5391 46.3219 66.8249 46.3923 65.242 45.3355C61.6749 48.9797 58.0981 52.6356 54.4587 56.3542C55.707 57.5579 56.474 58.9572 55.9183 60.7265C55.3763 62.4527 54.1123 63.3197 52.2809 63.4822C52.2339 63.7679 52.1967 64.0517 52.14 64.3335C51.8367 65.8445 50.6079 66.9855 49.0425 67.2654C48.8058 67.3084 48.4536 67.4826 48.4027 67.6646C47.7159 70.1267 47.0487 70.7804 44.6204 71.2286C44.5617 71.5437 44.5206 71.8784 44.4365 72.2013C44.0295 73.7592 42.9259 74.5792 41.4486 74.9961H40.1298C39.2102 74.4951 38.2886 73.994 37.3219 73.4695C34.3106 76.0941 31.2934 75.1488 30.3561 71.1366C28.0355 70.9154 26.793 69.5748 26.5269 67.2908C24.2023 67.0325 22.9657 65.7192 22.6976 63.4352C20.9131 63.2551 19.6237 62.4077 19.0856 60.6776C18.5338 58.9064 19.2578 57.4933 20.5961 56.2877C16.9547 52.5887 13.3622 48.9405 9.77563 45.2963C8.11636 46.4021 7.45891 46.3317 6.06379 44.9284C4.4456 43.3 2.81764 41.6834 1.21902 40.0375C0.770937 39.5756 0.405035 39.0295 0 38.5207C0 38.1782 0 37.8376 0 37.4951ZM22.14 54.722C24.8461 53.4302 26.4271 53.9195 28.1294 56.5656C29.2408 56.0039 30.3894 55.8865 31.5732 56.3699C32.757 56.8553 33.4633 57.7692 33.8371 58.9631C35.3692 58.603 36.6841 58.8516 37.7583 59.9378C38.8345 61.024 39.0204 62.3549 38.6975 63.8227C39.7795 64.1417 40.6679 64.725 41.1199 65.7251C41.6795 66.962 42.7302 67.7253 43.6577 68.6021C44.2232 69.1364 44.9257 69.0835 45.5459 68.6471C46.1075 68.2518 46.3716 67.5061 46.1055 66.825C45.9784 66.4981 45.7396 66.1928 45.4911 65.9364C44.5578 64.9716 43.5853 64.0439 42.6578 63.0751C42.1824 62.578 42.2235 61.9399 42.6813 61.5113C43.1157 61.1042 43.6968 61.1121 44.1978 61.5407C44.3641 61.6836 44.5128 61.846 44.6693 62.0006C45.5342 62.8618 46.3912 63.7307 47.2639 64.5841C47.7902 65.0968 48.4242 65.1751 49.0954 64.9324C49.6863 64.7191 50.0581 64.2259 50.0033 63.6466C49.9543 63.1299 49.7254 62.5506 49.3869 62.1611C48.5592 61.2021 47.622 60.339 46.7317 59.4348C46.0762 58.7694 46.0097 58.1568 46.5301 57.6557C47.0115 57.1919 47.6533 57.2643 48.2638 57.8691C49.2362 58.83 50.1911 59.8086 51.1695 60.7637C51.8093 61.388 52.7152 61.4056 53.3433 60.84C53.9793 60.2685 54.0732 59.3624 53.5586 58.6539C53.4294 58.4777 53.269 58.3251 53.1144 58.1685C49.248 54.3012 45.3816 50.4358 41.5132 46.5704C40.4292 45.4862 39.5017 45.4862 38.4275 46.5646C36.7897 48.2066 35.1735 49.8702 33.5142 51.4907C31.4538 53.5027 28.0903 52.7178 27.2058 50.0307C26.6893 48.4591 27.1158 47.1047 28.2644 45.95C30.6398 43.5623 33.0153 41.1726 35.3887 38.7829C35.5531 38.6166 35.7057 38.4404 35.9268 38.2017C35.2733 37.7535 34.6961 37.3014 34.0699 36.9373C31.3149 35.3383 28.3642 34.8765 25.2531 35.5438C24.2023 35.7689 23.3296 35.583 22.6135 34.7473C22.2515 34.3265 21.8465 33.9409 21.5569 33.6395C18.1014 37.0195 14.7065 40.3447 11.2862 43.6915C14.9315 47.3944 18.5416 51.0601 22.14 54.7141V54.722ZM63.9271 43.8676C60.3111 40.3154 56.9202 36.9863 53.4294 33.5593C53.2083 33.8176 52.9383 34.1288 52.6742 34.4478C51.8034 35.4949 50.7449 35.7259 49.4006 35.4871C45.4383 34.7864 41.8262 35.7239 38.8853 38.4698C35.7292 41.4153 32.7472 44.5507 29.7339 47.6469C29.411 47.9796 29.2623 48.602 29.2525 49.0932C29.2408 49.7273 29.7143 50.1559 30.315 50.3516C31.0194 50.5826 31.6045 50.3164 32.1034 49.8134C33.704 48.2027 35.2987 46.588 36.9052 44.9832C38.8149 43.075 41.1101 43.0769 43.0316 44.991C46.1251 48.0755 49.2186 51.1619 52.3004 54.2601C52.4844 54.444 52.5626 54.7337 52.7055 55.0058C55.5387 52.1131 58.1196 49.4494 60.7357 46.8209C61.7336 45.8189 62.8118 44.8971 63.929 43.8676H63.9271ZM30.5831 68.9015C30.7435 68.8311 31.1447 68.7645 31.3853 68.5316C33.0446 66.917 34.6902 65.2906 36.2927 63.6211C36.8582 63.034 36.7545 62.0378 36.2066 61.4898C35.6157 60.8987 34.7117 60.7696 34.0914 61.3606C32.3989 62.9733 30.7533 64.6349 29.1254 66.3161C28.6636 66.7917 28.6753 67.4317 28.9669 68.0267C29.2506 68.604 29.7398 68.88 30.5792 68.9015H30.5831ZM32.6376 70.8998C32.6689 71.8099 32.9781 72.3148 33.5866 72.5849C34.2538 72.8824 34.8819 72.7512 35.4024 72.2365C36.5647 71.0877 37.727 69.9408 38.8658 68.7684C39.5741 68.0404 39.5839 67.0442 38.9401 66.414C38.2572 65.7427 37.3552 65.7446 36.5921 66.4825C35.4181 67.6196 34.2597 68.7724 33.1366 69.9584C32.8568 70.2539 32.7355 70.7021 32.6357 70.8978L32.6376 70.8998ZM26.7147 65.0538C26.8791 64.9872 27.2626 64.9383 27.4837 64.723C28.8162 63.4391 30.137 62.1435 31.403 60.795C31.9156 60.249 31.7962 59.2939 31.3012 58.7831C30.7533 58.2194 29.7261 58.0569 29.1684 58.5834C27.8398 59.834 26.5523 61.1316 25.2942 62.4547C24.8402 62.9322 24.8285 63.5683 25.1318 64.1652C25.4213 64.7328 25.9007 65.0264 26.7128 65.0538H26.7147ZM26.0631 57.7771C26.0377 57.2369 25.7814 56.7417 25.2178 56.4345C24.625 56.1096 24.0125 56.1194 23.5155 56.5597C22.7896 57.2017 22.093 57.8867 21.4493 58.6128C21.011 59.106 20.9933 59.7303 21.3045 60.3233C21.5999 60.885 22.0911 61.1845 22.7211 61.1982C23.6916 61.2178 26.0416 58.8594 26.0631 57.779V57.7771ZM39.0673 71.7355C39.6406 72.4224 40.2276 72.9607 41.1434 72.7708C41.7617 72.6436 42.1843 72.2385 42.3193 71.6122C42.5385 70.6003 41.9456 69.9701 41.2471 69.4143C40.527 70.1796 39.8167 70.935 39.0654 71.7355H39.0673Z" fill="#353535"/>
<path d="M37.5215 29.8837C29.2702 29.8916 22.5607 23.1981 22.5568 14.9546C22.5548 6.71303 29.2721 -0.00586761 37.5059 3.84524e-06C45.7103 0.0058753 52.4159 6.69933 52.4335 14.9018C52.4511 23.1531 45.7612 29.874 37.5196 29.8818L37.5215 29.8837ZM37.4609 27.6878C44.503 27.6996 50.2322 21.9964 50.2381 14.9644C50.2459 7.96561 44.5519 2.2292 37.5665 2.19788C30.5362 2.16657 24.7717 7.87754 24.7522 14.8939C24.7326 21.9377 30.4324 27.6761 37.4589 27.6878H37.4609Z" fill="#FFDC22"/>
<path d="M17.98 30.6235C17.98 31.2283 17.4576 31.7313 16.8549 31.7117C16.2562 31.6921 15.812 31.2342 15.812 30.6333C15.812 30.0012 16.2894 29.5373 16.9195 29.5549C17.5065 29.5725 17.982 30.0501 17.98 30.6235Z" fill="#353535"/>
<path d="M59.5911 31.7098C58.9786 31.7098 58.4738 31.2009 58.4914 30.6001C58.509 30.0149 58.9825 29.5608 59.5754 29.5569C60.2153 29.553 60.6712 30.0188 60.6555 30.6568C60.6399 31.2596 60.1879 31.7078 59.5911 31.7098Z" fill="#FFDC22"/>
<path d="M35.4709 20.5658C34.5043 20.556 34.1677 20.0178 33.7294 19.6165C32.4908 18.4794 31.3246 17.2621 30.1448 16.0624C29.5949 15.5026 29.5715 14.843 30.045 14.387C30.5322 13.9193 31.127 13.9623 31.7179 14.5416C32.7785 15.5848 33.8488 16.6201 34.8682 17.7024C35.3026 18.1624 35.5589 18.1956 36.0227 17.7201C38.3433 15.3499 40.7011 13.017 43.0472 10.6724C43.2194 10.5001 43.3877 10.3162 43.5892 10.1831C44.0862 9.85818 44.5734 9.9169 44.9784 10.3416C45.362 10.7428 45.3776 11.2145 45.0919 11.6842C45.0039 11.8271 44.8787 11.9504 44.7593 12.0698C42.2782 14.5553 39.8128 17.0585 37.2945 19.503C36.821 19.963 36.4394 20.5716 35.4728 20.5618L35.4709 20.5658Z" fill="#FFDC22"/>
</g>
<defs>
<clipPath id="clip0_283_41">
<rect width="75" height="75" fill="white"/>
</clipPath>
</defs>
</svg>
