<svg width="79" height="46" viewBox="0 0 79 46" fill="none" xmlns="http://www.w3.org/2000/svg">
<g clip-path="url(#clip0_283_32)">
<path d="M23.1157 7.22261C23.5296 6.51379 23.8948 5.86608 24.2721 5.21836C24.759 4.38733 25.2824 4.2529 26.1345 4.72952C26.8284 5.12059 27.51 5.52389 28.216 5.9394C28.9342 5.37724 29.6524 4.83951 30.3462 4.2529C30.4923 4.13069 30.5653 3.84961 30.5897 3.64185C30.7236 2.02867 31.3931 1.16098 32.9268 0.672135C33.5111 0.488819 34.0832 0.293282 34.6797 0.134409C35.8361 -0.171117 36.8707 0.0977456 37.6498 0.989882C37.9906 1.38096 38.3314 1.47872 38.8062 1.47872C39.6339 1.47872 40.4495 1.56427 41.2772 1.57649C41.4963 1.57649 41.7763 1.45428 41.9467 1.29541C42.9448 0.391051 44.0525 0.0977456 45.3307 0.635471C45.7445 0.806566 46.1584 0.989882 46.5966 1.13653C48.1425 1.66204 48.9581 2.68861 48.9094 4.37511C48.9094 4.58287 49.019 4.83951 49.165 4.98616C50.1469 5.93126 51.2303 6.05754 52.4151 5.36501C52.5247 5.30391 52.6464 5.23058 52.7681 5.16948C53.7419 4.61953 54.2045 4.75396 54.7766 5.74387C55.1296 6.3427 55.4582 6.94153 55.8478 7.61369C56.1643 7.44259 56.4564 7.28372 56.7485 7.11262C57.698 6.5749 58.1606 6.68489 58.7083 7.65035C59.9012 9.76459 61.6419 11.2189 63.9425 11.9644C64.819 12.2455 65.7441 12.4166 66.6327 12.6732C74.4596 14.873 79.4504 22.1201 79 30.2471C78.574 37.7997 72.6216 44.8879 64.0643 45.9144C55.2391 46.9654 46.8279 40.5127 45.5376 31.738C45.1237 28.8783 45.3428 26.1041 46.268 23.3666C47.1809 20.678 47.0348 18.0749 45.6106 15.5696C44.9168 14.3475 45.0264 13.9686 46.2193 13.2476C46.4262 13.1254 46.621 12.9909 46.8766 12.8321C46.4871 12.1599 46.1097 11.5244 45.7567 10.8767C45.2455 9.97235 45.3794 9.49573 46.2801 8.958C47.0835 8.48138 47.8869 8.01698 48.7268 7.52814C48.1912 6.95375 47.7774 6.39158 46.8522 6.88042C46.4384 7.1004 45.7932 7.05152 45.3063 6.91709C44.4177 6.67267 43.5048 6.37936 42.7257 5.89052C42.1658 5.53611 41.7398 4.87617 41.3989 4.27734C41.192 3.91071 41.0459 3.67851 40.5955 3.70295C40.3034 3.7274 40.0113 3.70295 39.7191 3.65407C38.9522 3.54408 38.3071 3.64185 38.0636 4.54621C38.0149 4.74174 37.8324 4.90062 37.6863 5.05949C36.469 6.3427 33.4015 6.83154 31.7948 5.97607C31.3687 6.31826 30.9062 6.67267 30.3584 7.1004C31.247 7.62591 32.0504 8.07809 32.8416 8.55471C33.7302 9.08021 33.8641 9.56905 33.365 10.4734C32.9998 11.1211 32.6225 11.7688 32.233 12.4532C32.5616 12.661 32.8538 12.8321 33.1459 13.0154C34.0223 13.5531 34.0832 13.9931 33.6693 14.9463C33.1946 16.034 32.7442 17.1583 32.4521 18.3071C32.0504 19.9081 32.4034 21.4846 32.8781 23.0366C34.9962 29.9293 33.645 36.0521 28.3986 41.0016C23.6148 45.5111 17.845 46.7699 11.5883 44.6923C5.38028 42.6147 1.53375 38.1907 0.328664 31.7258C-1.42419 22.3523 4.46734 13.8831 13.9133 11.9399C16.6277 11.3778 18.7579 9.96013 20.17 7.51592C20.8881 6.26937 21.2655 6.18382 22.5314 6.91709C22.714 7.02708 22.8966 7.12485 23.1522 7.25928L23.1157 7.22261ZM21.7524 9.01911C19.7804 11.9644 17.0173 13.4676 13.6698 14.213C6.13498 15.8751 1.20509 22.9633 2.21541 30.4548C3.40832 39.3151 11.8804 45.059 20.5108 42.847C23.1035 42.1748 25.3555 40.8671 27.1692 39.0095C26.3536 38.3741 25.5746 37.763 24.7468 37.1153C24.6129 37.2253 24.3938 37.4086 24.1747 37.5919C21.4724 39.7673 18.3806 40.6349 14.9844 40.085C8.52081 39.034 4.27258 33.0579 5.42897 26.5441C6.26888 21.839 9.11726 18.6982 13.682 17.3905C18.2954 16.0706 22.3488 17.3416 25.5381 20.9102C28.8368 24.6132 29.3237 29.6727 27.0475 34.1333C26.8284 34.5611 26.6945 35.0988 26.7553 35.5632C26.8527 36.2598 27.4005 36.6753 28.0943 36.7364C28.8368 36.8098 29.3481 36.3942 29.6889 35.7465C31.6974 31.9702 31.9774 28.0595 30.7966 23.9532C30.3827 22.5111 30.1636 20.9835 30.0541 19.4803C29.9202 17.7449 30.4923 16.1195 31.2348 14.4941C28.0821 12.661 24.9538 10.8523 21.7646 9.00689L21.7524 9.01911ZM73.5954 26.2874C73.5954 27.6684 73.7658 29.0983 73.571 30.4793C72.6337 37.1519 66.8761 41.4171 60.2421 40.4638C53.8028 39.5473 49.2868 32.9724 50.7231 26.6296C51.8552 21.6434 55.3487 18.2582 60.4855 17.4516C64.8798 16.7672 69.3958 18.7226 72.0008 22.9144C72.6216 23.9166 73.4493 24.1976 74.2649 23.7088C75.0926 23.22 75.2387 22.2667 74.6057 21.2646C72.4633 17.806 69.4202 15.5207 65.4763 14.6652C62.0801 13.9197 59.2439 12.441 57.2233 9.54461C57.1989 9.50795 57.1259 9.50795 57.0407 9.47128C53.9488 11.2678 50.8205 13.0765 47.6678 14.9096C49.3111 18.2215 49.165 21.509 48.0086 24.8454C47.327 26.8374 47.2661 28.915 47.5461 31.017C48.5807 38.9118 55.8843 44.619 63.7599 43.678C71.1122 42.7981 76.6142 36.712 76.7237 29.2694C76.7481 27.8762 76.5046 26.483 76.3829 25.1631C75.2995 25.6031 74.4109 25.9697 73.5954 26.3119V26.2874ZM7.43745 28.585C7.46179 33.84 11.6613 38.0685 16.7982 38.0196C22.0567 37.9708 26.2197 33.7667 26.1954 28.5361C26.171 23.3299 21.935 19.1015 16.786 19.1259C11.6126 19.1503 7.4131 23.4033 7.43745 28.585ZM71.453 28.9761C71.5017 23.7943 67.3752 19.6025 62.1775 19.5536C57.0163 19.5048 52.7438 23.6355 52.6951 28.7072C52.6464 33.9989 56.7364 38.3374 61.8367 38.3863C67.2413 38.4352 71.4043 34.3655 71.453 28.9761ZM53.1698 7.44259C51.3926 8.46916 49.7128 9.44684 47.9599 10.4612C48.2399 10.9256 48.4834 11.3167 48.7268 11.72C50.4918 10.6934 52.1838 9.71571 53.9002 8.71358C53.6445 8.2614 53.4254 7.90699 53.1698 7.44259ZM30.188 11.3411C30.4436 10.8767 30.6627 10.4856 30.9062 10.0457C29.1655 9.03133 27.4735 8.05364 25.7206 7.0393C25.465 7.47926 25.2337 7.87033 24.9781 8.31029C26.7431 9.33685 28.4108 10.3023 30.188 11.3411ZM33.4137 4.46066C34.3145 4.15513 35.1057 3.93515 35.8361 3.59296C36.0308 3.4952 36.2012 2.96969 36.116 2.73749C36.0308 2.50529 35.5804 2.22421 35.3492 2.26087C34.6066 2.3953 33.8641 2.6275 33.1703 2.93303C32.9512 3.0308 32.7564 3.50742 32.7929 3.76406C32.8294 4.0207 33.1946 4.22846 33.4137 4.44844V4.46066ZM44.0282 2.45641C43.7969 2.67639 43.4074 2.87192 43.3709 3.10412C43.3344 3.38521 43.5413 3.84961 43.7848 3.98404C44.369 4.32623 45.0263 4.57065 45.6837 4.74174C45.9271 4.80285 46.4019 4.60731 46.5236 4.39955C46.6453 4.19179 46.5479 3.61741 46.3775 3.51964C45.6715 3.11634 44.9046 2.83526 44.0404 2.45641H44.0282Z" fill="#353535"/>
<path d="M27.3031 14.7875C27.2787 15.7774 26.4875 16.3151 25.7693 15.9607C24.8929 15.5329 24.053 15.0197 23.2253 14.4819C22.7018 14.152 22.6166 13.602 22.8966 13.0765C23.1887 12.5266 23.7365 12.3432 24.2599 12.5877C25.1607 13.0276 26.0249 13.5531 26.8648 14.1153C27.1205 14.2864 27.23 14.653 27.3031 14.7875Z" fill="#FFDC22"/>
<path d="M56.1642 14.2008C56.0425 14.3597 55.8599 14.7508 55.5677 14.9586C54.8374 15.4474 54.0705 15.8751 53.3036 16.2906C52.6463 16.6451 52.0255 16.4617 51.7334 15.8751C51.4169 15.2274 51.636 14.7264 52.2081 14.3719C52.975 13.9075 53.754 13.4309 54.5574 13.0276C55.3121 12.6488 56.1399 13.1743 56.1642 14.2008Z" fill="#FFDC22"/>
</g>
<defs>
<clipPath id="clip0_283_32">
<rect width="79" height="46" fill="white"/>
</clipPath>
</defs>
</svg>
