<svg width="72" height="59" viewBox="0 0 72 59" fill="none" xmlns="http://www.w3.org/2000/svg">
<path d="M0.00352249 51.0636C0.317024 50.4629 0.813695 50.2856 1.46007 50.2892C4.69372 50.3091 7.92912 50.2982 11.1628 50.2982C11.4164 50.2982 11.6718 50.2982 12.0416 50.2982C12.0416 49.9363 12.0416 49.6342 12.0416 49.332C12.0416 35.5836 12.0487 21.8353 12.0346 8.08696C12.0328 5.53742 12.8905 3.43843 14.8772 1.87686C16.2563 0.794798 17.8432 0.416619 19.5569 0.418428C29.4005 0.431094 39.2423 0.423857 49.0859 0.423857C53.4925 0.423857 57.8974 0.438332 62.304 0.418428C64.798 0.407571 66.8199 1.34488 68.2835 3.44205C69.2275 4.79372 69.6467 6.33358 69.6431 7.98744C69.6431 8.7257 69.1975 9.06045 68.2782 9.06226C65.0903 9.06769 61.9042 9.06407 58.7164 9.06407C58.4381 9.06407 58.1616 9.06407 57.8146 9.06407C57.8005 9.3753 57.7776 9.62862 57.7776 9.88195C57.7741 12.1691 57.7812 14.4563 57.7706 16.7435C57.7706 17.0511 57.797 17.4491 57.6332 17.6464C57.3902 17.9377 56.9745 18.2652 56.6504 18.2453C56.3264 18.2254 56.0111 17.8147 55.724 17.5396C55.6465 17.4654 55.6694 17.2628 55.6694 17.1198C55.6712 13.7723 55.6536 10.4266 55.6941 7.07908C55.7117 5.69484 56.2418 4.45897 57.0326 3.34434C57.1788 3.13806 57.3303 2.93359 57.5416 2.64407C57.2299 2.62417 57.0097 2.59884 56.7878 2.59884C44.3429 2.59703 31.8979 2.59341 19.4547 2.59884C16.7811 2.59884 14.9547 3.95232 14.3242 6.40596C14.1886 6.93252 14.1639 7.50069 14.1639 8.04896C14.1551 21.8697 14.1569 35.6904 14.1569 49.5111C14.1569 49.7445 14.1569 49.978 14.1569 50.2946H15.1414C24.7032 50.2946 34.265 50.2946 43.8268 50.2946C45.507 50.2946 45.5969 50.4014 45.8205 52.1385C46.0794 54.1488 47.0411 55.6868 48.9309 56.4088C52.3407 57.7134 55.6342 55.267 55.6606 51.4328C55.687 47.5316 55.6659 43.6322 55.6659 39.7309C55.6659 39.4903 55.6659 39.2496 55.6659 39.009C55.6729 38.03 56.0375 37.5125 56.7156 37.5198C57.3919 37.5252 57.7723 38.0536 57.7723 39.0234C57.7759 43.1888 57.79 47.3542 57.7688 51.5196C57.7477 55.6398 54.9191 58.6761 50.9176 58.9167C50.6604 58.933 50.4015 58.9348 50.1444 58.9348C35.9664 58.9348 21.7866 58.9276 7.60858 58.9439C5.63246 58.9457 3.86065 58.4807 2.37768 57.0747C1.14129 55.904 0.450879 54.4401 0.137377 52.7664C0.093346 52.5347 0.0457924 52.3031 0 52.0715C0 51.735 0 51.3966 0 51.06L0.00352249 51.0636ZM2.26848 52.504C2.80742 55.2562 4.66554 56.7598 7.46944 56.7598C19.9091 56.7635 32.3488 56.7617 44.7885 56.7598C45.0086 56.7598 45.2288 56.7363 45.3239 56.7309C44.7092 55.334 44.1033 53.957 43.464 52.504H2.26848ZM57.8534 6.85471H67.3447C67.2813 4.70144 65.2629 2.79788 62.9064 2.6296C60.4565 2.45408 58.2866 4.2346 57.8534 6.85471Z" fill="#353535"/>
<path d="M68.4631 19.3274C69.3261 19.3274 70.0517 19.3274 70.7791 19.3274C71.3163 19.3274 71.7478 19.521 71.938 20.0783C72.1194 20.6085 71.8799 20.9939 71.5135 21.3522C68.773 24.0465 66.0801 26.7933 63.2956 29.4387C59.9052 32.6596 56.1784 35.4208 51.8422 37.1344C49.6882 37.9848 47.4056 38.4879 45.1917 39.1845C44.1649 39.5084 43.1681 39.93 42.1518 40.2847C41.7115 40.4385 41.4878 40.7153 41.3681 41.184C40.919 42.9265 40.461 44.6672 39.9291 46.3826C39.8147 46.7517 39.4378 47.1733 39.089 47.3018C38.3704 47.5641 37.6642 46.8223 37.8808 46.0315C39.2018 41.2002 40.329 36.2966 42.4724 31.7458C44.1914 28.0961 46.9917 25.5303 50.4297 23.6647C55.0371 21.1658 60.0038 19.9915 65.1625 19.5644C66.3055 19.4703 67.4521 19.3998 68.4631 19.3274ZM44.1737 37.0222C44.2125 37.0783 44.253 37.1326 44.2918 37.1887C46.5761 36.5011 48.9115 35.9492 51.1342 35.0933C54.6743 33.7308 57.7741 31.5304 60.5921 28.9845C62.8905 26.9091 64.9811 24.5911 67.1615 22.3782C67.1791 22.3601 67.1545 22.3003 67.1369 22.1502C58.5402 25.637 51.0884 30.8935 44.172 37.024L44.1737 37.0222ZM43.6295 34.5685C49.0735 29.8458 54.9209 25.7691 61.2173 22.3583C61.0236 22.3148 60.858 22.313 60.7048 22.3583C58.5684 22.9699 56.3862 23.453 54.3079 24.2329C50.8964 25.5122 47.8636 27.4356 45.6638 30.5135C44.7796 31.7494 44.091 33.0956 43.6295 34.5704V34.5685Z" fill="#FFDC22"/>
<path d="M31.1512 24.7684C27.5195 24.7684 23.8878 24.7684 20.2544 24.7684C19.9972 24.7684 19.7295 24.7883 19.4865 24.725C18.9475 24.5857 18.6446 24.2166 18.671 23.6267C18.6957 23.0693 19.0162 22.7455 19.5288 22.6351C19.7542 22.5862 19.9955 22.6025 20.2297 22.6025C27.5407 22.6025 34.8516 22.6025 42.1625 22.6025C42.3492 22.6025 42.5394 22.5917 42.7243 22.6134C43.3285 22.6839 43.7652 23.1453 43.7265 23.7063C43.686 24.3179 43.3337 24.6671 42.7508 24.754C42.5429 24.7847 42.3298 24.7684 42.1185 24.7684C38.4621 24.7684 34.8076 24.7684 31.1512 24.7684Z" fill="#353535"/>
<path d="M39.4062 13.6764C35.8449 13.6764 32.2854 13.6764 28.7242 13.6764C28.4671 13.6764 28.1412 13.7524 27.9686 13.6221C27.6446 13.3779 27.2148 13.0232 27.1884 12.6867C27.162 12.3483 27.516 11.905 27.8154 11.639C28.0039 11.4707 28.3949 11.5105 28.696 11.5105C35.8167 11.5051 42.9392 11.5051 50.0599 11.5069C50.2695 11.5069 50.4844 11.4996 50.6905 11.5358C51.3263 11.6426 51.6785 12.0678 51.6503 12.6595C51.6221 13.2476 51.2312 13.6529 50.5813 13.6638C48.9415 13.6873 47.3018 13.6764 45.6621 13.6782C43.5768 13.6782 41.4915 13.6782 39.4079 13.6782L39.4062 13.6764Z" fill="#353535"/>
<path d="M27.4227 33.6891C29.8109 33.6891 32.1992 33.6891 34.5874 33.6891C34.8445 33.6891 35.107 33.6801 35.3571 33.7289C35.852 33.8248 36.1373 34.1542 36.1743 34.6699C36.2148 35.2163 35.9788 35.6108 35.4575 35.761C35.1915 35.837 34.9027 35.8515 34.6244 35.8515C29.8232 35.8569 25.0238 35.8569 20.2227 35.8515C19.9444 35.8515 19.6556 35.837 19.3896 35.7628C18.8665 35.6162 18.6341 35.2199 18.671 34.6753C18.7063 34.1578 18.9881 33.8267 19.4847 33.7308C19.7348 33.6819 19.9973 33.6909 20.2544 33.6909C22.6426 33.6891 25.0309 33.6909 27.4191 33.6909L27.4227 33.6891Z" fill="#353535"/>
<path d="M25.1417 46.9109C23.502 46.9109 21.864 46.9109 20.2243 46.9109C19.99 46.9109 19.7523 46.9163 19.5233 46.8765C18.9914 46.786 18.6955 46.444 18.6709 45.894C18.6462 45.3475 18.8928 44.9621 19.4229 44.83C19.6924 44.7631 19.9777 44.7468 20.256 44.7468C23.5566 44.7413 26.8589 44.7431 30.1595 44.7431C30.3004 44.7431 30.4413 44.7359 30.5804 44.7486C31.3342 44.8083 31.8009 45.2588 31.7692 45.8904C31.7393 46.4965 31.2814 46.8982 30.5487 46.9037C28.7452 46.9163 26.9434 46.9073 25.1399 46.9091L25.1417 46.9109Z" fill="#353535"/>
<path d="M21.4273 13.6655C20.8426 13.6655 20.2561 13.6872 19.6713 13.6601C19.0743 13.6312 18.7114 13.2874 18.6745 12.6667C18.6375 12.0424 18.9651 11.5937 19.5516 11.5684C20.8337 11.5105 22.123 11.5123 23.4069 11.5738C23.9969 11.6027 24.3263 12.0841 24.2787 12.683C24.2329 13.2765 23.8648 13.6456 23.2555 13.6637C22.6478 13.6818 22.0384 13.6673 21.429 13.6673L21.4273 13.6655Z" fill="#353535"/>
</svg>
