<svg width="72" height="72" viewBox="0 0 72 72" fill="none" xmlns="http://www.w3.org/2000/svg">
<g clip-path="url(#clip0_118_547)">
<path d="M70.462 72C69.8852 71.6396 69.7531 71.1111 69.7531 70.4504C69.7651 47.4835 69.7651 24.5045 69.7531 1.53753C69.7531 0.912903 69.8011 0.348339 70.474 0.0840746C71.1589 -0.18019 71.6276 0.192183 72.0121 0.708699V71.988H70.462V72Z" fill="#030F50"/>
<path d="M0.720961 72C0.18024 71.6516 0 71.1712 0 70.5225C0.012016 47.5195 0.012016 24.5045 0.012016 1.50149C0.012016 1.3093 -0.012016 1.11711 0.024032 0.936928C0.156208 0.372363 0.504673 0.036027 1.10547 0.024015C1.68224 -9.04128e-06 2.16288 0.384375 2.247 0.94894C2.28304 1.15314 2.25901 1.36936 2.25901 1.58558C2.25901 24.5405 2.25901 47.5075 2.25901 70.4625C2.25901 71.1231 2.11482 71.6516 1.55007 72.012H0.708945L0.720961 72Z" fill="#030F50"/>
<path d="M18.1563 72C17.6155 71.6516 17.4353 71.1712 17.4353 70.5225C17.4473 47.5195 17.4473 24.5045 17.4473 1.50148C17.4473 1.30929 17.4233 1.1171 17.4593 0.936916C17.5795 0.372351 17.94 0.0360151 18.5288 0.0119911C19.1055 -0.012033 19.5862 0.372351 19.6703 0.936916C19.7063 1.14112 19.6823 1.35734 19.6823 1.57355C19.6823 24.5285 19.6823 47.4955 19.6823 70.4504C19.6823 71.1111 19.5381 71.6396 18.9734 72H18.1322H18.1563Z" fill="#030F50"/>
<path d="M35.5914 72C35.0507 71.6516 34.8705 71.1712 34.8705 70.5225C34.8825 47.5195 34.8825 24.5045 34.8825 1.50148C34.8825 1.30929 34.8585 1.1171 34.8945 0.936916C35.0147 0.372351 35.3752 0.0360151 35.9639 0.0119911C36.5407 -0.012033 37.0213 0.372351 37.1055 0.936916C37.1415 1.14112 37.1175 1.35734 37.1175 1.57355C37.1175 24.5285 37.1175 47.4955 37.1175 70.4504C37.1175 71.1111 36.9733 71.6396 36.4085 72H35.5674H35.5914Z" fill="#030F50"/>
<path d="M53.0268 72C52.486 71.6516 52.3058 71.1712 52.3058 70.5225C52.3178 47.5195 52.3178 24.5045 52.3178 1.50148C52.3178 1.30929 52.2938 1.1171 52.3298 0.936916C52.45 0.372351 52.8105 0.0360151 53.3992 0.0119911C53.976 -0.012033 54.4567 0.372351 54.5408 0.936916C54.5768 1.14112 54.5528 1.35734 54.5528 1.57355C54.5528 24.5285 54.5528 47.4955 54.5528 70.4504C54.5528 71.1111 54.4086 71.6396 53.8438 72H53.0027H53.0268Z" fill="#030F50"/>
<path d="M10.1415 72C9.54068 71.5435 9.39649 70.967 9.52867 70.2102C9.72092 69.1531 9.76899 68.0841 9.87713 67.027C8.51932 66.6907 8.33908 66.4985 8.45924 65.1411C8.74762 61.7658 9.08407 58.3904 9.39649 55.015C9.63681 52.3844 9.88915 49.7537 10.1295 47.1231C10.2977 45.2252 11.1989 43.7598 12.773 42.7147C13.3377 42.3423 13.9506 42.054 14.5634 41.7537C15.2002 41.4414 15.8371 41.6576 16.1255 42.2102C16.4259 42.7868 16.2336 43.3754 15.5968 43.7597C15.2002 44 14.7797 44.2042 14.3591 44.4204C13.0854 45.0931 12.4846 46.1742 12.3524 47.5796C12.052 50.9069 11.7276 54.2342 11.4152 57.5615C11.2109 59.6997 11.0187 61.8498 10.8144 63.988C10.7903 64.2162 10.8144 64.4444 10.8144 64.7447C11.8838 64.8649 12.9172 64.985 13.9626 65.1051C14.4793 65.1652 14.9839 65.2012 15.5006 65.2733C16.2817 65.3814 16.7022 65.8979 16.5941 66.6186C16.498 67.2552 15.9332 67.6276 15.1882 67.5435C14.2149 67.4354 13.2416 67.3273 12.1722 67.2072C12.052 68.2282 11.8838 69.2372 11.8237 70.2462C11.7757 70.9309 11.6074 71.5075 11.1028 71.976H10.1175L10.1415 72Z" fill="#030F50"/>
<path d="M60.8972 72C60.008 71.2793 60.2483 70.2222 60.0801 69.2853C59.9599 68.6246 59.9239 67.94 59.8518 67.2313C58.8545 67.3394 57.9052 67.4355 56.9559 67.5556C56.1028 67.6637 55.514 67.3273 55.4179 66.6306C55.3097 65.8739 55.7663 65.3694 56.6555 65.2733C58.1455 65.1171 59.6235 64.949 61.2096 64.7808C61.1495 64.012 61.1135 63.2673 61.0414 62.5346C60.741 59.2673 60.4165 56.012 60.1161 52.7568C59.9599 51.0751 59.7677 49.4054 59.6595 47.7237C59.5634 46.1862 58.8905 45.0571 57.5087 44.3604C57.0881 44.1442 56.6555 43.964 56.271 43.6997C55.7663 43.3634 55.5861 42.8589 55.8625 42.2943C56.1268 41.7297 56.6555 41.4655 57.2083 41.6937C59.5634 42.6306 61.4379 44.0601 61.8464 46.7628C62.0748 48.3123 62.1589 49.8859 62.3031 51.4475C62.6155 54.7748 62.9279 58.1141 63.2403 61.4415C63.3605 62.7027 63.4806 63.952 63.5647 65.2132C63.6488 66.5225 63.4566 66.7508 62.1348 67.0391C62.243 68.1201 62.3031 69.2132 62.4953 70.2943C62.6275 71.0391 62.4232 71.5676 61.8825 72.012H60.8972V72Z" fill="#030F50"/>
<path d="M30.9051 32.6607C31.0253 33.3334 31.0373 33.8499 31.1935 34.3183C32.0467 36.6967 32.9479 39.0511 33.813 41.4174C33.9212 41.7177 34.0293 42.0541 33.9933 42.3664C33.9212 42.8949 33.5487 43.2553 32.9959 43.3033C32.3831 43.3634 31.9866 43.0391 31.7703 42.4625C31.0734 40.5766 30.3644 38.7027 29.6675 36.8168C29.5834 36.5766 29.4752 36.3484 29.3671 36.0841C28.6702 36.5766 28.1655 37.0811 28.0093 37.958C27.6608 39.952 27.2042 41.934 26.7716 44.0481C27.3484 43.9039 27.829 43.8078 28.3097 43.6757C28.8985 43.5075 29.3911 43.6156 29.8718 44.024C31.0253 45.009 32.2149 45.958 33.3925 46.943C34.1134 47.5436 34.2336 48.1922 33.7409 48.7448C33.2963 49.2493 32.5994 49.2373 31.9265 48.6847C30.9772 47.9159 30.04 47.1472 29.1148 46.3544C28.7903 46.0781 28.5019 45.946 28.0453 46.1021C27.3003 46.3544 26.5193 46.5225 25.7383 46.6907C24.6208 46.943 23.9839 46.3544 24.2002 45.2373C24.5727 43.2913 25.0053 41.3454 25.4018 39.4114C25.4499 39.1952 25.4739 38.967 25.522 38.6307C24.4165 39.2072 23.4192 39.7478 22.3978 40.2643C21.7249 40.6006 21.064 40.4325 20.7636 39.8559C20.4512 39.2673 20.6795 38.6427 21.3164 38.2583C21.4125 38.1982 21.5206 38.1502 21.6288 38.0901C23.0827 37.3334 24.5727 36.6367 25.9545 35.7838C26.9038 35.2072 27.6969 34.3904 28.562 33.6697C28.5981 33.6457 28.6582 33.5976 28.6582 33.5616C28.6101 32.3484 29.1268 31.0391 28.3818 29.946C25.3537 25.5496 23.7436 20.7207 23.9599 15.3754C24.1401 10.8829 25.8584 7.19522 30.1602 5.15318C30.9532 4.7808 31.8184 4.55258 32.6715 4.31234C33.2963 4.14417 33.8971 4.51654 34.0413 5.09312C34.1975 5.71774 33.9092 6.24627 33.2723 6.4745C32.6595 6.69071 32.0106 6.82285 31.4098 7.08711C28.2256 8.44447 26.6515 11.015 26.327 14.3424C25.7983 19.7478 27.2763 24.6367 30.5447 28.937C31.2536 29.8619 32.275 30.5586 33.1642 31.3394C33.3324 31.4955 33.5727 31.5676 33.7529 31.7237C34.2336 32.1081 34.3417 32.7448 33.9933 33.2252C33.6448 33.7298 33.1521 33.8979 32.5874 33.6216C32.0827 33.3694 31.6141 33.0691 30.9172 32.6487L30.9051 32.6607Z" fill="#030F50"/>
<path d="M46.466 38.6066C46.7183 39.8559 46.9346 40.973 47.1629 42.0781C47.3672 43.0631 47.5955 44.036 47.7877 45.021C48.0521 46.3784 47.4032 46.991 46.0574 46.6427C45.3365 46.4625 44.6155 46.2342 43.8825 46.1021C43.6061 46.0541 43.2336 46.1261 43.0174 46.2823C42.1041 46.979 41.239 47.7237 40.3498 48.4565C40.1696 48.6006 39.9893 48.7688 39.7971 48.8889C39.2804 49.2252 38.6435 49.1532 38.271 48.7207C37.8625 48.2523 37.8625 47.5796 38.3672 47.1472C39.7009 46.006 41.0467 44.8769 42.4526 43.8198C42.729 43.6036 43.2457 43.6156 43.6422 43.6517C44.1469 43.6997 44.6275 43.8919 45.2403 44.0481C45 42.8469 44.7837 41.7418 44.5554 40.6366C44.3872 39.8078 44.1469 39.003 44.0507 38.1742C43.9426 37.2252 43.462 36.5886 42.6328 36.0721C41.972 37.8499 41.3111 39.6156 40.6502 41.3814C40.506 41.7538 40.3858 42.1261 40.2296 42.4985C39.9413 43.1592 39.3525 43.4595 38.7757 43.2433C38.1389 43.003 37.8625 42.4024 38.1148 41.7057C39.016 39.2553 39.9413 36.8048 40.8184 34.3424C40.9867 33.8739 41.0107 33.3574 41.1308 32.6607C40.47 33.0571 40.0134 33.3574 39.5327 33.5976C38.9319 33.9099 38.3311 33.7177 38.0067 33.1892C37.6943 32.6607 37.8144 31.976 38.3792 31.6637C41.4913 29.9099 43.1015 26.991 44.3511 23.8439C45.733 20.3484 46.2857 16.7207 45.4566 12.985C44.6996 9.57358 42.5367 7.4955 39.1842 6.60662C38.9199 6.53454 38.6315 6.46247 38.4152 6.30632C37.9346 5.95797 37.8385 5.44145 38.0788 4.93695C38.3431 4.39641 38.8118 4.1922 39.4246 4.33635C42.9332 5.14115 45.5287 7.0871 46.9947 10.4144C48.0521 12.8048 48.2563 15.3273 48.0401 17.9099C47.6555 22.3904 46.1535 26.4625 43.534 30.1261C43.3538 30.3784 43.3899 30.7868 43.3178 31.1111C42.9573 32.8889 43.6182 34.2222 45.1322 35.1712C45.769 35.5676 46.4059 35.952 47.0547 36.3123C48.2203 36.949 49.4099 37.5496 50.5874 38.1862C51.3445 38.5946 51.5968 39.2312 51.2724 39.8438C50.9599 40.4565 50.275 40.6006 49.518 40.2042C48.5447 39.6997 47.5834 39.1832 46.478 38.6066H46.466Z" fill="#030F50"/>
<path d="M44.8317 51.5796C46.2617 51.5796 47.6795 51.5796 49.1095 51.5796C50.0827 51.5796 50.4793 51.988 50.4793 52.9489C50.4793 54.5826 50.4793 56.2282 50.4793 57.8618C50.4793 58.7507 50.0347 59.1952 49.1335 59.1952C46.2617 59.1952 43.3778 59.1952 40.506 59.1952C39.6288 59.1952 39.1842 58.7868 39.1722 57.9219C39.1482 56.2402 39.1482 54.5585 39.1722 52.8648C39.1842 51.976 39.5928 51.5916 40.4819 51.5796C41.9359 51.5675 43.3778 51.5796 44.8317 51.5796ZM48.1722 53.8979H41.5153V56.8528H48.1722V53.8979Z" fill="#FFDC22"/>
</g>
<defs>
<clipPath id="clip0_118_547">
<rect width="72" height="72" fill="white"/>
</clipPath>
</defs>
</svg>
