<svg width="67" height="80" viewBox="0 0 67 80" fill="none" xmlns="http://www.w3.org/2000/svg">
<path d="M0.0126487 75.9386C0.0126487 76.7231 0.0126487 77.5075 0 78.292C0 78.9246 0.113838 79.3674 0.366811 79.6078C0.619785 79.8608 1.03719 79.9747 1.66962 79.9747H65.343C65.9755 79.9747 66.3929 79.8482 66.6585 79.5951C66.8988 79.3421 67.0253 78.9372 67.0127 78.3552C67.0127 77.6087 67.0127 76.8496 67 76.1031C67 73.7751 66.9747 71.3585 66.8609 69.0052C66.6458 64.8173 65.3051 61.9453 62.6489 59.9589C62.5477 59.883 62.5097 59.7817 62.4844 59.7185L62.4212 59.5793L62.4718 59.3895L62.6362 59.0479C62.7753 58.7696 62.9145 58.4912 63.0536 58.2129C63.4331 57.4664 63.5469 56.9856 63.4331 56.6313C63.3192 56.2771 62.9271 55.9608 62.1556 55.6065C58.8922 54.0503 55.3632 53.0128 51.9607 52.0006C51.2018 51.7729 50.4302 51.5452 49.6713 51.3174C48.9504 51.1023 48.4824 51.3048 48.0523 52.0259C47.7867 52.4688 47.521 52.9242 47.2681 53.3797L46.7874 54.2021L42.3604 52.7598V52.532C42.3604 52.1272 42.3604 51.7349 42.3604 51.3427C42.3604 50.3685 42.3604 49.4322 42.3351 48.496C42.3098 47.6862 42.7146 47.3193 43.1446 47.041C45.9526 45.2443 48.1408 42.8151 49.6207 39.8292C50.6706 37.7163 51.2777 35.3883 51.4674 32.7186L51.4927 32.4023H51.8089C53.6051 32.5289 54.8952 32.2252 55.9577 31.4534C57.1846 30.5551 57.9436 29.3658 58.2092 27.9108C58.4242 26.7215 58.2345 25.5575 57.6653 24.4567C56.9696 23.1283 55.7933 22.1667 54.2628 21.6986L53.9086 21.5847L54.0731 21.2557C54.4778 20.4333 54.8826 19.6109 55.2873 18.7886C56.198 16.9413 57.1467 15.0308 57.9689 13.1204C58.4622 11.9817 58.5127 10.9821 58.1333 10.1724C57.7412 9.32469 56.9064 8.70473 55.6415 8.29986C54.9458 8.08477 54.1995 7.92029 53.4786 7.76846C53.1371 7.69255 52.7955 7.61664 52.454 7.54072C49.0768 6.74363 46.0538 5.93389 43.3343 4.21319L42.9549 3.9728C40.3998 2.34066 37.7689 0.657916 34.7206 0H32.2288C29.99 0.493437 27.7006 1.51827 25.525 3.04919C22.502 5.16211 18.9351 6.61711 14.293 7.60399C12.9396 7.89499 11.738 8.17334 10.5743 8.62882C9.00585 9.26143 8.38607 10.5013 8.76553 12.2094C8.90466 12.8547 9.14499 13.5252 9.47385 14.1958C10.296 15.9038 11.1435 17.6119 11.9909 19.3073L13.1167 21.572L12.7625 21.6859C9.54975 22.6981 8.56315 25.3551 8.70228 27.3161C8.79083 28.632 9.28412 29.7833 10.1822 30.7196C11.4217 32.0354 13.0408 32.5921 15.1278 32.4023L15.4314 32.377L15.4693 32.6807C15.5073 32.959 15.5452 33.2374 15.5705 33.5031C15.6338 34.0471 15.697 34.5659 15.7982 35.072C16.7848 40.2214 19.5548 44.2954 24.0198 47.1675C24.2981 47.3446 24.589 47.7242 24.6017 48.0658C24.627 49.1792 24.627 50.2926 24.627 51.4186V52.7598L20.1999 54.2021L19.7066 53.3291C19.4663 52.8989 19.2386 52.4941 18.9983 52.0892C18.6568 51.5072 18.3153 51.2541 17.8093 51.2541C17.6196 51.2541 17.4172 51.2921 17.1769 51.3554C16.7215 51.4819 16.2662 51.6211 15.8235 51.7602L14.0274 52.3043C10.8399 53.2659 7.55126 54.2654 4.51557 55.771C3.52898 56.2644 3.31395 56.8844 3.7946 57.8586C3.97168 58.2255 4.16141 58.5798 4.33849 58.9467L4.70531 59.6805L3.95903 60.3005C3.87049 60.3764 3.7693 60.4523 3.68076 60.5409C1.47989 62.464 0.366811 65.1463 0.164433 68.9926C0.037946 71.2953 0.037946 73.6359 0.0252973 75.9007L0.0126487 75.9386ZM28.0042 77.4442L28.5733 75.7868C29.1552 74.0914 29.737 72.4087 30.3442 70.7259C30.458 70.4223 30.9007 70.2451 31.1663 70.2451C32.4565 70.2325 33.7593 70.2325 35.0874 70.2325H36.5041L38.9832 77.4569H27.9915L28.0042 77.4442ZM32.9498 61.3886C33.2281 61.1988 33.7593 61.1861 34.0249 61.3759C34.9736 62.0212 35.9349 62.7424 36.8835 63.4888C37.1491 63.6913 37.3262 64.1594 37.2503 64.4884C37.0733 65.3614 36.8582 66.2217 36.5926 67.0315C36.4914 67.3478 36.0487 67.6767 35.7072 67.6767C34.9483 67.702 34.202 67.702 33.481 67.702C32.7601 67.702 32.0011 67.702 31.2802 67.6767C30.926 67.6767 30.4833 67.3225 30.3695 66.9682C30.1544 66.285 29.9773 65.6018 29.7876 64.8806L29.522 63.8811L30.5212 63.1346C31.3308 62.5399 32.115 61.9579 32.9245 61.4012L32.9498 61.3886ZM32.8486 57.3019C32.1909 56.8085 31.5458 56.3277 30.8881 55.8343C29.8635 55.0751 28.8263 54.3033 27.8144 53.5189C27.4856 53.2659 27.2326 52.7724 27.2073 52.3422C27.1567 51.6211 27.1693 50.9125 27.182 50.1661C27.182 49.8751 27.182 49.5841 27.182 49.2804V48.8882L28.6239 49.2171C32.3047 50.0522 33.5443 50.3305 39.4006 49.0021L39.7927 48.9135V50.1661C39.7927 50.9885 39.7927 51.8108 39.7801 52.6206C39.7801 52.9495 39.5144 53.2912 39.2741 53.4683C38.4393 54.1009 37.6045 54.7209 36.7697 55.3408C35.8843 55.9987 34.9862 56.6693 34.1135 57.3272C33.8858 57.5044 33.6834 57.5676 33.5063 57.5676C33.2534 57.5676 33.0383 57.4411 32.8486 57.3019ZM49.8737 53.987L60.5239 57.517L58.3863 61.7049L47.4958 58.1749L49.8737 53.987ZM46.3953 60.5915C46.876 60.7307 47.344 60.8698 47.8246 61.009C48.8618 61.3127 49.9369 61.6163 50.9741 61.9832C53.4027 62.8183 55.768 63.7039 58.1965 64.6149C59.1072 64.9565 59.6638 64.7667 60.1065 63.9443C60.2709 63.628 60.4353 63.3117 60.6251 62.9448L61.169 61.8694L61.4725 62.2363C61.637 62.4261 61.8014 62.6032 61.9532 62.7677C62.32 63.1472 62.6615 63.5142 62.8639 63.9696L62.9651 64.2227C63.4584 65.3614 63.9643 66.538 64.0655 67.7653C64.2679 69.9541 64.3311 72.2062 64.407 74.3824C64.4323 75.2807 64.4703 76.179 64.5082 77.09V77.4189H55.1735V75.7868C55.1735 74.5849 55.1735 73.3955 55.1735 72.2062C55.1735 71.9152 55.1735 71.5736 55.085 71.2826C54.9205 70.6753 54.5284 70.3717 53.896 70.3717H53.8707C53.2509 70.3717 52.8588 70.6627 52.6817 71.27C52.5932 71.561 52.5805 71.9026 52.5805 72.1936C52.5805 73.3955 52.5805 74.5975 52.5805 75.8121V77.3557L52.1758 77.4316C52.0619 77.4569 51.9607 77.4822 51.8469 77.4822H49.0768C46.876 77.4822 44.6751 77.4822 42.4869 77.4949H42.4742C41.7912 77.4949 41.5635 77.1153 41.4244 76.6978C40.9943 75.4325 40.5643 74.1673 40.1342 72.9021C39.7421 71.7634 39.3627 70.6247 38.9705 69.486C38.8694 69.2077 38.7808 68.866 38.8567 68.5624C38.9958 67.9551 39.1603 67.3604 39.3374 66.7278L39.6662 65.5259L40.9058 66.4242C41.3485 66.7278 41.7533 66.8543 42.1201 66.7784C42.4742 66.7025 42.7778 66.4368 43.0434 65.994C43.7517 64.7794 44.4474 63.5521 45.1558 62.3122L46.1676 60.5282L46.408 60.6041L46.3953 60.5915ZM44.2703 56.1L45.4973 56.5048L41.4497 63.628L35.644 59.3642L37.0606 58.3141C38.3887 57.3272 39.6662 56.3783 40.9437 55.442C41.1335 55.3029 41.4623 55.2016 41.728 55.2902C42.5754 55.5433 43.4102 55.8216 44.2703 56.1ZM55.1482 25.2538C55.8439 26.1901 55.9198 27.4806 55.3253 28.4802C54.9205 29.1507 54.1363 29.8972 52.6311 29.8972C52.3655 29.8972 52.0746 29.8719 51.7457 29.8213L51.5054 29.7833L51.4674 29.4417C51.4674 29.3532 51.4421 29.2519 51.4421 29.1507V24.2923L51.6825 24.229C53.0612 23.8621 54.3893 24.2543 55.1482 25.2538ZM15.4693 29.8466L15.1784 29.8719C15.0013 29.8845 14.8242 29.8972 14.6598 29.8972C13.5467 29.8972 12.6613 29.6062 12.0668 29.0495C11.5229 28.5308 11.2447 27.7969 11.27 26.9113C11.2826 26.0889 11.5862 25.393 12.1427 24.8996C12.851 24.2796 13.9009 24.0139 15.1911 24.1404L15.482 24.1657V29.8466H15.4693ZM16.1776 20.8129L15.8488 20.3827C15.2037 19.535 14.5333 18.6494 14.0147 17.7005C13.2685 16.3467 12.6234 14.9296 11.9783 13.5505L11.5735 12.6649C11.2953 12.0702 11.1182 11.6274 11.2953 11.2605C11.4723 10.8809 11.953 10.7417 12.5981 10.5899C13.3443 10.4128 14.078 10.2356 14.8242 10.0585C16.0385 9.76752 17.2528 9.48917 18.4671 9.17286C21.1612 8.46434 23.7542 7.28768 26.1954 5.65554C27.2326 4.95967 28.3583 4.35236 29.4461 3.77036L30.0279 3.45406C32.3679 2.18883 34.8471 2.2521 37.3768 3.63119C37.6045 3.75771 37.8448 3.88423 38.0725 4.01075C38.8567 4.42828 39.6662 4.85845 40.3999 5.37719C44.2071 8.09742 48.5962 9.31204 51.986 10.0712C52.8967 10.2736 53.7948 10.476 54.7055 10.6911L54.8952 10.7291C55.2873 10.8176 55.5656 11.0074 55.6921 11.2731C55.8186 11.5262 55.8059 11.8172 55.6541 12.1461C55.4012 12.6902 55.1482 13.2469 54.9079 13.8036C53.9213 16.0051 52.9094 18.2698 51.3915 20.2436C50.62 21.2431 49.7599 21.6606 48.5962 21.61C46.7115 21.5341 44.7889 21.5467 42.9296 21.5594C42.2213 21.5594 41.5256 21.572 40.8173 21.572C40.3113 21.572 39.9066 21.7112 39.6536 21.9643C39.4386 22.1793 39.3374 22.483 39.3374 22.8626C39.3627 23.9254 40.2734 24.0772 40.8173 24.0772C42.1707 24.0772 43.5241 24.0772 44.9281 24.0772H47.6728L47.1542 24.6086C43.9162 27.9614 38.9579 29.8592 33.5063 29.8592C33.3672 29.8592 33.2407 29.8592 33.1016 29.8592C27.7385 29.7707 22.8056 27.7969 19.909 24.5959L19.4284 24.0645H22.034C23.4759 24.0645 24.8926 24.0645 26.3092 24.0645C26.7519 24.0645 27.1314 23.9127 27.3717 23.647C27.5994 23.394 27.7006 23.065 27.6626 22.6728C27.5994 21.9896 27.0808 21.5594 26.2966 21.5594H25.1456C22.7929 21.5594 20.3517 21.5467 17.9611 21.572C17.1516 21.572 16.5824 21.3316 16.1903 20.8129H16.1776ZM18.2773 34.3508C18.037 32.8072 18.0244 31.2636 18.0117 29.6189C18.0117 28.8597 17.9991 28.0753 17.9611 27.2782L17.9358 26.5317L18.4924 27.0378C26.3978 34.161 40.6149 34.2243 48.3179 27.1517L48.7733 26.7341L48.8745 27.5692C48.8998 27.7337 48.9124 27.8728 48.9124 28.012C48.9124 28.5814 48.9124 29.1507 48.9124 29.7327C48.9124 31.6812 48.9377 33.7055 48.4444 35.6793C46.7621 42.4862 40.4884 47.332 33.5569 47.332C33.1775 47.332 32.7854 47.3193 32.4059 47.2814C25.0697 46.712 19.3904 41.5246 18.2773 34.3634V34.3508ZM22.7423 56.0873C23.5645 55.809 24.3487 55.5433 25.1456 55.3155C25.4744 55.2143 25.9045 55.3408 26.1322 55.5053C27.3591 56.391 28.5733 57.3019 29.8509 58.2382L31.3434 59.3389L25.5503 63.6154L21.5027 56.4922L22.755 56.0746L22.7423 56.0873ZM17.1136 53.987L19.4916 58.1749L8.6011 61.7049L6.45082 57.517L17.1136 53.987ZM2.64357 74.2685C2.68152 72.3454 2.70682 70.359 2.82065 68.4106C2.93449 66.3609 3.47838 64.7161 4.51557 63.4003C4.71795 63.1472 4.94563 62.9068 5.18595 62.6665C5.29979 62.5526 5.42628 62.4261 5.55277 62.2869L5.85633 61.9706L6.84293 63.8558C7.34888 64.8173 7.85482 64.9945 8.98056 64.5769C11.7127 63.5648 14.5207 62.5779 17.2275 61.6163L20.7438 60.3637L20.8703 60.5915C21.1865 61.1355 21.4901 61.6669 21.7937 62.173C22.464 63.3117 23.0965 64.3745 23.653 65.5006C24.0198 66.2344 24.4752 66.6772 24.9685 66.7658C25.4491 66.8543 25.9677 66.6393 26.5243 66.1205C26.6128 66.0446 26.7013 65.994 26.8025 65.9307L27.3338 65.5891L27.4476 66.0066C27.5109 66.2217 27.5741 66.4495 27.6373 66.6646C27.9789 67.8665 28.3457 69.1064 27.7259 70.5361C27.1314 71.9279 26.6634 73.3955 26.1954 74.8252C25.993 75.4325 25.8033 76.0525 25.5883 76.6598C25.4618 77.0267 25.2973 77.5075 24.5764 77.5075H24.5637C22.2617 77.4822 19.9722 77.4949 17.6702 77.4822H15.0519C14.9634 77.4822 14.8875 77.4569 14.8116 77.4442L14.4195 77.3557V75.8248C14.4195 74.6608 14.4195 73.5094 14.4195 72.3454C14.4195 72.0291 14.4195 71.6875 14.3562 71.3965C14.2171 70.7512 13.7744 70.3843 13.0914 70.397C12.4589 70.397 12.0162 70.7765 11.9024 71.3838C11.8265 71.7507 11.8265 72.1683 11.8265 72.5605V72.7376C11.8265 73.7625 11.8265 74.7873 11.8265 75.8374V77.4442H2.68152L2.63092 76.9888C2.61827 76.8369 2.59298 76.6851 2.59298 76.5333C2.60563 75.7868 2.61827 75.0403 2.63092 74.2938L2.64357 74.2685Z" fill="#353535"/>
</svg>
