<svg width="53" height="53" viewBox="0 0 53 53" fill="none" xmlns="http://www.w3.org/2000/svg">
<g clip-path="url(#clip0_388_31)">
<path d="M47.4073 53.0002H5.59007C5.5123 52.9678 5.43842 52.9185 5.35806 52.9042C3.37374 52.5503 1.84953 51.5002 0.873569 49.7539C0.470483 49.0344 0.283845 48.1944 0 47.41C0 33.4697 0 19.5306 0 5.5903C0.0298102 5.52937 0.0751736 5.47233 0.0868385 5.4088C0.702485 2.14962 3.26228 0.00275701 6.55177 0.00275701C19.886 0.000164178 33.2216 -0.00113224 46.5558 0.00405342C50.133 0.00534983 52.9935 2.86524 52.9948 6.44334C53 19.8133 53.0039 33.1832 52.9896 46.5531C52.987 48.9657 51.91 50.8442 49.8388 52.068C49.1013 52.5036 48.2213 52.6968 47.4073 53.0015V53.0002ZM51.3241 26.5002C51.3241 19.9636 51.3241 13.4258 51.3241 6.88931C51.3241 5.69272 51.0831 4.56873 50.3339 3.59382C49.2711 2.21055 47.8273 1.67383 46.1346 1.67383C37.1137 1.67383 28.0942 1.67383 19.0734 1.67383C14.9855 1.67383 10.8976 1.66735 6.81099 1.67643C4.7502 1.68032 3.14952 2.50224 2.18003 4.38334C1.77565 5.16897 1.67715 6.0233 1.67585 6.88801C1.66937 11.183 1.67326 15.478 1.67326 19.7718C1.67326 28.5511 1.67326 37.3304 1.67326 46.1097C1.67326 47.3063 1.91433 48.4303 2.66348 49.4052C3.72628 50.7885 5.17013 51.3252 6.86283 51.3252C15.9524 51.3252 25.0419 51.3252 34.1314 51.3252C38.1506 51.3252 42.1685 51.3317 46.1877 51.3226C48.2485 51.3174 49.8479 50.4955 50.8187 48.6144C51.2243 47.8275 51.3216 46.9744 51.3228 46.1097C51.328 39.5732 51.3254 33.0354 51.3254 26.4989L51.3241 26.5002Z" fill="#353535"/>
<path d="M26.4805 4.45448C32.2067 4.45448 37.9328 4.45188 43.6603 4.45577C45.5189 4.45707 46.8759 5.50068 47.3308 7.25862C47.3645 7.39085 47.3969 7.52957 47.3969 7.6644C47.4008 9.44048 47.4436 11.2192 47.3853 12.9927C47.3334 14.5847 45.8092 16.095 44.215 16.1352C41.8704 16.1935 39.5244 16.1792 37.1798 16.1818C36.533 16.1818 36.1481 15.837 36.1559 15.3327C36.1637 14.8297 36.568 14.4978 37.1979 14.4965C39.3197 14.4926 41.4414 14.4965 43.5631 14.4939C44.9693 14.4939 45.7379 13.729 45.7457 12.3224C45.7509 11.1155 45.7457 9.90719 45.7457 8.70023C45.7457 6.76469 45.121 6.145 43.1665 6.145C38.7338 6.145 34.3012 6.145 29.8685 6.145C23.1249 6.145 16.38 6.1437 9.63645 6.15019C9.27872 6.15019 8.90545 6.16834 8.56457 6.26816C7.75192 6.5054 7.26718 7.21973 7.25551 8.17C7.23996 9.60124 7.23478 11.0338 7.25551 12.465C7.27366 13.7329 8.07983 14.4926 9.36815 14.4926C17.1992 14.4939 25.0302 14.4926 32.8599 14.4926C33.0323 14.4926 33.206 14.4822 33.3771 14.503C33.8229 14.5548 34.1469 14.9075 34.1508 15.3301C34.156 15.7644 33.8592 16.0937 33.3926 16.1572C33.2228 16.1805 33.0491 16.1831 32.8768 16.1831C25.0976 16.1831 17.3184 16.165 9.54053 16.1961C7.28921 16.2052 5.99312 14.8478 5.6678 13.3803C5.63799 13.2468 5.6004 13.1106 5.6004 12.9745C5.59651 11.1984 5.54985 9.41974 5.61206 7.64625C5.67168 5.91553 7.29569 4.483 9.14522 4.45707C10.8185 4.43373 12.4917 4.45059 14.165 4.45059C18.2697 4.45059 22.3758 4.45059 26.4805 4.45059V4.45448Z" fill="#353535"/>
<path d="M47.4164 32.6593C47.4164 36.0572 47.4242 39.4564 47.4125 42.8543C47.406 44.5513 46.4651 45.7868 44.889 46.2055C44.6428 46.2717 44.3797 46.3015 44.123 46.3015C41.9676 46.3002 39.8096 46.3391 37.6568 46.2626C35.955 46.2017 34.69 44.8469 34.5837 43.146C34.5734 42.9736 34.576 42.8012 34.576 42.6287C34.576 35.9704 34.576 29.3107 34.576 22.6523C34.576 20.3291 35.9498 18.9523 38.2698 18.951C40.1155 18.9497 41.9624 18.9783 43.8068 18.9433C45.9363 18.9031 47.4682 20.4847 47.432 22.568C47.3736 25.9309 47.4164 29.2951 47.4164 32.6593ZM36.2752 32.6075C36.2752 35.9704 36.27 39.3333 36.2777 42.6974C36.2803 43.9939 36.9064 44.6187 38.1675 44.6187C39.995 44.62 41.825 44.5695 43.6512 44.6343C45.1625 44.6874 45.7665 43.7644 45.76 42.5276C45.7302 36.5252 45.747 30.5241 45.747 24.5217C45.747 23.8152 45.7613 23.1073 45.7431 22.4008C45.7172 21.3792 45.1042 20.696 44.1282 20.683C42.0415 20.6558 39.9548 20.6545 37.8681 20.6947C37.5077 20.7012 37.1072 20.9034 36.804 21.1238C36.3127 21.4803 36.2739 22.0559 36.2739 22.6212C36.2752 25.9504 36.2739 29.2783 36.2739 32.6075H36.2752Z" fill="#353535"/>
<path d="M11.9552 31.7816C10.8691 31.7816 9.78163 31.814 8.69809 31.7738C6.98336 31.7103 5.62245 30.3205 5.59653 28.5898C5.56543 26.4871 5.56543 24.383 5.59135 22.2802C5.61468 20.4134 6.97817 19.008 8.85362 18.9653C10.939 18.9173 13.0258 18.9199 15.1112 18.9627C17.019 19.0016 18.402 20.4484 18.4188 22.358C18.4357 24.3752 18.4357 26.3924 18.4188 28.4096C18.4033 30.3154 17.0657 31.7077 15.163 31.7816C14.0963 31.8231 13.0258 31.7894 11.9565 31.7894V31.7803L11.9552 31.7816ZM12.0044 20.6662C11.0401 20.6662 10.0745 20.6584 9.11025 20.6687C7.90099 20.6804 7.25942 21.3183 7.25424 22.52C7.24646 24.4322 7.24646 26.3457 7.25424 28.258C7.25942 29.4507 7.92951 30.1183 9.11414 30.1222C11.0272 30.1274 12.9389 30.1274 14.852 30.1222C16.0379 30.1196 16.7041 29.5012 16.717 28.3293C16.7391 26.3652 16.7378 24.4011 16.717 22.4371C16.7041 21.2716 16.0781 20.6817 14.8999 20.6687C13.9356 20.6584 12.97 20.6662 12.0057 20.6662H12.0044Z" fill="#353535"/>
<path d="M5.58103 39.8997C5.58103 38.9002 5.56937 37.8994 5.58362 36.8998C5.61214 34.8904 6.97693 33.4903 8.99625 33.4566C10.9961 33.4228 12.996 33.4216 14.9959 33.4566C17.0256 33.4916 18.4111 34.9319 18.4202 36.9556C18.4279 38.8691 18.4241 40.7826 18.4215 42.6961C18.4189 44.8235 17.1759 46.2275 15.0698 46.2923C12.9001 46.3585 10.7265 46.3248 8.55687 46.2586C6.98859 46.2107 5.64584 44.7846 5.60047 43.2095C5.56807 42.1075 5.59399 41.003 5.59399 39.8997H5.58233H5.58103ZM12.0213 35.1743C11.0052 35.1743 9.98776 35.1639 8.97162 35.1769C7.95548 35.1899 7.27373 35.8303 7.26077 36.8506C7.23485 38.8665 7.23615 40.8824 7.26077 42.8983C7.27244 43.9627 7.97752 44.6135 9.0455 44.6161C11.0104 44.62 12.974 44.62 14.9389 44.6161C16.0029 44.6135 16.6912 44.0094 16.708 42.9541C16.7417 40.9045 16.743 38.8522 16.7067 36.8026C16.6886 35.759 16.0315 35.186 14.97 35.1756C13.9875 35.1652 13.0051 35.173 12.0239 35.1743H12.0213Z" fill="#353535"/>
<path d="M26.4806 31.7855C25.4113 31.7855 24.342 31.8192 23.2754 31.7777C21.4388 31.7051 20.0986 30.2998 20.0857 28.4563C20.0727 26.4222 20.074 24.3881 20.0857 22.3528C20.096 20.4457 21.4751 19.0015 23.3894 18.9626C25.4567 18.9199 27.5278 18.9225 29.5951 18.9626C31.5328 18.9989 32.9066 20.447 32.9144 22.3917C32.9235 24.392 32.9235 26.3911 32.9144 28.3915C32.9066 30.3218 31.5743 31.7142 29.6353 31.7881C28.5855 31.8283 27.533 31.7945 26.4806 31.7945C26.4806 31.792 26.4806 31.7894 26.4806 31.7868V31.7855ZM26.4974 20.6674C25.5332 20.6674 24.5676 20.6596 23.6033 20.67C22.4122 20.683 21.7745 21.3001 21.7641 22.4824C21.7485 24.4115 21.7498 26.3418 21.7641 28.2722C21.7719 29.4688 22.4433 30.1209 23.6331 30.1248C25.5461 30.13 27.4579 30.13 29.3709 30.1248C30.5581 30.1222 31.2282 29.4662 31.236 28.2683C31.2489 26.3561 31.2463 24.4426 31.236 22.5304C31.2295 21.3053 30.6074 20.683 29.3916 20.67C28.4273 20.6596 27.4617 20.6674 26.4974 20.6674Z" fill="#353535"/>
<path d="M20.0817 39.8764C20.0817 38.9105 20.0791 37.946 20.0817 36.9802C20.0882 34.9163 21.4634 33.4863 23.5241 33.4552C25.5059 33.4267 27.4902 33.4267 29.4719 33.4552C31.5327 33.485 32.9105 34.9163 32.9144 36.9802C32.9183 38.8937 32.917 40.8072 32.9144 42.7207C32.9131 44.8403 31.6585 46.2366 29.5484 46.2962C27.3956 46.3571 25.2389 46.3299 23.0861 46.2599C21.4569 46.2068 20.1323 44.7781 20.0895 43.1343C20.061 42.0492 20.0843 40.9628 20.0843 39.8764H20.0804H20.0817ZM26.5026 35.1743C25.5201 35.1743 24.5377 35.1678 23.5553 35.1756C22.4302 35.1846 21.777 35.8004 21.7653 36.9257C21.7433 38.9066 21.7407 40.8889 21.7666 42.8711C21.7809 43.9808 22.4678 44.6148 23.5721 44.6174C25.5188 44.6212 27.4669 44.6199 29.4136 44.6174C30.5036 44.6161 31.2048 44.0067 31.223 42.932C31.258 40.8992 31.2593 38.8652 31.223 36.8324C31.2035 35.7706 30.5296 35.1859 29.4486 35.1769C28.4662 35.1678 27.4837 35.1756 26.5013 35.1756L26.5026 35.1743Z" fill="#353535"/>
<path d="M41.015 33.4487C41.6864 33.4487 42.3564 33.4409 43.0278 33.4513C43.6603 33.4604 44.0621 33.7858 44.0815 34.2836C44.1023 34.7944 43.6836 35.1652 43.0304 35.1704C41.6708 35.182 40.3125 35.1833 38.9529 35.1704C38.3256 35.1639 37.9238 34.81 37.9225 34.3134C37.9212 33.813 38.323 33.4643 38.9503 33.4526C39.6385 33.4396 40.3268 33.45 41.015 33.45V33.4487Z" fill="#353535"/>
<path d="M40.9373 31.7985C40.2491 31.7985 39.5608 31.8101 38.8739 31.7946C38.2816 31.7816 37.9083 31.4277 37.929 30.935C37.9498 30.458 38.3218 30.1287 38.8778 30.1261C40.2879 30.1196 41.6981 30.1196 43.1082 30.1261C43.6954 30.1287 44.0829 30.4722 44.0829 30.9649C44.0829 31.4575 43.7096 31.7868 43.1057 31.7972C42.3837 31.8101 41.6605 31.7997 40.9386 31.7997L40.9373 31.7985Z" fill="#353535"/>
<path d="M11.1555 26.2343C10.6902 26.2343 10.3144 26.2446 9.9385 26.2317C9.29434 26.2096 8.91069 25.8816 8.91458 25.3786C8.91847 24.8743 9.31896 24.5463 9.94887 24.5373C10.326 24.5321 10.7019 24.5373 11.1529 24.5373C11.1529 24.0952 11.1426 23.6881 11.1555 23.281C11.175 22.673 11.4951 22.3191 12.0006 22.3243C12.5087 22.3282 12.8236 22.6925 12.8327 23.294C12.8392 23.6868 12.8327 24.0796 12.8327 24.5373C13.2747 24.5373 13.6816 24.5308 14.0886 24.5386C14.6757 24.5502 15.0659 24.8899 15.0684 25.3799C15.071 25.8531 14.7198 26.1928 14.1495 26.2252C13.7244 26.2485 13.298 26.2304 12.8327 26.2304C12.8327 26.71 12.8405 27.121 12.8314 27.532C12.8184 28.0868 12.4814 28.4563 12.0006 28.4602C11.5197 28.4641 11.1815 28.1102 11.1581 27.5449C11.1413 27.1353 11.1542 26.7243 11.1542 26.2343H11.1555Z" fill="#353535"/>
<path d="M12.02 41.0004C11.6311 41.4126 11.3616 41.7276 11.0609 42.0103C10.6383 42.407 10.173 42.4121 9.8205 42.0595C9.4874 41.725 9.49648 41.2169 9.87364 40.8137C10.1549 40.5129 10.4685 40.2419 10.8561 39.8725C10.5191 39.5665 10.2041 39.3072 9.9216 39.0168C9.49777 38.5812 9.46796 38.0912 9.81013 37.736C10.1704 37.3626 10.6694 37.3885 11.1296 37.8267C11.4121 38.0964 11.6726 38.3907 12.0018 38.7355C12.3375 38.379 12.6045 38.0666 12.9026 37.7852C13.3316 37.3808 13.8384 37.3756 14.1832 37.7438C14.502 38.0834 14.4774 38.5864 14.0847 38.9857C13.7969 39.2787 13.4729 39.5354 13.0789 39.8841C13.4833 40.2432 13.8099 40.4986 14.0937 40.7942C14.4955 41.213 14.5007 41.7432 14.1456 42.0764C13.7827 42.4173 13.3329 42.4044 12.9052 41.9934C12.6084 41.7095 12.3557 41.3802 12.02 41.0004Z" fill="#353535"/>
<path d="M26.5519 24.5372C27.2401 24.5372 27.9284 24.5294 28.6166 24.5398C29.1726 24.5476 29.5511 24.8769 29.5783 25.3475C29.6055 25.8077 29.2413 26.2109 28.6905 26.2187C27.2285 26.242 25.7665 26.242 24.3045 26.2187C23.7549 26.2096 23.3907 25.8038 23.4205 25.3436C23.4503 24.873 23.8288 24.5476 24.3861 24.5398C25.108 24.5294 25.8313 24.5372 26.5532 24.5372H26.5519Z" fill="#353535"/>
<path d="M26.526 39.0324C27.1973 39.0324 27.8687 39.0259 28.5388 39.0337C29.1648 39.0415 29.5705 39.3772 29.5809 39.8764C29.5899 40.3651 29.1881 40.7372 28.5634 40.745C27.187 40.7618 25.8105 40.7618 24.4341 40.745C23.8106 40.7372 23.4076 40.3638 23.4179 39.8738C23.4283 39.3734 23.834 39.0389 24.4613 39.0324C25.1495 39.0246 25.8377 39.0311 26.526 39.0311V39.0324Z" fill="#353535"/>
<path d="M27.6237 42.1335C27.6147 42.7169 27.0638 43.2575 26.4884 43.2484C25.9038 43.2394 25.3672 42.6923 25.3737 42.1115C25.3815 41.5229 25.922 40.9927 26.5104 41.0005C27.0988 41.0082 27.6328 41.5514 27.625 42.1335H27.6237Z" fill="#353535"/>
<path d="M27.625 37.6595C27.6237 38.2429 27.0819 38.7822 26.4987 38.7809C25.9141 38.7809 25.3737 38.2403 25.3737 37.657C25.3737 37.0593 25.896 36.5433 26.5 36.5433C27.1052 36.5433 27.6263 37.0619 27.625 37.6595Z" fill="#353535"/>
</g>
<defs>
<clipPath id="clip0_388_31">
<rect width="53" height="53" fill="white"/>
</clipPath>
</defs>
</svg>
