<svg width="13" height="13" viewBox="0 0 13 13" fill="none" xmlns="http://www.w3.org/2000/svg">
<path d="M2.72823 1.44509C2.72805 1.82816 2.58415 2.19546 2.32821 2.46619C2.07226 2.73693 1.72522 2.88892 1.36343 2.88873C1.00165 2.88854 0.65475 2.73618 0.399057 2.46517C0.143364 2.19417 -0.000180722 1.82671 1.70761e-07 1.44364C0.000181063 1.06057 0.144073 0.693269 0.400022 0.422534C0.655971 0.151798 1.00301 -0.000191354 1.3648 1.80807e-07C1.72658 0.000191715 2.07348 0.152549 2.32917 0.423555C2.58486 0.694562 2.72841 1.06202 2.72823 1.44509ZM2.76915 3.95828H0.0409235V13H2.76915V3.95828ZM7.07975 3.95828H4.36516V13H7.05247V8.25526C7.05247 5.61208 10.3059 5.36654 10.3059 8.25526V13H13V7.2731C13 2.81723 8.18468 2.98333 7.05247 5.17155L7.07975 3.95828Z" fill="white"/>
</svg>
