<?xml version="1.0" encoding="UTF-8"?>
<svg id="Layer_1" xmlns="http://www.w3.org/2000/svg" version="1.1" viewBox="0 0 875.8 113.7">
  <!-- Generator: Adobe Illustrator 29.1.0, SVG Export Plug-In . SVG Version: 2.1.0 Build 142)  -->
  <g id="Layer_3">
    <g>
      <g>
        <g>
          <path d="M60.4,3v84.4c0,16.5-12.1,28.4-33.4,26-1.6-.2-1.2-2.4.4-2.5,8.4-.4,13.7-5.8,13.7-19.3V19.8c0-9.8,7.2-17.9,16.7-19.1,1.4-.2,2.6.9,2.6,2.3h0Z"/>
          <path d="M75.6.7c-1.4-.2-2.6.9-2.6,2.3v106.9c0,1.6,1.4,2.7,2.9,2.5,9.3-1.4,16.4-9.4,16.4-19.1V19.8c0-9.8-7.3-17.9-16.7-19.1h0Z"/>
          <path d="M31.1,57.4c-11.9,1.1-11.8-9.4-11.8-14.1v-22.8C19.3,5.8,9.5,2.4,3.8,1.6,1.8,1.3,0,2.9,0,4.9v34.1c0,13.1,14,26.6,31.4,20.8,1.6-.5,1.3-2.7-.3-2.5h0Z"/>
          <path d="M120.2,49.3c10.8-2.1,19.7-12.3,16.6-26.9C132.2,1,104.3,0,101,0c-1.3,0-2.1.3-2.1,1.3s.8,1.1,2,1.5c11.6,3.9,16.5,12.5,16.4,23.5,0,11.8-5.1,18.3-13.1,21.4-1.6.6-4,.8-4,2.2s1.6,1.1,4.4,1.8c7.5,1.8,22.1,10.6,21.6,27.4-.7,20.4-15.3,25.9-25.3,29.9-1,.4-1.7.6-1.7,1.6,0,1,.8,1.3,2,1.5,3.2.5,42.8,4.6,46.2-30.2,2-20.5-15.3-30.8-27.3-32.5h0Z"/>
        </g>
        <circle cx="11.1" cy="91.6" r="11.1"/>
      </g>
      <g>
        <g>
          <path d="M236.1,52.9c10.3-2.3,16.3-8,16.3-15.8s-4.9-16-28-16h-35.5v2.5h.7c6.5,0,7.2,3.4,7.2,10.5v41.2c0,7.1-.7,10.5-7.2,10.5h-.7v2.5h37.1c27.8,0,30.8-12.2,30.8-17.5,0-11-10.3-16.3-20.6-17.9h0ZM214.4,55.6h6.8c10.8,0,16.9,5.4,16.9,14.7s-6,14.2-16.5,14.2-7.2-3.3-7.2-5.1v-23.8h0ZM220.9,51.3h-6.5v-23.6c0-1.7,1.2-2.6,3.5-2.6h2.5c9.5,0,14.5,4.7,14.5,13.6s-4.9,12.6-14.1,12.6Z"/>
          <path d="M291,38.5c-17.2,0-28.7,10.3-28.7,25.6s11.2,25.3,28.5,25.3,28.7-10.3,28.7-25.6-11.2-25.3-28.5-25.3ZM291,85.7c-9.6,0-11-13.6-11-21.7,0-14.4,3.6-21.7,10.8-21.7s11,13.6,11,21.7c0,14.4-3.6,21.7-10.8,21.7Z"/>
          <path d="M378.5,77.7v-24.4c0-9.5-5.3-14.8-15-14.8s-13.3,2.5-19.4,6.8v-6.6h-1.6l-20.9,3.7v2.2h.5c3.5,1.2,5.1,2.5,5.1,8v25.1c0,6.3-.5,8.2-4.2,8.2h-.7v2.5h26.5v-2.5h-.7c-3.6,0-4.2-1.8-4.2-8.2v-28.1c3.1-1.6,6.9-2.6,9.8-2.6,6.5,0,7.8,3.3,7.8,9.5v21.1c0,6.3-.5,8.2-4.2,8.2h-.7v2.5h26.5v-2.5h-.7c-3.6,0-4.2-1.8-4.2-8.2h0Z"/>
          <path d="M434.8,74.8c-4.2,4.2-8.8,6.2-13.8,6.2-10.6,0-16-7.1-16.2-21.2h33v-.6c.5-5.8-1.1-10.8-4.4-14.4-3.8-4.1-9.8-6.3-17.2-6.3-16.2,0-28.5,11.3-28.5,26.3s8,24.6,25.8,24.6,20.3-7.3,24.3-12.8l.5-.7-3.2-1.6-.3.4h0ZM422.9,55.7h-17.9c.4-4.6,2.4-13.4,10.8-13.4s4,.6,5.2,1.9c1.8,1.9,2.4,5.6,1.9,11.6h0Z"/>
          <path d="M481.9,78.6c-3,2.1-5.8,3-8.4,3-4.7,0-7-2.1-7-6.4v-29.9h15.3l2.5-5.8h-17.8v-13.5h-2.4l-.2.3c-5.1,7.5-10,11.4-18,14.5l-2,.8v3.7h5.7v30.6c0,8.9,5,13.4,14.9,13.4s14.4-3.2,19.9-8.3l.6-.5-2.6-2.3-.4.3h0Z"/>
        </g>
        <g>
          <path d="M564.9,75.4l-24.7-55.5-.2-.4h-3.7l-21.5,48.7c-4.7,10.6-7.7,16.2-11.2,17.3h-.5v2.4h20.3v-2.4h-.6c-2.6-.5-4.2-1.5-5.1-3.1-1.4-2.6-.7-6.9,2.1-13.2l.7-1.6h22.2l4.6,10.7c.9,2.1,1,3.8.3,4.9-.8,1.3-2.9,2.1-6.1,2.2h-.7v2.5h34v-2.4h-.6c-4.1-.4-6.2-2.6-9.5-10.1h0ZM540.8,62.9h-18.2l9.2-20.9,9,20.9h0Z"/>
          <path d="M616.1,41.5v-2.4h-17.6v2.4h.6c1.9.3,3.2,1,3.8,2.1,1,1.9.5,5.2-1.6,9.8l-6.9,15.3-9.6-20.9c-1.1-2.4-1.4-4-.9-4.9.4-.8,1.6-1.2,3.4-1.3h.6v-2.5h-28v2.4h.6c3.3.6,4.8,3,8,9.4l18.4,38.5h3.1l15.8-34.7c4-9,6.7-12.7,9.6-13.1h.6c0-.1,0-.1,0-.1Z"/>
          <path d="M642.8,38.1c-17.2,0-28.7,10.3-28.7,25.6s11.2,25.3,28.5,25.3,28.7-10.3,28.7-25.6-11.2-25.3-28.5-25.3ZM642.8,85.3c-9.6,0-11-13.6-11-21.7,0-14.4,3.6-21.7,10.8-21.7s11,13.6,11,21.7c0,14.4-3.6,21.7-10.8,21.7Z"/>
          <path d="M725.4,74c-2.9,3-7,6.4-13.7,6.4-9.9,0-15.5-7.6-15.5-20.9s4.1-17.6,11.4-17.6,9,4.9,10.8,12.2v.5h2.3l7-8.4-.5-.4c-4.8-4.8-12.2-7.6-19.7-7.6-16.5,0-28.5,11.1-28.5,26.3s8,24.6,25.7,24.6,19.3-7,23.6-13.1l.5-.7-3.2-1.6-.3.4h0Z"/>
          <path d="M784.2,80.1c-.4.4-1.6,1.2-3.3,1.2s-2.5-1.4-2.5-5v-21.6c0-10.4-7.1-16.6-19-16.6s-21.6,5.5-24.9,14l-.3.7,3.4,1.1.3-.4c3.3-5,8.6-7.9,14.4-7.9,9.6,0,9.6,7.6,9.6,10.1v4.7l-9.5,2.2c-13,3-19.6,8.3-19.6,15.9s5.5,10.6,13.6,10.6,12.4-2.3,16.6-6c1.2,4,4.4,6,9.5,6,7.9,0,12.6-4.7,14.2-6.8l.5-.6-2.5-1.9-.4.4h0ZM761.9,64.2v15.1c-2.1,1.4-4.6,2.3-6.9,2.3-4,0-6.4-2.5-6.4-6.7,0-6.1,4.4-7.9,9.7-9.6l3.6-1.1h0Z"/>
          <path d="M825.5,78.1c-3,2.1-5.8,3-8.4,3-4.7,0-7-2.1-7-6.4v-29.9h15.3l2.5-5.8h-17.8v-13.5h-2.4l-.2.3c-5.1,7.5-10,11.4-18,14.5l-2,.8v3.7h5.7v30.6c0,8.9,5,13.4,14.9,13.4s14.4-3.2,19.9-8.3l.6-.5-2.6-2.3-.4.3h0Z"/>
          <path d="M861,57.5l-5.3-2.3c-3.4-1.4-8.1-3.4-8.1-7.9s3.2-5.4,8-5.4,10.8,3.3,14.8,10.5l.2.4h2.4v-12.1h-.5c-4.7-1.6-11.6-2.4-16-2.4-12.6,0-21.1,6.2-21.1,15.3s8,12.6,12.8,14.6l4.3,1.9c7.7,3.3,11,5.2,11,9.1s-4.8,6.2-9.5,6.2c-7.9,0-12.3-4.7-17.4-12.9l-.2-.3h-2.5l1.1,14.3h.4c4,1.6,10.8,2.6,16.7,2.6,14.3,0,23.5-6.4,23.5-16.2s-7.5-12.1-14.8-15.2h0Z"/>
        </g>
      </g>
    </g>
  </g>
</svg>