<?xml version="1.0" encoding="UTF-8"?>
<svg id="Layer_1" xmlns="http://www.w3.org/2000/svg" version="1.1" viewBox="0 0 789.4 217.1">
  <!-- Generator: Adobe Illustrator 29.1.0, SVG Export Plug-In . SVG Version: 2.1.0 Build 142)  -->
  <g id="Layer_3">
    <g>
      <g>
        <g>
          <path d="M115.8,5.7v161c0,31.6-23.1,54.5-63.9,49.8-3.1-.4-2.2-4.6.8-4.8,16.1-.8,26.2-11.1,26.2-37V37.9c0-18.7,13.9-34.2,31.9-36.6,2.6-.4,5,1.7,5,4.4h0Z"/>
          <path d="M144.9,1.3c-2.6-.4-5,1.7-5,4.4v204.8c0,3,2.7,5.2,5.6,4.8,17.8-2.7,31.4-18,31.4-36.6V38c0-18.7-13.9-34.2-32-36.7h0Z"/>
          <path d="M59.7,109.9c-22.8,2-22.7-18-22.7-27.1v-43.7C36.9,11.2,18.1,4.6,7.4,3.1,3.5,2.5,0,5.5,0,9.5v65.4c0,25,26.8,51.1,60.2,39.9,3-1,2.4-5.1-.6-4.8Z"/>
          <path d="M230.3,94.5c20.7-4.1,37.8-23.5,31.8-51.5C253.3,2,199.8,0,193.6,0c-2.6,0-3.9.6-4,2.4s1.6,2.2,3.8,2.9c22.3,7.4,31.6,23.9,31.5,45.1-.1,22.6-9.7,35.1-25.1,41-3,1.2-7.6,1.6-7.6,4.3s3.1,2.2,8.4,3.5c14.5,3.5,42.4,20.3,41.3,52.4-1.4,39.1-29.3,49.6-48.5,57.2-1.9.8-3.3,1.1-3.3,3s1.6,2.5,3.8,2.8c6.2,1,82,8.8,88.6-57.8,3.9-39.3-29.3-58.9-52.2-62.3h0Z"/>
        </g>
        <circle cx="21.2" cy="175.6" r="21.2"/>
      </g>
      <g>
        <g>
          <path d="M385.4,56.1c12.8-2.8,20.2-9.9,20.2-19.6s-6-19.8-34.8-19.8h-44.1v3.1h.9c8.1,0,9,4.2,9,13.1v51.2c0,8.9-.9,13.1-9,13.1h-.9v3.1h46c34.5,0,38.2-15.2,38.2-21.7,0-13.6-12.8-20.3-25.6-22.3h0ZM358.5,59.4h8.5c13.4,0,21,6.6,21,18.2s-7.5,17.7-20.5,17.7-9-4.1-9-6.3v-29.6h0ZM366.5,54.1h-8v-29.3c0-2.1,1.5-3.2,4.3-3.2h3.1c11.8,0,18,5.8,18,16.9s-6,15.6-17.5,15.6h0Z"/>
          <path d="M453.6,38.2c-21.3,0-35.7,12.8-35.7,31.8s13.9,31.4,35.4,31.4,35.7-12.8,35.7-31.8-13.9-31.4-35.4-31.4h0ZM453.6,96.8c-11.9,0-13.7-16.9-13.7-27,0-17.9,4.5-27,13.4-27s13.7,16.9,13.7,27c0,17.9-4.5,27-13.4,27Z"/>
          <path d="M562.2,86.9v-30.3c0-11.9-6.6-18.4-18.7-18.4s-16.5,3.1-24.1,8.5v-8.2h-2l-25.9,4.6v2.7l.6.2c4.4,1.3,6.4,3,6.4,9.7v31.2c0,7.9-.7,10.1-5.2,10.1h-.9v3.1h33v-3.1h-.9c-4.5,0-5.2-2.3-5.2-10.1v-34.8c3.8-2,8.5-3.2,12.2-3.2,8.1,0,9.7,4.1,9.7,11.8v26.3c0,7.9-.7,10.1-5.2,10.1h-.9v3.1h33v-3.1h-.9c-4.5,0-5.2-2.3-5.2-10.1h0Z"/>
          <path d="M632.2,83.3c-5.3,5.2-10.9,7.7-17.2,7.7-13.1,0-19.9-8.9-20.1-26.3h41v-.8c.6-7.2-1.3-13.4-5.5-17.8-4.7-5.1-12.1-7.8-21.3-7.8-20.2,0-35.4,14-35.4,32.6s9.9,30.6,32.1,30.6,25.2-9,30.1-15.9l.6-.8-3.9-2-.4.4h0ZM617.4,59.6h-22.2c.5-5.7,2.9-16.7,13.4-16.7s5,.8,6.4,2.3c2.2,2.4,3,7,2.4,14.4h0Z"/>
          <path d="M690.7,88c-3.8,2.5-7.2,3.8-10.5,3.8-5.8,0-8.7-2.7-8.7-7.9v-37.1h19l3.1-7.2h-22.1v-16.7h-3l-.3.4c-6.3,9.3-12.4,14.2-22.3,18l-2.5,1v4.6h7.1v38c0,11.1,6.2,16.7,18.5,16.7s17.9-4,24.7-10.3l.7-.6-3.3-2.9-.5.4h0Z"/>
        </g>
        <g>
          <path d="M403.3,183.9l-30.7-68.9-.2-.5h-4.5l-26.7,60.5c-5.8,13.2-9.5,20.2-14,21.5l-.6.2v2.9h25.3v-2.9h-.7c-3.2-.6-5.2-1.8-6.3-3.8-1.7-3.2-.9-8.6,2.6-16.5l.9-2h27.6l5.7,13.3c1.1,2.6,1.2,4.7.4,6-1,1.6-3.6,2.5-7.6,2.8h-.8v3.1h42.3v-3h-.8c-5-.5-7.7-3.3-11.7-12.6h0ZM373.4,168.5h-22.6l11.4-25.9,11.2,25.9Z"/>
          <path d="M466.9,141.9v-2.9h-21.9v3h.8c2.4.4,3.9,1.2,4.7,2.6,1.3,2.3.6,6.4-2,12.2l-8.5,19-12-26c-1.4-3-1.8-5-1.1-6.1.5-.9,2-1.5,4.2-1.7h.8v-3.1h-34.7v3h.7c4.1.7,6,3.8,9.9,11.6l22.8,47.9h3.8l19.7-43c5-11.1,8.4-15.7,12-16.3h.7c0-.1,0-.1,0-.1Z"/>
          <path d="M500,137.6c-21.3,0-35.7,12.8-35.7,31.8s13.9,31.4,35.4,31.4,35.7-12.8,35.7-31.8-13.9-31.4-35.4-31.4ZM500,196.2c-11.9,0-13.7-16.9-13.7-27,0-17.9,4.5-27,13.4-27s13.7,16.9,13.7,27c0,17.9-4.5,27-13.4,27Z"/>
          <path d="M602.6,182.2c-3.6,3.7-8.7,7.9-17,7.9-12.2,0-19.3-9.5-19.3-26s5-21.9,14.2-21.9,11.2,6.1,13.4,15.2l.2.7h2.7l8.7-10.5-.6-.6c-6-5.9-15.1-9.5-24.4-9.5-20.5,0-35.4,13.7-35.4,32.6s9.9,30.6,32,30.6,24-8.7,29.3-16.3l.6-.8-3.9-2-.4.5h0Z"/>
          <path d="M675.7,189.8c-.5.5-2,1.5-4.1,1.5s-3.1-1.8-3.1-6.2v-26.8c0-12.9-8.8-20.6-23.6-20.6s-26.8,6.8-30.9,17.4l-.3.9,4.2,1.4.4-.5c4.1-6.2,10.6-9.8,17.9-9.8,11.9,0,11.9,9.4,11.9,12.5v5.8l-11.8,2.8c-16.2,3.7-24.4,10.3-24.4,19.7s6.8,13.2,16.9,13.2,15.4-2.9,20.6-7.5c1.5,5,5.5,7.5,11.9,7.5,9.8,0,15.6-5.9,17.7-8.4l.6-.7-3.2-2.4-.5.4h0ZM648,170.1v18.7c-2.6,1.8-5.7,2.8-8.6,2.8-5,0-7.9-3.1-7.9-8.3,0-7.5,5.4-9.8,12-11.9l4.5-1.4h0Z"/>
          <path d="M727,187.4c-3.8,2.5-7.2,3.8-10.5,3.8-5.8,0-8.7-2.7-8.7-7.9v-37.1h19l3.1-7.2h-22.1v-16.7h-3l-.3.4c-6.3,9.3-12.4,14.2-22.3,18l-2.5,1v4.6h7.1v38c0,11.1,6.2,16.7,18.5,16.7s17.9-4,24.7-10.3l.7-.6-3.3-2.9-.5.4h0Z"/>
          <path d="M771.1,161.8l-6.6-2.9c-4.3-1.8-10.1-4.3-10.1-9.8s3.9-6.8,10-6.8,13.5,4.1,18.4,13l.2.4h3v-15.1l-.6-.2c-5.8-1.9-14.4-2.9-19.8-2.9-15.7,0-26.2,7.6-26.2,19s9.9,15.6,15.8,18.2l5.3,2.4c9.5,4.1,13.7,6.5,13.7,11.3s-5.9,7.7-11.7,7.7c-9.8,0-15.3-5.9-21.6-16l-.2-.4h-3l1.3,17.8.5.2c5,1.8,13.5,3.1,20.7,3.1,17.7,0,29.2-7.9,29.2-20.2s-9.3-15-18.3-18.9h0Z"/>
        </g>
      </g>
    </g>
  </g>
</svg>