<svg width="71" height="80" viewBox="0 0 71 80" fill="none" xmlns="http://www.w3.org/2000/svg">
<g clip-path="url(#clip0_283_70)">
<path d="M2.04643 80C0.474195 79.2863 -0.137229 78.0591 0.0249857 76.3687C0.0748978 75.8053 -0.0124484 75.2168 0.0748978 74.6533C0.299502 73.2759 1.28527 72.5121 3.11954 72.2867C3.11954 71.7107 3.11954 71.1097 3.11954 70.5212C3.18193 68.0294 5.04115 66.1762 7.53676 66.1261C8.72217 66.1011 9.92006 66.1261 11.2053 66.1261C11.2053 65.0618 11.2303 64.0601 11.1803 63.0584C11.1803 62.8956 10.9433 62.6952 10.7561 62.5951C9.27121 61.7937 8.535 60.5791 8.54748 58.8637C8.57244 53.8175 8.54748 48.7713 8.54748 43.7251C8.54748 43.4121 8.54748 43.1116 8.54748 42.6984C8.21057 42.6984 7.93606 42.6984 7.66154 42.6984C6.00196 42.6984 4.34238 42.7109 2.68281 42.6858C1.23535 42.6608 0.0374637 41.5213 0.0249857 40.0689C-0.0124484 37.264 -0.0249264 34.4467 0.0249857 31.6419C0.0499418 30.0642 1.33518 29.0124 3.10706 29.0124C7.62411 29.0124 12.1287 28.9873 16.6457 29.0249C17.3944 29.0249 17.8436 28.8621 18.2429 28.1609C18.6422 27.4597 19.2786 26.8712 19.8775 26.2952C20.2269 25.9571 20.3267 25.6691 20.1895 25.2058C19.603 23.1648 19.8651 21.249 21.0879 19.496C21.3499 19.1203 21.3874 18.8574 21.1253 18.4567C19.0415 15.2262 19.7028 11.6951 22.6227 9.22835C23.7832 8.23915 24.744 6.96195 25.6299 5.69728C27.015 3.7314 28.5997 2.02847 30.8208 1.00171C33.7157 -0.325574 36.6605 -0.200359 39.5928 0.826406C40.6784 1.21457 41.6517 1.18953 42.7498 0.826406C46.5431 -0.45079 50.2366 -0.325574 53.4809 2.25386C54.6912 3.21802 55.7269 4.48269 56.6378 5.75988C57.6485 7.1623 58.6717 8.48958 60.0318 9.57895C62.6023 11.6325 63.1763 15.3889 61.3795 18.1437C60.9677 18.7823 60.9926 19.183 61.3919 19.7965C62.4526 21.4243 62.7021 23.2149 62.1406 25.0931C61.9784 25.6315 62.0408 25.9571 62.49 26.3578C64.9482 28.5115 65.8965 31.2412 65.1229 34.4216C64.3368 37.6272 62.2529 39.6556 59.0336 40.4069C56.0014 41.1081 53.4933 40.0563 51.3846 37.8651C51.1225 37.5896 50.8854 37.2766 50.6109 36.9635C49.9496 37.5645 49.3007 38.1405 48.6768 38.7541C48.5396 38.8918 48.4772 39.1673 48.4647 39.3802C48.3898 41.0664 49.1302 42.2142 50.6858 42.8236C55.0032 44.5015 59.3206 46.1668 63.6255 47.8447C68.0303 49.5602 70.9376 53.7799 70.9501 58.5381C70.9751 64.3606 70.9127 70.1956 70.9751 76.0181C71 77.9715 70.3262 79.3238 68.467 80.025H43.5733C43.0742 79.5993 42.6998 79.111 42.9744 78.4223C43.2489 77.7085 43.8728 77.6835 44.5216 77.6835C49.0636 77.6835 53.5932 77.6835 58.1352 77.6835C58.4097 77.6835 58.6842 77.6835 58.9837 77.6835C58.9837 75.0915 58.9837 72.6248 58.9837 70.1455C58.9837 69.3692 59.4703 68.9059 60.1816 68.9184C60.8554 68.931 61.2921 69.3942 61.3046 70.133C61.3171 70.7841 61.3046 71.4353 61.3046 72.0864C61.3046 73.927 61.3046 75.7677 61.3046 77.5708C61.4294 77.6209 61.4793 77.6585 61.5167 77.6585C63.3635 77.6585 65.1977 77.671 67.0445 77.671C68.3796 77.671 68.5793 77.4706 68.5793 76.1434C68.5793 70.684 68.5793 65.2121 68.5793 59.7527C68.5793 58.9513 68.5543 58.1374 68.4545 57.336C68.2424 55.6331 67.581 54.118 66.5703 52.9034C65.4223 53.9803 64.2993 54.9695 63.2512 56.0463C62.1905 57.1357 61.5167 58.463 61.4169 59.9906C61.3171 61.4681 61.342 62.9457 61.3046 64.4357C61.2921 65.2622 60.8304 65.7881 60.1317 65.7881C59.4329 65.7881 58.9712 65.2622 58.9712 64.4232C58.9712 63.409 58.9962 62.3947 58.9712 61.3805C58.8714 58.4254 59.9071 55.9587 62.0034 53.8926C62.9267 52.9911 63.8002 52.0394 64.7735 51.0377C64.1745 50.7247 63.6879 50.4116 63.1763 50.1988C60.506 49.1344 57.8232 48.1077 55.1529 47.0559C54.7661 46.9056 54.5165 46.9432 54.2171 47.2562C53.2313 48.2955 52.2331 49.3097 51.1849 50.2864C50.8231 50.637 50.3489 51.0878 49.9122 51.1003C48.7891 51.1379 48.1777 51.8516 47.4914 52.5403C47.2169 52.8158 46.9174 53.1038 46.568 53.254C45.8693 53.5545 45.9192 53.9803 46.1188 54.6063C47.8158 60.0782 49.4629 65.5627 51.135 71.0471C51.5842 72.5372 51.16 73.639 49.8872 74.1274C46.2187 75.5548 42.4004 75.9806 38.5197 75.5173C36.5107 75.2794 34.5267 74.766 32.5552 74.3903V77.6459C34.4768 77.6459 36.3361 77.6459 38.1953 77.6459C38.8566 77.6459 39.4431 77.696 39.7301 78.4223C40.0171 79.161 39.5803 79.5868 39.0812 80H2.04643ZM24.744 38.1781C27.0025 38.2031 28.5622 37.1764 29.7851 35.4735C30.0721 35.0602 30.1095 34.7222 29.8724 34.2589C29.0489 32.581 28.6496 30.7904 28.6621 28.9247C28.6621 25.7192 28.6621 22.5262 28.6621 19.3207C28.6621 18.031 29.286 17.3799 30.5587 17.3799C33.1042 17.3924 35.5 16.7913 37.7086 15.5642C40.0545 14.2495 42.3006 14.262 44.6339 15.5642C46.7178 16.7287 48.9888 17.3298 51.3846 17.3799C52.9443 17.4049 53.5308 17.9809 53.5308 19.5586C53.5308 22.5012 53.5308 25.4437 53.5308 28.3863C53.5308 30.4148 53.1689 32.3556 52.3079 34.2088C52.2081 34.4342 52.1707 34.7723 52.2705 34.9976C53.2563 37.2265 56.1262 38.6539 58.4846 38.0905C60.7556 37.552 62.2654 36.1496 62.8144 33.8832C63.3635 31.6293 62.7271 29.6509 60.9303 28.1484C59.7324 27.1466 59.3455 25.9947 59.8571 24.4796C60.2814 23.2024 60.0318 21.9753 59.2832 20.8483C58.3099 19.3833 58.3099 18.5318 59.2832 17.0668C60.5559 15.1385 60.2564 12.7719 58.4596 11.332C56.9498 10.1299 55.7519 8.70244 54.7287 7.08717C51.996 2.76724 48.1153 1.4024 43.3487 3.13037C41.8513 3.66879 40.4663 3.68131 38.9814 3.13037C37.1471 2.44168 35.2255 2.17873 33.2665 2.66707C30.7709 3.29315 29.0239 4.88338 27.6888 6.98699C26.6531 8.62731 25.4552 10.0923 23.9329 11.3194C22.0362 12.8345 21.7617 15.126 23.1093 17.1545C23.9828 18.4567 23.9953 19.471 23.1093 20.7481C22.2733 21.9627 22.0362 23.265 22.5104 24.6674C22.9721 26.0448 22.5853 27.1592 21.4747 28.0607C21.1752 28.2986 20.9257 28.5991 20.5014 29.0249C20.9506 29.0249 21.1503 29.0249 21.3624 29.0249C23.7332 29.0499 24.744 30.0767 24.744 32.4683C24.744 34.334 24.744 36.2122 24.744 38.2031V38.1781ZM31.0454 19.8716C31.0454 19.9718 31.0079 20.1221 31.0079 20.2723C31.0079 23.2149 31.0079 26.1574 31.0079 29.1C31.0079 29.6885 31.0828 30.3021 31.2201 30.8781C32.2433 35.4484 35.5749 38.3534 40.2916 38.8417C45.7944 39.4052 50.873 35.0477 51.0601 29.4882C51.16 26.3954 51.0976 23.29 51.0976 20.1972C51.0976 20.0595 51.0352 19.9092 50.9977 19.7715C48.1528 19.6713 45.5698 18.8449 43.1241 17.5176C41.7765 16.7913 40.5037 16.854 39.1311 17.5176C37.6962 18.2063 36.1863 18.7948 34.664 19.2581C33.516 19.6087 32.2932 19.6838 31.0454 19.8967V19.8716ZM30.6461 72.4495C31.1078 70.8718 31.532 69.3316 31.9937 67.804C33.3413 63.3338 34.7014 58.8762 36.074 54.4185C36.2362 53.9051 36.1239 53.6672 35.6872 53.3667C34.9635 52.8658 34.352 52.2272 33.6782 51.6638C33.4786 51.501 33.2165 51.3132 32.9795 51.3007C32.1684 51.2756 31.5445 50.9125 30.9955 50.3615C29.9723 49.3348 28.9366 48.308 27.9259 47.2562C27.6389 46.9557 27.3893 46.8806 26.99 47.0433C24.3447 48.1077 21.6993 49.1219 19.054 50.1737C18.4925 50.3991 17.9809 50.7247 17.4443 51.0127L17.2821 51.3507C18.3926 52.365 19.5531 53.3291 20.6013 54.406C21.9988 55.8334 22.8972 57.5739 23.047 59.5899C23.1842 61.4807 23.1593 63.3839 23.1967 65.2747C23.1967 65.5501 23.1967 65.8131 23.1967 66.1387C25.0684 66.076 26.8028 66.051 28.2004 67.4159C29.6104 68.7932 29.5605 70.5713 29.5605 72.3118C30.0222 72.3744 30.384 72.4245 30.6586 72.4495H30.6461ZM48.9638 72.0112C47.1919 66.1637 45.445 60.4163 43.748 54.8442H38.4199C36.7229 60.4414 34.976 66.1762 33.2165 71.9987C34.5517 72.3493 35.7371 72.6498 36.96 72.9754C37.0099 72.6874 37.0473 72.5372 37.0723 72.3869C37.2594 70.9219 37.4092 69.4443 37.6338 67.9793C37.7461 67.2155 38.3825 66.7898 39.0188 66.94C39.6802 67.0903 40.067 67.6913 39.9672 68.4301C39.8923 68.9685 39.8049 69.5069 39.7426 70.0454C39.6178 71.0972 39.5055 72.149 39.3807 73.2509H42.8246C42.7498 72.5998 42.6749 71.9862 42.6 71.3727C42.4752 70.3459 42.313 69.3191 42.2257 68.2798C42.1633 67.5285 42.6375 66.9776 43.3113 66.915C43.8977 66.8649 44.4093 67.2781 44.5466 67.9668C44.609 68.2673 44.6464 68.5804 44.6839 68.8934C44.8586 70.2457 45.0208 71.6106 45.2079 73.0631C46.4932 72.7125 47.7035 72.3744 48.9763 72.0238L48.9638 72.0112ZM7.54924 31.454V40.3068H17.2696V31.454H7.54924ZM16.209 77.6585C20.2768 77.6585 24.3571 77.6585 28.425 77.6585C30.4464 77.6585 30.2093 77.8463 30.2218 75.8679C30.2218 74.6909 30.2218 74.6909 29.0614 74.6909C20.8134 74.6909 12.5654 74.6909 4.31743 74.6909C2.22112 74.6909 2.39581 74.4029 2.39581 76.5941C2.39581 77.6084 2.44572 77.6585 3.44397 77.6585C7.69898 77.6585 11.954 77.6585 16.209 77.6585ZM5.46541 72.2992H27.1273C27.1273 71.7859 27.1273 71.3351 27.1273 70.8718C27.1273 69.2816 26.4035 68.5303 24.7939 68.5303C19.1413 68.5177 13.5013 68.5177 7.84871 68.5303C6.22657 68.5303 5.47788 69.3191 5.47788 70.9219C5.47788 71.3601 5.47788 71.7984 5.47788 72.2992H5.46541ZM16.2589 42.6858V48.8715C17.0949 48.4833 17.8686 48.0826 18.6796 47.7571C22.9347 46.0667 27.2021 44.4138 31.4571 42.7359C33.071 42.1015 33.803 40.9245 33.6533 39.2049C33.6408 39.0421 33.5784 38.8292 33.4661 38.729C32.8672 38.1656 32.2433 37.6397 31.5944 37.0637C29.9099 39.2424 27.7636 40.5196 24.981 40.6323C24.8064 40.6323 24.5817 40.8452 24.4944 41.008C23.9204 42.1975 22.9846 42.7109 21.6868 42.6984C19.9025 42.6733 18.1181 42.6984 16.2464 42.6984L16.2589 42.6858ZM16.3837 53.3792C16.3837 53.3792 16.2589 53.4418 16.1965 53.4794C16.1965 55.27 16.1965 57.0731 16.1965 58.8637C16.209 60.5666 15.4603 61.7937 13.9754 62.5951C13.8007 62.6827 13.5761 62.8956 13.5761 63.0584C13.5387 64.0601 13.5512 65.0743 13.5512 66.076H20.751C20.751 64.1477 20.7635 62.257 20.751 60.3662C20.7385 59.0515 20.3267 57.8369 19.5032 56.8226C18.5299 55.6206 17.4318 54.5187 16.3837 53.3792ZM10.9058 42.7109C10.9058 43.8378 10.9058 44.9022 10.9058 45.954C10.9058 50.2488 10.9058 54.5312 10.9058 58.8261C10.9058 59.9655 11.5547 60.6167 12.5529 60.504C13.389 60.4163 13.8382 59.7902 13.8506 58.6884C13.8506 53.567 13.8506 48.4457 13.8506 43.3244C13.8506 43.1241 13.8132 42.9238 13.7883 42.7109H10.9058ZM45.9566 40.3193C42.7123 41.634 39.4181 41.5339 36.1239 40.2817C36.0615 41.1207 36.074 41.8594 35.9243 42.5606C35.8245 42.9989 35.8619 43.2618 36.1863 43.5749C36.9724 44.3136 37.8209 45.0274 37.9332 46.242C37.9332 46.3672 38.1454 46.53 38.2951 46.5675C40.1543 47.0559 42.0136 47.1185 43.8728 46.5675C44.01 46.53 44.2097 46.3672 44.2222 46.242C44.3469 45.0399 45.1955 44.3387 45.9566 43.5624C46.1188 43.3996 46.3434 43.1867 46.331 43.0114C46.2436 42.1224 46.0939 41.2459 45.9566 40.3068V40.3193ZM35.3877 49.9233C38.3575 53.4794 44.2721 53.3291 46.6679 49.8607C46.331 49.5602 46.0065 49.2221 45.6322 48.9591C45.4325 48.8214 45.1081 48.7212 44.896 48.7838C42.3505 49.5852 39.8174 49.4976 37.2594 48.7838C37.0473 48.7212 36.7229 48.8339 36.5357 48.9717C36.1364 49.2471 35.787 49.5977 35.3877 49.9358V49.9233ZM5.04115 31.404C4.40477 31.404 3.83079 31.4415 3.26927 31.404C2.58298 31.3414 2.37086 31.6168 2.38333 32.293C2.42077 34.1963 2.38333 36.087 2.39581 37.9903C2.43325 40.72 1.89669 40.3318 4.87894 40.3193C4.91637 40.3193 4.96629 40.2817 5.04115 40.2316V31.4165V31.404ZM19.6779 40.3318C20.4141 40.3318 21.0629 40.3819 21.6993 40.3068C21.9239 40.2817 22.2983 39.9311 22.2983 39.7308C22.3357 37.1388 22.3357 34.5343 22.2983 31.9424C22.2983 31.7671 22.0362 31.454 21.8865 31.4415C21.1503 31.3914 20.4141 31.4165 19.6779 31.4165V40.3318ZM29.8974 45.9164C30.8956 46.8931 31.7816 47.7571 32.6426 48.6461C32.942 48.9466 33.1791 48.9717 33.4786 48.6461C33.9777 48.1202 34.5267 47.6444 35.0009 47.0934C35.213 46.843 35.4626 46.2294 35.3877 46.1794C34.689 45.6535 34.4144 44.3637 33.3288 44.5891C32.1933 44.827 31.1327 45.4155 29.8849 45.9039L29.8974 45.9164ZM52.258 45.954C51.4719 45.6409 50.848 45.403 50.2366 45.1651C48.2775 44.4013 48.2651 44.3888 46.9299 46.0166C46.7926 46.1919 46.7926 46.6802 46.9299 46.843C47.4789 47.4941 48.1278 48.0701 48.7143 48.6837C48.9888 48.9717 49.2259 48.9717 49.5004 48.6837C50.3738 47.8072 51.2598 46.9306 52.258 45.954Z" fill="#353535"/>
</g>
<defs>
<clipPath id="clip0_283_70">
<rect width="71" height="80" fill="white"/>
</clipPath>
</defs>
</svg>
