<svg width="70" height="55" viewBox="0 0 70 55" fill="none" xmlns="http://www.w3.org/2000/svg">
<path d="M61.184 53.6549C61.184 54.6105 61.5503 54.9817 62.4892 54.9836C63.1464 54.9836 63.8017 54.9836 64.4589 54.9799C64.9744 54.9799 65.499 54.9762 66.0237 54.9762C66.865 54.9762 67.7154 54.9817 68.5549 54.9983C69.2747 55.0185 69.7073 54.7833 69.9982 54.232V39.7804C69.9908 39.7639 69.9816 39.7473 69.9742 39.7326C69.9319 39.6499 69.884 39.5562 69.8509 39.4552C69.4128 38.1173 68.6101 37.1948 67.4688 36.7097C66.8116 36.4303 66.6809 36.0132 66.6827 35.4306C66.6882 33.1831 66.6882 30.9357 66.6882 28.6882C66.6882 25.1947 66.6882 21.5819 66.7103 18.0296C66.7158 17.1769 66.4342 16.7193 65.6721 16.3371C63.3231 15.1628 60.9465 13.9444 58.649 12.7647C57.9698 12.4155 57.2905 12.0663 56.6093 11.719L52.8797 9.80966C46.7882 6.69111 40.4868 3.46781 34.2977 0.281273C33.5798 -0.0881015 33.0385 -0.0917768 32.431 0.268409C31.9156 0.573464 31.3725 0.841766 30.846 1.10088C30.6159 1.21482 30.3858 1.32875 30.1575 1.44453L28.405 2.33948C26.9893 3.06169 25.5755 3.78573 24.1617 4.50978C23.6021 4.79646 23.3646 5.14746 23.4548 5.55175C23.534 5.90642 23.8064 6.32174 24.1323 6.58636C24.4231 6.82159 24.7729 6.715 25.3178 6.43383L26.4868 5.83291C28.5265 4.78359 30.6362 3.69752 32.7274 2.65923C33.0827 2.48282 33.6313 2.48098 33.9737 2.65556C41.8951 6.6856 49.9361 10.8075 57.7139 14.7916L59.2437 15.5745C59.3596 15.6333 59.4646 15.7031 59.5953 15.7895C59.6634 15.8336 59.7407 15.885 59.8327 15.942L60.6409 16.451H37.1032L37.0277 16.2948C37.0001 16.236 36.9725 16.1772 36.9449 16.1203C36.8934 16.0082 36.8437 15.9016 36.7884 15.7968C35.9637 14.2403 34.1688 13.4005 32.5194 13.8011C30.7153 14.2385 29.4985 15.738 29.4911 17.5316C29.4856 19.3913 30.6693 20.8854 32.5083 21.3374C34.1909 21.7528 35.9803 20.9184 36.7608 19.3546C37.048 18.7794 37.4272 18.6636 37.9445 18.6636H37.95C43.6292 18.6728 49.4022 18.6728 54.9857 18.671H60.1162L59.7591 19.1175C59.5345 19.4005 59.2841 19.542 59.0669 19.6541L53.6713 22.4162C47.2594 25.6964 40.6285 29.0906 34.1155 32.4389C33.5669 32.7219 33.1416 32.7219 32.6004 32.4444C25.443 28.769 18.1586 25.0422 11.1153 21.4385L4.71821 18.1656C4.58198 18.0958 4.4568 18.0204 4.31321 17.9304C4.24326 17.8881 4.16778 17.8403 4.08494 17.7926L3.66522 17.5445L4.37765 17.1604C4.55069 17.0667 4.69796 16.9876 4.84523 16.9105L6.43208 16.0964C8.85838 14.8541 11.2847 13.61 13.7128 12.3732C14.254 12.0976 14.5836 11.8458 14.5633 11.4452C14.5431 11.0446 14.3498 10.5815 14.0939 10.3169C13.8122 10.0247 13.3815 10.0247 12.8181 10.3132L10.4342 11.5371C7.30835 13.1414 4.07574 14.799 0.890993 16.4216C0.342406 16.7028 0 16.9913 0 17.5647C0 18.0737 0.237475 18.3861 0.881788 18.7132C2.32321 19.4465 3.76279 20.1852 5.20053 20.9221C7.19237 21.9439 9.25233 22.9987 11.2847 24.026C11.7872 24.2796 11.9916 24.6104 11.9879 25.1617C11.9805 26.4793 11.9861 27.8189 11.9879 29.1164C11.9953 31.2922 12.0026 33.5433 11.9548 35.7577C11.9106 37.8288 12.7445 39.1795 14.6554 40.1406C19.8025 42.7244 25.1669 45.4699 31.054 48.5315C32.6206 49.3456 34.075 49.3474 35.6342 48.537C41.0427 45.7235 46.5673 42.9137 51.9077 40.1939L52.263 40.0138C53.9584 39.1501 54.739 37.8876 54.7206 36.0371C54.7003 33.9752 54.7022 31.8784 54.704 29.8514C54.704 28.317 54.7077 26.7292 54.6985 25.169C54.6948 24.6067 54.8918 24.2888 55.3999 24.0333C57.2757 23.0888 59.1755 22.1129 61.0128 21.1684C61.7915 20.7678 62.5701 20.3671 63.3507 19.9684C63.5035 19.8893 63.66 19.8232 63.8238 19.7534C63.9011 19.7203 63.9803 19.6872 64.0613 19.6504L64.411 19.4942L64.4479 19.8746C64.4534 19.9279 64.4589 19.972 64.4626 20.0106C64.4718 20.0897 64.481 20.1576 64.481 20.2312V23.8771C64.481 27.7528 64.481 31.7608 64.4939 35.7044C64.4957 36.2851 64.1717 36.4873 63.8367 36.6417C62.0786 37.4649 61.184 38.8395 61.1784 40.7268C61.1692 44.1615 61.1711 47.6531 61.1729 51.0307V53.6549H61.184ZM33.3773 19.2131C33.3662 19.2131 33.3552 19.2131 33.346 19.2131C32.9465 19.2131 32.5396 19.0403 32.2248 18.7371C31.9027 18.4265 31.7131 18.0112 31.7039 17.5996C31.6855 16.7432 32.455 15.9475 33.3183 15.9273C34.1836 15.9071 34.9733 16.6771 34.9936 17.5408C35.012 18.3971 34.2425 19.1929 33.3773 19.2131ZM51.2984 38.0015C46.0334 40.6827 40.3671 43.5752 34.6014 46.5541C34.1725 46.7765 33.7657 46.8867 33.3588 46.8867C32.952 46.8867 32.5286 46.7728 32.0886 46.5449C26.5844 43.6965 21.0083 40.8408 15.5187 38.0622C14.567 37.5807 14.1657 36.9247 14.1786 35.8698C14.2062 33.525 14.2025 31.2223 14.197 28.7837C14.197 27.8575 14.1933 26.924 14.1933 25.9813V25.531L16.0544 26.4774C17.0375 26.9773 17.9837 27.4588 18.9299 27.9421C19.9479 28.464 20.9678 28.984 21.9876 29.5059C25.3988 31.2499 28.926 33.0527 32.3832 34.8499C33.0717 35.2083 33.6331 35.2083 34.3253 34.8499C38.6035 32.6392 42.9628 30.4101 47.1784 28.2545L50.9541 26.3231C51.1842 26.2055 51.4143 26.0915 51.6665 25.9647L52.4342 25.5806L52.4636 25.9941C52.4692 26.0805 52.4765 26.1595 52.482 26.233C52.4949 26.3874 52.506 26.5197 52.506 26.6594C52.506 27.6186 52.506 28.5779 52.506 29.5372C52.5041 31.6597 52.5005 33.8521 52.5207 36.0095C52.5281 36.9394 52.1415 37.5715 51.302 37.9997L51.2984 38.0015ZM64.7498 38.6741C65.4327 38.3819 66.1636 38.4352 66.7545 38.8212C67.3951 39.2383 67.7817 39.9936 67.7909 40.8408C67.8075 42.4322 67.8038 44.0475 67.8001 45.6114C67.8001 46.2895 67.7964 46.9676 67.7964 47.6457V52.7747H63.4648L63.439 52.5266C63.4335 52.4715 63.4262 52.4163 63.4188 52.363C63.4022 52.2381 63.3857 52.1094 63.3857 51.9753C63.3857 50.3728 63.3857 48.7685 63.3857 47.1661C63.3857 45.106 63.3857 43.0441 63.3838 40.9841C63.3838 39.8411 63.8422 39.0637 64.7498 38.676V38.6741Z" fill="#353535"/>
</svg>
