<svg width="46" height="50" viewBox="0 0 46 50" fill="none" xmlns="http://www.w3.org/2000/svg">
<path d="M11.0121 0C21.6027 0 32.1932 0 42.7838 0C42.8853 0.0391389 42.9856 0.0861057 43.0897 0.116112C44.8266 0.606654 45.9958 2.12655 45.9958 3.93868C45.9984 17.983 45.9997 32.0274 45.9958 46.0718C45.9958 48.2753 44.2655 49.9974 42.0664 49.9987C29.6738 50.0013 17.2826 50.0026 4.89008 49.9987C2.17539 49.9987 0.00624201 47.8278 0.00363799 45.1024C-0.00417407 37.9739 -0.000268042 30.8467 0.00103397 23.7182C0.00103397 22.9028 0.34216 22.5558 1.1481 22.5545C3.17794 22.5519 5.20777 22.5545 7.23891 22.5545C7.41337 22.5545 7.58654 22.5545 7.81049 22.5545C7.81049 22.3105 7.81049 22.12 7.81049 21.9296C7.81049 16.0052 7.81049 10.0822 7.81049 4.15786C7.81049 2.69276 8.34171 1.48467 9.57862 0.666667C10.0135 0.378343 10.533 0.219178 11.0134 0.00130463L11.0121 0ZM8.81434 48.0418H9.46925C20.1874 48.0418 30.9055 48.0418 41.6224 48.0418C43.2981 48.0418 44.0337 47.3099 44.0337 45.6425C44.0337 31.8761 44.0337 18.1109 44.0337 4.34442C44.0337 2.7032 43.2929 1.95956 41.6575 1.95956C35.9092 1.95956 30.1608 1.95956 24.4111 1.95956C20.2707 1.95956 16.129 1.96086 11.9886 1.95825C11.1892 1.95825 10.477 2.18526 10.1046 2.92498C9.90412 3.3229 9.8273 3.82388 9.8273 4.27789C9.81298 17.5225 9.81168 30.7684 9.82209 44.013C9.82209 45.4129 9.75829 46.7763 8.81434 48.0404V48.0418ZM7.79096 24.5401H1.96446V25.1402C1.96446 30.7541 1.96446 36.3692 1.96446 41.983C1.96446 42.9915 1.94884 44.0013 1.96837 45.0098C2.00743 46.9915 3.62453 48.3249 5.51765 47.9556C6.847 47.696 7.80398 46.5101 7.80528 45.0724C7.81179 38.3523 7.80788 31.6308 7.80788 24.9106C7.80788 24.7984 7.79747 24.6875 7.78966 24.5414L7.79096 24.5401Z" fill="#353535"/>
</svg>
