<svg width="46" height="50" viewBox="0 0 46 50" fill="none" xmlns="http://www.w3.org/2000/svg">
<g clip-path="url(#clip0_388_49)">
<path d="M11.0121 0C21.6027 0 32.1932 0 42.7838 0C42.8853 0.0391389 42.9856 0.0861057 43.0897 0.116112C44.8266 0.606654 45.9958 2.12655 45.9958 3.93868C45.9984 17.983 45.9997 32.0274 45.9958 46.0718C45.9958 48.2753 44.2655 49.9974 42.0664 49.9987C29.6738 50.0013 17.2826 50.0026 4.89008 49.9987C2.17539 49.9987 0.00624201 47.8278 0.00363799 45.1024C-0.00417407 37.9739 -0.000268042 30.8467 0.00103397 23.7182C0.00103397 22.9028 0.34216 22.5558 1.1481 22.5545C3.17794 22.5519 5.20777 22.5545 7.23891 22.5545C7.41337 22.5545 7.58654 22.5545 7.81049 22.5545C7.81049 22.3105 7.81049 22.12 7.81049 21.9296C7.81049 16.0052 7.81049 10.0822 7.81049 4.15786C7.81049 2.69276 8.34171 1.48467 9.57862 0.666667C10.0135 0.378343 10.533 0.219178 11.0134 0.00130463L11.0121 0ZM8.81434 48.0418H9.46925C20.1874 48.0418 30.9055 48.0418 41.6224 48.0418C43.2981 48.0418 44.0337 47.3099 44.0337 45.6425C44.0337 31.8761 44.0337 18.1109 44.0337 4.34442C44.0337 2.7032 43.2929 1.95956 41.6575 1.95956C35.9092 1.95956 30.1608 1.95956 24.4111 1.95956C20.2707 1.95956 16.129 1.96086 11.9886 1.95825C11.1892 1.95825 10.477 2.18526 10.1046 2.92498C9.90412 3.3229 9.8273 3.82388 9.8273 4.27789C9.81298 17.5225 9.81168 30.7684 9.82209 44.013C9.82209 45.4129 9.75829 46.7763 8.81434 48.0404V48.0418ZM7.79096 24.5401H1.96446V25.1402C1.96446 30.7541 1.96446 36.3692 1.96446 41.983C1.96446 42.9915 1.94884 44.0013 1.96837 45.0098C2.00743 46.9915 3.62453 48.3249 5.51765 47.9556C6.847 47.696 7.80398 46.5101 7.80528 45.0724C7.81179 38.3523 7.80788 31.6308 7.80788 24.9106C7.80788 24.7984 7.79747 24.6875 7.78966 24.5414L7.79096 24.5401Z" fill="#353535"/>
<path d="M19.0744 21.1977C17.3375 21.1977 15.6006 21.2003 13.8638 21.1977C13.0956 21.1964 12.7115 20.8454 12.7089 20.077C12.6972 16.9863 12.6985 13.8957 12.7089 10.8063C12.7115 10.0431 13.1073 9.67517 13.8624 9.67517C17.3518 9.67257 20.8425 9.67257 24.3319 9.67517C25.0715 9.67517 25.4412 10.0418 25.4425 10.7828C25.4477 13.8891 25.4477 16.9955 25.4425 20.1031C25.4425 20.8559 25.091 21.1977 24.3332 21.199C22.5807 21.2029 20.8269 21.199 19.0744 21.2003V21.1977ZM23.4726 11.6804H14.7374V19.2068H23.4726V11.6804Z" fill="#353535"/>
<path d="M26.8982 4.88714C31.1844 4.88714 35.4706 4.88714 39.7568 4.88714C39.9196 4.88714 40.0836 4.8754 40.2438 4.89758C40.7464 4.96672 41.1357 5.42726 41.1174 5.91258C41.0979 6.40051 40.7347 6.7906 40.2282 6.8493C40.0511 6.87018 39.8714 6.86887 39.693 6.86887C31.1701 6.86887 22.6458 6.86887 14.1229 6.86887C13.9601 6.86887 13.7974 6.87148 13.6359 6.85452C13.1047 6.80103 12.7245 6.40182 12.7167 5.89562C12.7076 5.37507 13.1086 4.94063 13.6515 4.89236C13.7961 4.87931 13.9432 4.88714 14.0903 4.88714C18.3596 4.88714 22.6302 4.88714 26.8995 4.88714H26.8982Z" fill="#353535"/>
<path d="M26.8982 28.8036C31.2652 28.8036 35.6321 28.8206 39.9991 28.788C40.749 28.7828 41.3948 29.5342 41.0003 30.1761C40.8375 30.4397 40.4652 30.5792 40.1748 30.7541C40.1032 30.7971 39.9834 30.7619 39.8871 30.7619C31.2339 30.7619 22.5821 30.7554 13.9289 30.7736C13.1438 30.7749 12.7415 30.3183 12.7206 29.7978C12.6985 29.2407 13.1399 28.8102 13.7492 28.8076C15.2752 28.7997 16.8011 28.8049 18.3271 28.8049C21.1837 28.8049 24.0416 28.8049 26.8982 28.8049V28.8036Z" fill="#353535"/>
<path d="M26.9255 33.5812C31.2117 33.5812 35.4966 33.5812 39.7829 33.5838C40.0237 33.5838 40.2776 33.5838 40.5016 33.6568C40.9013 33.7873 41.1643 34.2648 41.1109 34.6679C41.0523 35.1102 40.6877 35.4833 40.249 35.5381C40.1214 35.5538 39.9899 35.546 39.8597 35.546C31.2234 35.546 22.5859 35.546 13.9497 35.546C13.2166 35.546 12.8195 35.2655 12.7349 34.6953C12.6542 34.1513 13.0357 33.6503 13.5812 33.5942C13.7583 33.576 13.938 33.5825 14.1163 33.5825C18.3856 33.5825 22.6562 33.5825 26.9255 33.5825V33.5812Z" fill="#353535"/>
<path d="M26.8917 25.9818C22.5573 25.9818 18.2229 25.9831 13.8885 25.9805C13.0578 25.9805 12.5722 25.4377 12.7662 24.7371C12.8821 24.3197 13.1633 24.0757 13.5956 24.0287C13.7726 24.0092 13.9523 24.0183 14.1307 24.0183C22.6537 24.0183 31.1766 24.0183 39.6996 24.0183C39.8949 24.0183 40.0915 24.0079 40.2829 24.0326C40.736 24.09 41.1031 24.5154 41.1175 24.9746C41.1318 25.4469 40.7555 25.9061 40.2855 25.9674C40.0941 25.9922 39.8962 25.9818 39.7022 25.9818C35.4329 25.9818 31.1623 25.9818 26.893 25.9818H26.8917Z" fill="#353535"/>
<path d="M34.6959 43.1324C36.4667 43.1324 38.2374 43.122 40.0068 43.1363C40.8909 43.1442 41.3883 43.9296 40.9677 44.6171C40.7321 45.0033 40.3662 45.1181 39.9274 45.1155C37.4419 45.1076 34.9563 45.1116 32.4721 45.1116C31.4813 45.1116 30.4904 45.1155 29.4996 45.1103C28.8252 45.1063 28.3591 44.6836 28.3682 44.1018C28.3773 43.5225 28.7965 43.139 29.4814 43.1337C31.2196 43.1233 32.9578 43.1298 34.6959 43.1298V43.1324Z" fill="#353535"/>
<path d="M34.7129 11.6425C32.9591 11.6425 31.204 11.6516 29.4502 11.6386C28.6182 11.632 28.1248 10.9014 28.4789 10.2257C28.6664 9.86818 28.9698 9.67249 29.3838 9.67249C32.9578 9.67249 36.5305 9.66857 40.1046 9.6764C40.6761 9.6764 41.111 10.1226 41.1162 10.6523C41.1214 11.1911 40.7087 11.6294 40.1215 11.6347C38.3182 11.649 36.5162 11.6399 34.7129 11.6399V11.6438V11.6425Z" fill="#353535"/>
<path d="M34.7077 16.4188C32.9864 16.4188 31.2638 16.4214 29.5426 16.4188C28.8056 16.4175 28.3552 16.0261 28.3695 15.4195C28.3838 14.8363 28.8382 14.4567 29.5374 14.4567C33.0137 14.4554 36.4888 14.4554 39.9652 14.4567C40.6526 14.4567 41.1161 14.8572 41.1174 15.4391C41.1187 16.0301 40.6748 16.4175 39.9704 16.4188C38.2166 16.4241 36.4615 16.4201 34.7077 16.4201V16.4188Z" fill="#353535"/>
<path d="M34.7923 19.2393C36.5136 19.2393 38.2348 19.238 39.9574 19.2393C40.6526 19.2393 41.1109 19.6268 41.1175 20.21C41.124 20.7971 40.6722 21.195 39.9769 21.1963C36.4849 21.1989 32.9929 21.1989 29.5022 21.1963C28.8031 21.1963 28.3604 20.801 28.3708 20.2048C28.3799 19.6151 28.8278 19.2407 29.5322 19.2393C31.286 19.238 33.0398 19.2393 34.7936 19.2393H34.7923Z" fill="#353535"/>
<path d="M34.7624 38.3588C36.5331 38.3588 38.3039 38.3471 40.0733 38.364C40.8923 38.3719 41.4001 39.1703 40.9665 39.8004C40.792 40.0548 40.4001 40.304 40.1032 40.3066C36.5305 40.3406 32.9565 40.3327 29.3838 40.3249C28.8096 40.3249 28.3786 39.8878 28.3682 39.3543C28.3578 38.7907 28.7732 38.3679 29.4007 38.3627C31.1871 38.351 32.9734 38.3588 34.7611 38.3575L34.7624 38.3588Z" fill="#353535"/>
<path d="M19.0536 45.1116C17.2998 45.1116 15.546 45.1181 13.7935 45.109C13.0669 45.1051 12.606 44.5611 12.7545 43.9061C12.8508 43.4834 13.1125 43.2225 13.5461 43.1573C13.7062 43.1338 13.869 43.1312 14.0317 43.1312C17.4091 43.1299 20.7866 43.1312 24.1627 43.1286C24.578 43.1286 25.0376 43.1181 25.2355 43.5343C25.3722 43.8226 25.4165 44.2271 25.3332 44.5323C25.216 44.9629 24.8085 45.1129 24.3645 45.1116C22.595 45.109 20.8256 45.1116 19.0549 45.1116H19.0536Z" fill="#353535"/>
<path d="M19.1044 40.3288C17.335 40.3288 15.5656 40.3275 13.7948 40.3288C13.3027 40.3288 12.9394 40.124 12.7793 39.653C12.6269 39.2055 12.7493 38.8011 13.1477 38.5415C13.3248 38.4254 13.5709 38.3654 13.7857 38.364C17.3246 38.3536 20.8647 38.3523 24.4036 38.3601C25.0481 38.3614 25.4387 38.7515 25.44 39.3321C25.4413 39.9296 25.0273 40.3223 24.3632 40.3249C22.6094 40.3301 20.8569 40.3262 19.1031 40.3262L19.1044 40.3288Z" fill="#353535"/>
</g>
<defs>
<clipPath id="clip0_388_49">
<rect width="46" height="50" fill="white"/>
</clipPath>
</defs>
</svg>
