<svg width="67" height="63" viewBox="0 0 67 63" fill="none" xmlns="http://www.w3.org/2000/svg">
<g clip-path="url(#clip0_283_74)">
<path d="M66.19 56.63V62.06C65.74 62.58 65.16 62.71 64.48 62.71C43.57 62.7 22.65 62.7 1.73995 62.7C1.51995 62.7 1.30995 62.71 1.08995 62.7C0.419951 62.63 0.0199512 62.23 0.0199512 61.56C0.00995117 60.07 0.00995117 58.59 0.0199512 57.1C0.0199512 56.41 0.389951 56.03 1.08995 55.98C1.46995 55.95 1.84995 55.98 2.28995 55.98C2.28995 54.95 2.28995 54.02 2.28995 53.1C2.28995 51.67 2.58995 51.37 4.03995 51.37C4.97995 51.37 5.90995 51.37 6.84995 51.37C6.85995 51.18 6.87995 51.1 6.87995 51.01C6.87995 44.68 6.87995 38.35 6.86995 32.01C6.86995 31.78 6.71995 31.48 6.54995 31.32C6.00995 30.82 5.74995 30.21 5.72995 29.49C5.72995 29.15 5.72995 28.81 5.72995 28.41C5.33995 28.41 5.01995 28.41 4.69995 28.41C2.31995 28.41 2.29995 28.39 2.29995 26.04C2.29995 25.31 2.29995 24.59 2.29995 23.81C1.93995 23.81 1.65995 23.81 1.38995 23.81C0.409951 23.81 0.0399512 23.43 0.0399512 22.44C0.0399512 21.56 0.0899512 20.67 0.0299512 19.79C-0.0300488 18.97 0.309951 18.5 1.00995 18.1C11.36 12.18 21.72 6.26 32.06 0.319998C32.8 -0.110002 33.3899 -0.110002 34.1399 0.319998C44.49 6.26 54.85 12.17 65.2 18.1C65.56 18.31 65.86 18.62 66.19 18.89V23.16C65.64 23.97 64.77 23.78 63.9199 23.82C63.9199 24.89 63.9199 25.92 63.9199 26.95C63.91 28.02 63.5499 28.38 62.4799 28.4C61.84 28.41 61.2 28.4 60.49 28.4C60.49 28.81 60.49 29.15 60.49 29.49C60.47 30.16 60.28 30.79 59.74 31.21C59.37 31.49 59.32 31.8 59.32 32.2C59.32 38.33 59.32 44.46 59.32 50.6C59.32 50.83 59.32 51.06 59.32 51.36C60.32 51.36 61.26 51.36 62.2 51.36C63.58 51.36 63.9 51.68 63.9 53.07C63.9 54.01 63.9 54.95 63.9 55.92C64.7599 56.01 65.67 55.74 66.17 56.64L66.19 56.63ZM64.01 21.59C64.01 21.3 63.98 21.08 64.01 20.87C64.14 20.15 63.7999 19.78 63.18 19.42C53.3299 13.82 43.4999 8.2 33.6699 2.57C33.2399 2.32 32.9299 2.33 32.5099 2.57C29.2699 4.45 26.02 6.29 22.77 8.15C16.11 11.96 9.43995 15.76 2.78995 19.57C2.54995 19.7 2.25995 19.94 2.21995 20.17C2.12995 20.62 2.18995 21.1 2.18995 21.58H64.01V21.59ZM63.97 58.17H2.22995V60.48H63.9799V58.17H63.97ZM61.7 23.85H4.51995V26.17H61.7099V23.85H61.7ZM61.7 53.58H4.51995V55.9H61.7099V53.58H61.7ZM18.2299 51.33C18.24 51.16 18.26 51.05 18.26 50.94C18.26 44.61 18.26 38.29 18.25 31.96C18.25 31.73 18.04 31.5 17.92 31.27C17.68 30.78 17.36 30.32 17.2 29.81C17.07 29.39 17.12 28.92 17.09 28.45H14.73C14.73 28.86 14.82 29.25 14.71 29.58C14.53 30.15 14.31 30.75 13.95 31.22C13.71 31.53 13.57 31.78 13.57 32.17C13.57 38.32 13.57 44.48 13.57 50.63V51.33H18.2199H18.2299ZM52.5299 51.33C52.5599 51.22 52.59 51.18 52.59 51.14C52.59 44.73 52.59 38.31 52.59 31.9C52.59 31.72 52.4799 31.48 52.34 31.36C51.6899 30.82 51.42 30.14 51.45 29.31C51.4599 29.02 51.45 28.72 51.45 28.43H49.0499C49.0499 28.77 49.0499 29.06 49.0499 29.36C49.0499 30.05 48.8999 30.72 48.3499 31.16C48 31.44 47.9199 31.74 47.9199 32.15C47.9199 38.3 47.9199 44.46 47.9199 50.61C47.9199 50.84 47.9199 51.06 47.9199 51.31H52.54L52.5299 51.33ZM26.18 28.43C26.18 28.76 26.18 29.04 26.18 29.31C26.16 30.02 26.0399 30.71 25.4699 31.17C25.1199 31.45 25.04 31.75 25.04 32.16C25.04 38.31 25.04 44.47 25.04 50.62C25.04 50.85 25.04 51.08 25.04 51.31H29.66C29.69 51.23 29.7099 51.19 29.7099 51.15C29.7099 44.74 29.7099 38.32 29.7099 31.91C29.7099 31.71 29.57 31.46 29.42 31.33C28.82 30.81 28.5599 30.17 28.57 29.39C28.57 29.07 28.57 28.76 28.57 28.42H26.18V28.43ZM36.4399 51.32H41.09C41.0999 51.14 41.1199 50.99 41.1199 50.85C41.1199 44.57 41.1199 38.28 41.11 32C41.11 31.75 40.8899 31.5 40.7599 31.26C40.5299 30.81 40.22 30.39 40.08 29.91C39.94 29.45 39.9799 28.95 39.93 28.44H37.5999C37.5999 28.84 37.68 29.23 37.58 29.55C37.4 30.13 37.2 30.74 36.83 31.2C36.56 31.53 36.43 31.8 36.43 32.2C36.43 37.21 36.43 42.23 36.43 47.24V51.31L36.4399 51.32ZM20.4799 31.84V51.31H22.82V31.84H20.4799ZM43.3499 31.84V51.31H45.6899V31.84H43.3499ZM9.07995 31.84V51.31H11.36V31.84H9.07995ZM31.95 31.84V51.31H34.2299V31.84H31.95ZM54.82 31.84V51.31H57.0999V31.84H54.82ZM23.9599 29.6C23.9799 29.44 23.9799 29.32 24 29.2C24.1 28.61 23.91 28.34 23.25 28.39C22.57 28.45 21.88 28.4 21.19 28.4C20.58 28.4 19.9699 28.4 19.34 28.4V29.6H23.95H23.9599ZM42.2 29.59H46.82V28.45H42.2V29.59ZM7.89995 29.59H12.5V28.45H7.89995V29.59ZM30.78 29.59H35.38V28.44H30.78V29.59ZM53.65 29.58H58.25V28.45H53.65V29.58Z" fill="#353535"/>
</g>
<defs>
<clipPath id="clip0_283_74">
<rect width="66.19" height="62.71" fill="white"/>
</clipPath>
</defs>
</svg>
